<svg width="0" height="0" aria-hidden="true" xmlns="http://www.w3.org/2000/svg" xmlns:xlink="https://www.w3.org/1999/xlink">
	<symbol id="icon-search" xmlns="http://www.w3.org/2000/svg" viewBox="0 0 20 20">
		<path d="M15.2049 13.952L19 17.7462L17.7462 19L13.952 15.2049C12.5402 16.3366 10.7842 16.9522 8.9748 16.9496C4.57271 16.9496 1 13.3769 1 8.9748C1 4.57271 4.57271 1 8.9748 1C13.3769 1 16.9496 4.57271 16.9496 8.9748C16.9522 10.7842 16.3366 12.5402 15.2049 13.952ZM13.4274 13.2945C14.5519 12.138 15.18 10.5879 15.1774 8.9748C15.1774 5.54741 12.4013 2.77218 8.9748 2.77218C5.54741 2.77218 2.77218 5.54741 2.77218 8.9748C2.77218 12.4013 5.54741 15.1774 8.9748 15.1774C10.5879 15.18 12.138 14.5519 13.2945 13.4274L13.4274 13.2945Z" stroke-width="0.5"/>
	</symbol>
	<symbol id="icon-user" xmlns="http://www.w3.org/2000/svg" viewBox="0 0 24 24" fill="none">
		<path d="M18 20C18 17.6436 15.3137 15.7333 12 15.7333C8.68629 15.7333 6 17.6436 6 20M12 12.5333C9.79086 12.5333 8 10.6231 8 8.26667C8 5.91025 9.79086 4 12 4C14.2091 4 16 5.91025 16 8.26667C16 10.6231 14.2091 12.5333 12 12.5333Z" stroke-width="2" stroke-linecap="round" stroke-linejoin="round"/>
	</symbol>
	<symbol id="icon-favorite" xmlns="http://www.w3.org/2000/svg" viewBox="0 0 24 24" fill="none">
		<path d="M12 7.76694C10.2222 3.64897 4 4.08757 4 9.3508C4 14.614 12 19 12 19C12 19 20 14.614 20 9.3508C20 4.08757 13.7778 3.64897 12 7.76694Z" stroke-width="2" stroke-linecap="round" stroke-linejoin="round"/>
	</symbol>
	<symbol id="icon-compare" xmlns="http://www.w3.org/2000/svg" viewBox="0 0 24 24" fill="none">
		<path d="M6 10.8571L6 20M12 4L12 20M18 10.8571L18 20" stroke-width="2" stroke-linecap="round" stroke-linejoin="round"/>
	</symbol>
	<symbol id="icon-cart" xmlns="http://www.w3.org/2000/svg" viewBox="0 0 24 24">
		<path d="M4 4H4.24217C4.66972 4 4.88369 4 5.05808 4.07598C5.21183 4.14297 5.34347 4.25093 5.43827 4.3877C5.54578 4.54281 5.58449 4.74992 5.66211 5.16406L7.6098 15.5556L17.0127 15.5556C17.4229 15.5556 17.6283 15.5555 17.798 15.4843C17.9476 15.4214 18.0771 15.3198 18.1729 15.1903C18.2816 15.0435 18.3274 14.8467 18.4197 14.4531L19.8358 8.40864C19.9752 7.81355 20.045 7.5161 19.9684 7.28234C19.9011 7.07739 19.7602 6.90342 19.5725 6.79282C19.3585 6.66667 19.0489 6.66667 18.4289 6.66667H6.2561M17.5366 20C17.0382 20 16.6342 19.602 16.6342 19.1111C16.6342 18.6202 17.0382 18.2222 17.5366 18.2222C18.035 18.2222 18.4391 18.6202 18.4391 19.1111C18.4391 19.602 18.035 20 17.5366 20ZM8.5122 20C8.0138 20 7.60976 19.602 7.60976 19.1111C7.60976 18.6202 8.0138 18.2222 8.5122 18.2222C9.01061 18.2222 9.41465 18.6202 9.41465 19.1111C9.41465 19.602 9.01061 20 8.5122 20Z" stroke-width="2" stroke-linecap="round" stroke-linejoin="round"/>
	</symbol>
	<symbol id="icon-location" xmlns="http://www.w3.org/2000/svg" viewBox="0 0 24 24" fill="none">
		<path d="M17.4817 5.0359L5.05506 8.85949C4.37728 9.06804 4.30027 9.99674 4.93454 10.3139L10.2013 12.9472C10.3534 13.0233 10.4767 13.1466 10.5528 13.2987L13.186 18.5654C13.5032 19.1996 14.4318 19.1228 14.6403 18.445L18.4641 6.01835C18.6497 5.41524 18.0849 4.85032 17.4817 5.0359Z" stroke-width="2" stroke-linecap="round" stroke-linejoin="round"/>
	</symbol>
	<symbol id="icon-phone" xmlns="http://www.w3.org/2000/svg" viewBox="0 0 24 24" fill="none">
		<path d="M18.9996 15.4817V17.5893C19.0004 17.7849 18.9602 17.9786 18.8817 18.1578C18.8031 18.3371 18.6879 18.498 18.5435 18.6303C18.399 18.7626 18.2285 18.8633 18.0428 18.9259C17.8571 18.9886 17.6603 19.0119 17.465 18.9943C15.299 18.7594 13.2183 18.0207 11.3902 16.8376C9.68945 15.7589 8.24748 14.3198 7.16674 12.6224C5.9771 10.7897 5.23677 8.70306 5.00571 6.53156C4.98812 6.33729 5.01126 6.1415 5.07364 5.95664C5.13603 5.77178 5.2363 5.60191 5.36807 5.45785C5.49984 5.31378 5.66022 5.19868 5.839 5.11986C6.01779 5.04105 6.21106 5.00025 6.40651 5.00007H8.51826C8.85987 4.99671 9.19105 5.11744 9.45007 5.33976C9.70909 5.56208 9.87828 5.87081 9.92609 6.20841C10.0152 6.88287 10.1805 7.54511 10.4188 8.18249C10.5135 8.43394 10.534 8.70721 10.4779 8.96993C10.4218 9.23265 10.2913 9.4738 10.1021 9.66481L9.20809 10.557C10.2102 12.3158 11.6693 13.7721 13.4316 14.7721L14.3256 13.8799C14.517 13.6911 14.7586 13.5609 15.0218 13.5049C15.2851 13.4488 15.5589 13.4693 15.8108 13.5638C16.4495 13.8016 17.113 13.9666 17.7888 14.0556C18.1308 14.1037 18.4431 14.2756 18.6663 14.5386C18.8895 14.8015 19.0081 15.1372 18.9996 15.4817Z" stroke-width="2" stroke-linecap="round" stroke-linejoin="round"/>
	</symbol>
	<symbol id="icon-email" xmlns="http://www.w3.org/2000/svg" viewBox="0 0 16 16" fill="none">
		<path d="M1.77778 2.78571L8.17778 7.5L14.2222 2.78571M12.5113 13H3.48904C2.61785 13 2.18193 13 1.84918 12.8287C1.55648 12.678 1.31868 12.4377 1.16955 12.142C1 11.8059 1 11.3658 1 10.4857V4.51425C1 3.63416 1 3.19418 1.16955 2.85803C1.31868 2.56235 1.55648 2.32193 1.84918 2.17128C2.18193 2 2.61785 2 3.48904 2H12.5113C13.3825 2 13.8177 2 14.1505 2.17128C14.4432 2.32193 14.6815 2.56235 14.8306 2.85803C15 3.19385 15 3.6333 15 4.51166V10.4883C15 11.3666 15 11.8062 14.8306 12.142C14.6815 12.4377 14.4432 12.678 14.1505 12.8287C13.8177 13 13.3825 13 12.5113 13Z" stroke-width="2" stroke-linecap="round" stroke-linejoin="round"/>
	</symbol>
	<symbol id="icon-arrow-long" xmlns="http://www.w3.org/2000/svg" viewBox="0 0 32 32">
		<path d="M15.6467 26.5696L26.6273 15.126L27.9999 16.5565L17.0193 28L15.6467 26.5696Z"/>
		<path d="M4 15.1262H27.2934V17.1492H4V15.1262Z"/>
		<path d="M17.0194 4L28 15.4436L26.6274 16.874L15.6468 5.43044L17.0194 4Z"/>
	</symbol>
	<symbol id="icon-close" xmlns="http://www.w3.org/2000/svg" viewBox="0 0 24 24" fill="none">
		<path d="M20 20L4 4" stroke-width="2" stroke-linejoin="round"/>
		<path d="M20 4L4 20" stroke-width="2" stroke-linejoin="round"/>
	</symbol>
	<symbol id="icon-close-round" xmlns="http://www.w3.org/2000/svg" viewBox="0 0 24 25" fill="none">
		<path d="M12 21.5C16.9706 21.5 21 17.4706 21 12.5C21 7.52944 16.9706 3.5 12 3.5C7.02944 3.5 3 7.52944 3 12.5C3 17.4706 7.02944 21.5 12 21.5Z" stroke-width="2" stroke-linecap="round" stroke-linejoin="round"/>
		<path d="M15 9.5L9 15.5" stroke-width="2" stroke-linecap="round" stroke-linejoin="round"/>
		<path d="M9 9.5L15 15.5" stroke-width="2" stroke-linecap="round" stroke-linejoin="round"/>
	 </symbol>
	<symbol id="icon-grid" xmlns="http://www.w3.org/2000/svg" viewBox="0 0 24 24" fill="none">
		<path d="M8 6C8 6.53043 7.78929 7.03914 7.41421 7.41421C7.03914 7.78929 6.53043 8 6 8C5.46957 8 4.96086 7.78929 4.58579 7.41421C4.21071 7.03914 4 6.53043 4 6C4 5.46957 4.21071 4.96086 4.58579 4.58579C4.96086 4.21071 5.46957 4 6 4C6.53043 4 7.03914 4.21071 7.41421 4.58579C7.78929 4.96086 8 5.46957 8 6ZM8 12C8 12.5304 7.78929 13.0391 7.41421 13.4142C7.03914 13.7893 6.53043 14 6 14C5.46957 14 4.96086 13.7893 4.58579 13.4142C4.21071 13.0391 4 12.5304 4 12C4 11.4696 4.21071 10.9609 4.58579 10.5858C4.96086 10.2107 5.46957 10 6 10C6.53043 10 7.03914 10.2107 7.41421 10.5858C7.78929 10.9609 8 11.4696 8 12ZM6 20C6.53043 20 7.03914 19.7893 7.41421 19.4142C7.78929 19.0391 8 18.5304 8 18C8 17.4696 7.78929 16.9609 7.41421 16.5858C7.03914 16.2107 6.53043 16 6 16C5.46957 16 4.96086 16.2107 4.58579 16.5858C4.21071 16.9609 4 17.4696 4 18C4 18.5304 4.21071 19.0391 4.58579 19.4142C4.96086 19.7893 5.46957 20 6 20ZM14 6C14 6.53043 13.7893 7.03914 13.4142 7.41421C13.0391 7.78929 12.5304 8 12 8C11.4696 8 10.9609 7.78929 10.5858 7.41421C10.2107 7.03914 10 6.53043 10 6C10 5.46957 10.2107 4.96086 10.5858 4.58579C10.9609 4.21071 11.4696 4 12 4C12.5304 4 13.0391 4.21071 13.4142 4.58579C13.7893 4.96086 14 5.46957 14 6ZM12 14C12.5304 14 13.0391 13.7893 13.4142 13.4142C13.7893 13.0391 14 12.5304 14 12C14 11.4696 13.7893 10.9609 13.4142 10.5858C13.0391 10.2107 12.5304 10 12 10C11.4696 10 10.9609 10.2107 10.5858 10.5858C10.2107 10.9609 10 11.4696 10 12C10 12.5304 10.2107 13.0391 10.5858 13.4142C10.9609 13.7893 11.4696 14 12 14ZM14 18C14 18.5304 13.7893 19.0391 13.4142 19.4142C13.0391 19.7893 12.5304 20 12 20C11.4696 20 10.9609 19.7893 10.5858 19.4142C10.2107 19.0391 10 18.5304 10 18C10 17.4696 10.2107 16.9609 10.5858 16.5858C10.9609 16.2107 11.4696 16 12 16C12.5304 16 13.0391 16.2107 13.4142 16.5858C13.7893 16.9609 14 17.4696 14 18ZM18 8C18.5304 8 19.0391 7.78929 19.4142 7.41421C19.7893 7.03914 20 6.53043 20 6C20 5.46957 19.7893 4.96086 19.4142 4.58579C19.0391 4.21071 18.5304 4 18 4C17.4696 4 16.9609 4.21071 16.5858 4.58579C16.2107 4.96086 16 5.46957 16 6C16 6.53043 16.2107 7.03914 16.5858 7.41421C16.9609 7.78929 17.4696 8 18 8ZM20 12C20 12.5304 19.7893 13.0391 19.4142 13.4142C19.0391 13.7893 18.5304 14 18 14C17.4696 14 16.9609 13.7893 16.5858 13.4142C16.2107 13.0391 16 12.5304 16 12C16 11.4696 16.2107 10.9609 16.5858 10.5858C16.9609 10.2107 17.4696 10 18 10C18.5304 10 19.0391 10.2107 19.4142 10.5858C19.7893 10.9609 20 11.4696 20 12ZM18 20C18.5304 20 19.0391 19.7893 19.4142 19.4142C19.7893 19.0391 20 18.5304 20 18C20 17.4696 19.7893 16.9609 19.4142 16.5858C19.0391 16.2107 18.5304 16 18 16C17.4696 16 16.9609 16.2107 16.5858 16.5858C16.2107 16.9609 16 17.4696 16 18C16 18.5304 16.2107 19.0391 16.5858 19.4142C16.9609 19.7893 17.4696 20 18 20Z" fill="black"/>
	</symbol>
	<symbol id="icon-garage" xmlns="http://www.w3.org/2000/svg" viewBox="0 0 24 24" fill="none">
		<path d="M9 13.6654V17.9987H16V13.6654M9 13.6654V9.33203H16V13.6654M9 13.6654H16" stroke-width="2" stroke-linecap="round" stroke-linejoin="round"/>
		<path d="M5 18H7.5H17.5H20V5.75L12.5 4L5 5.75V18Z" stroke-width="2" stroke-linecap="round" stroke-linejoin="round"/>
	</symbol>
	<symbol id="icon-point" xmlns="http://www.w3.org/2000/svg" viewBox="0 0 24 24" fill="none">
		<circle cx="12" cy="10" r="2" stroke-width="2"/>
		<path d="M12 20L16.9497 15.0208C19.6834 12.2709 19.6834 7.81237 16.9497 5.06244C14.2161 2.31252 9.78392 2.31252 7.05025 5.06244C4.31658 7.81237 4.31658 12.2709 7.05025 15.0208L12 20Z" stroke="#202124" stroke-width="2" stroke-linejoin="round"/>
	</symbol>
	<symbol id="icon-orders" xmlns="http://www.w3.org/2000/svg" viewBox="0 0 24 24" fill="none">
		<path d="M5 14H19" stroke="#202124" stroke-width="2" stroke-linecap="round"/>
		<path d="M5 18H19" stroke="#202124" stroke-width="2" stroke-linecap="round"/>
		<rect x="5" y="4" width="14" height="6" stroke-width="2" stroke-linejoin="round"/>
	</symbol>
	<symbol id="icon-logoout" xmlns="http://www.w3.org/2000/svg" viewBox="0 0 24 24" fill="none">
		<path d="M17.4291 15.1214C17.2391 15.1214 17.0491 15.0514 16.8991 14.9014C16.6091 14.6114 16.6091 14.1314 16.8991 13.8414L18.9291 11.8114L16.8991 9.78141C16.6091 9.49141 16.6091 9.01141 16.8991 8.72141C17.1891 8.43141 17.6691 8.43141 17.9591 8.72141L20.5191 11.2814C20.8091 11.5714 20.8091 12.0514 20.5191 12.3414L17.9591 14.9014C17.8091 15.0514 17.6191 15.1214 17.4291 15.1214Z"/>
		<path d="M19.92 12.5586H9.75C9.34 12.5586 9 12.2186 9 11.8086C9 11.3986 9.34 11.0586 9.75 11.0586H19.92C20.33 11.0586 20.67 11.3986 20.67 11.8086C20.67 12.2186 20.33 12.5586 19.92 12.5586Z"/>
		<path d="M11.75 20.5C6.6 20.5 3 16.9 3 11.75C3 6.6 6.6 3 11.75 3C12.16 3 12.5 3.34 12.5 3.75C12.5 4.16 12.16 4.5 11.75 4.5C7.48 4.5 4.5 7.48 4.5 11.75C4.5 16.02 7.48 19 11.75 19C12.16 19 12.5 19.34 12.5 19.75C12.5 20.16 12.16 20.5 11.75 20.5Z"/>
	</symbol>
	<symbol id="icon-clock" xmlns="http://www.w3.org/2000/svg" viewBox="0 0 16 16" fill="none">
		<g clip-path="url(#clip0_1760_20049)">
		  <path d="M8 15C11.866 15 15 11.866 15 8C15 4.13401 11.866 1 8 1C4.13401 1 1 4.13401 1 8C1 11.866 4.13401 15 8 15Z" stroke-width="2" stroke-linecap="round" stroke-linejoin="round"/>
		  <path d="M8.53906 4.23047V8.26893L10.6929 9.61508" stroke-width="2" stroke-linecap="round" stroke-linejoin="round"/>
		</g>
		<defs>
			<clipPath id="clip0_1760_20049">
				<rect width="16" height="16" fill="white"/>
			</clipPath>
		</defs>
	</symbol>
	<symbol id="icon-trash" xmlns="http://www.w3.org/2000/svg" viewBox="0 0 24 24">
		<path d="M18.1111 5.1H14.5556V4.2C14.5556 3.48392 14.2746 2.79716 13.7745 2.29081C13.2744 1.78446 12.5961 1.5 11.8889 1.5H10.1111C9.40387 1.5 8.72559 1.78446 8.22549 2.29081C7.7254 2.79716 7.44444 3.48392 7.44444 4.2V5.1H3.88889C3.65314 5.1 3.42705 5.19482 3.26035 5.3636C3.09365 5.53239 3 5.7613 3 6C3 6.23869 3.09365 6.46761 3.26035 6.6364C3.42705 6.80518 3.65314 6.9 3.88889 6.9H4.77778V16.8C4.77778 17.5161 5.05873 18.2028 5.55883 18.7092C6.05892 19.2155 6.7372 19.5 7.44444 19.5H14.5556C15.2628 19.5 15.9411 19.2155 16.4412 18.7092C16.9413 18.2028 17.2222 17.5161 17.2222 16.8V6.9H18.1111C18.3469 6.9 18.573 6.80518 18.7397 6.6364C18.9064 6.46761 19 6.23869 19 6C19 5.7613 18.9064 5.53239 18.7397 5.3636C18.573 5.19482 18.3469 5.1 18.1111 5.1ZM9.22222 4.2C9.22222 3.96131 9.31587 3.73239 9.48257 3.5636C9.64927 3.39482 9.87536 3.3 10.1111 3.3H11.8889C12.1246 3.3 12.3507 3.39482 12.5174 3.5636C12.6841 3.73239 12.7778 3.96131 12.7778 4.2V5.1H9.22222V4.2ZM15.4444 16.8C15.4444 17.0387 15.3508 17.2676 15.1841 17.4364C15.0174 17.6052 14.7913 17.7 14.5556 17.7H7.44444C7.2087 17.7 6.9826 17.6052 6.81591 17.4364C6.64921 17.2676 6.55556 17.0387 6.55556 16.8V6.9H15.4444V16.8Z"/>
	</symbol>
	<symbol id="icon-view" xmlns="http://www.w3.org/2000/svg" viewBox="0 0 24 24" fill="none">
		<path d="M2 12C2 12 5.63636 5 12 5C18.3636 5 22 12 22 12C22 12 18.3636 19 12 19C5.63636 19 2 12 2 12Z" stroke-width="2" stroke-linecap="round" stroke-linejoin="round"/>
		<path d="M12 15C13.6569 15 15 13.6569 15 12C15 10.3431 13.6569 9 12 9C10.3431 9 9 10.3431 9 12C9 13.6569 10.3431 15 12 15Z" stroke-width="2" stroke-linecap="round" stroke-linejoin="round"/>
	</symbol>
	<symbol id="icon-arrow" xmlns="http://www.w3.org/2000/svg" viewBox="0 0 16 16">
		<rect width="7.93409" height="1.98352" transform="matrix(0.7058 0.708411 0.7058 -0.708411 4.5 4.90625)"/>
		<rect width="7.93409" height="1.98352" transform="matrix(0.7058 -0.708411 -0.7058 -0.708411 5.90039 14.5)"/>
	</symbol>
	<symbol id="icon-plus" xmlns="http://www.w3.org/2000/svg" viewBox="0 0 16 16">
		<path d="M8.95162 4.88844C8.95162 5.54408 8.95594 6.1954 8.94731 6.85103C8.94299 7.01494 8.99046 7.04945 9.15011 7.04945C10.423 7.04082 11.6959 7.04513 12.9688 7.04513C13.5771 7.04513 14 7.43334 14 7.98976C14 8.54619 13.5771 8.94302 12.9731 8.94302C11.7002 8.94302 10.4273 8.94733 9.15442 8.9387C8.98183 8.9387 8.94299 8.99046 8.94731 9.15437C8.95594 10.4484 8.95162 11.7424 8.95162 13.0364C8.95162 13.5109 8.61938 13.9034 8.16632 13.9854C7.73915 14.063 7.30766 13.8258 7.13076 13.4203C7.07035 13.278 7.04877 13.1313 7.05309 12.9803C7.05309 11.7079 7.04877 10.4354 7.0574 9.163C7.0574 8.97752 7.00563 8.94302 6.83303 8.94302C5.54721 8.95164 4.25706 8.94733 2.97124 8.94733C2.4664 8.94733 2.05218 8.58501 2.00471 8.11054C1.95725 7.61018 2.27223 7.17022 2.77276 7.07101C2.86337 7.05376 2.95829 7.05376 3.05322 7.05376C4.31747 7.05376 5.58604 7.04945 6.85029 7.05807C7.02288 7.05807 7.06172 7.00631 7.0574 6.8424C7.04877 5.54839 7.05309 4.25438 7.05309 2.96037C7.05309 2.49883 7.35081 2.12788 7.79524 2.02436C8.20515 1.92516 8.64958 2.13651 8.84375 2.5204C8.92142 2.67137 8.95162 2.83096 8.95162 2.99919C8.94731 3.62463 8.95162 4.25869 8.95162 4.88844Z"/>
	</symbol>
	<symbol id="icon-minus" xmlns="http://www.w3.org/2000/svg" viewBox="0 0 16 16">
		<path d="M14 7.9915C14 7.43508 13.5771 7.04688 12.9688 7.04688L3.05322 7.0555H3.05322C2.95829 7.0555 2.86337 7.0555 2.77276 7.07276C2.27223 7.17196 1.95725 7.61193 2.00471 8.11228C2.05218 8.58675 2.4664 8.94907 2.97124 8.94907L12.9731 8.94476C13.5771 8.94476 14 8.54793 14 7.9915Z"/>
	</symbol>
	<symbol id="icon-telegram" xmlns="http://www.w3.org/2000/svg" viewBox="0 0 25 24" fill="none">
		<path d="M19.5 6L3.5 12L9.39474 12.8M19.5 6L17.3947 18L9.39474 12.8M19.5 6L9.39474 12.8M9.39474 12.8V17.2L12.1307 14.5784" stroke-width="1.5" stroke-linecap="round" stroke-linejoin="round"/>
	</symbol>
	<symbol id="icon-telegram-fill" xmlns="http://www.w3.org/2000/svg" viewBox="0 0 16 12">
		<path d="M14.4875 0.0789028L1.20041 4.96642C0.293616 5.31384 0.298862 5.79638 1.03404 6.01155L4.44537 7.02665L12.3382 2.27639C12.7114 2.05979 13.0524 2.17631 12.7721 2.41364L6.37736 7.9188H6.37586L6.37736 7.91952L6.14205 11.2737C6.48678 11.2737 6.63891 11.1228 6.83225 10.9448L8.48921 9.40786L11.9358 11.8363C12.5713 12.1701 13.0277 11.9985 13.1858 11.2751L15.4483 1.10402C15.6798 0.218301 15.0938 -0.182737 14.4875 0.0789028Z"/>
	</symbol>
	<symbol id="icon-telegram2" xmlns="http://www.w3.org/2000/svg" viewBox="0 0 24 24" fill="none">
		<path d="M22 4L3 11.5L10 12.5M22 4L19.5 19L10 12.5M22 4L10 12.5M10 12.5V18L13.249 14.723" stroke-width="1.3" stroke-linecap="round" stroke-linejoin="round"/>
	</symbol>
	<symbol id="icon-whatsapp" xmlns="http://www.w3.org/2000/svg" viewBox="0 0 25 24">
		<path d="M18.1683 6.32804C17.4312 5.58718 16.5532 4.99978 15.5855 4.60009C14.6179 4.20039 13.5799 3.99642 12.5322 4.00005C8.14221 4.00005 4.56432 7.56004 4.56432 11.928C4.56432 13.328 4.93417 14.688 5.62563 15.888L4.5 20L8.72111 18.896C9.88693 19.528 11.1975 19.864 12.5322 19.864C16.9221 19.864 20.5 16.304 20.5 11.936C20.5 9.81603 19.6719 7.82404 18.1683 6.32804ZM12.5322 18.52C11.3422 18.52 10.1764 18.2 9.15528 17.6L8.91407 17.456L6.40553 18.112L7.07286 15.68L6.91206 15.432C6.25095 14.3816 5.89991 13.1674 5.89899 11.928C5.89899 8.29603 8.87387 5.33604 12.5241 5.33604C14.293 5.33604 15.9573 6.02404 17.2035 7.27204C17.8206 7.88321 18.3096 8.61016 18.6422 9.41077C18.9748 10.2114 19.1444 11.0697 19.1412 11.936C19.1573 15.568 16.1824 18.52 12.5322 18.52ZM16.1663 13.592C15.9653 13.496 14.9844 13.016 14.8075 12.944C14.6226 12.88 14.494 12.848 14.3573 13.04C14.2206 13.24 13.8427 13.688 13.7302 13.816C13.6176 13.952 13.497 13.968 13.296 13.864C13.095 13.768 12.4518 13.552 11.696 12.88C11.101 12.352 10.707 11.704 10.5864 11.504C10.4739 11.304 10.5704 11.2 10.6749 11.096C10.7633 11.008 10.8759 10.864 10.9724 10.752C11.0688 10.64 11.109 10.552 11.1734 10.424C11.2377 10.288 11.2055 10.176 11.1573 10.08C11.109 9.98403 10.707 9.00803 10.5462 8.60803C10.3854 8.22404 10.2166 8.27204 10.096 8.26404H9.71005C9.57337 8.26404 9.36432 8.31204 9.1794 8.51203C9.00251 8.71203 8.48794 9.19203 8.48794 10.168C8.48794 11.144 9.20352 12.088 9.3 12.216C9.39648 12.352 10.707 14.352 12.701 15.208C13.1754 15.416 13.5452 15.536 13.8347 15.624C14.309 15.776 14.7432 15.752 15.0889 15.704C15.4749 15.648 16.2709 15.224 16.4317 14.76C16.6005 14.296 16.6005 13.904 16.5442 13.816C16.4879 13.728 16.3673 13.688 16.1663 13.592Z"/>
	</symbol>
	<symbol id="icon-whatsapp2" xmlns="http://www.w3.org/2000/svg" viewBox="0 0 24 24">
		<path d="M18.3769 4.61905C17.5476 3.78558 16.5599 3.12475 15.4712 2.6751C14.3826 2.22544 13.2149 1.99597 12.0362 2.00005C7.09749 2.00005 3.07236 6.00504 3.07236 10.919C3.07236 12.494 3.48844 14.024 4.26633 15.374L3 20L7.74874 18.758C9.0603 19.469 10.5347 19.847 12.0362 19.847C16.9749 19.847 21 15.842 21 10.928C21 8.54303 20.0683 6.30204 18.3769 4.61905ZM12.0362 18.335C10.6975 18.335 9.38593 17.975 8.23719 17.3L7.96583 17.138L5.14372 17.876L5.89447 15.14L5.71357 14.861C4.96982 13.6793 4.5749 12.3133 4.57387 10.919C4.57387 6.83304 7.9206 3.50305 12.0271 3.50305C14.0171 3.50305 15.8894 4.27705 17.2915 5.68104C17.9857 6.36861 18.5358 7.18643 18.91 8.08712C19.2842 8.9878 19.475 9.95343 19.4714 10.928C19.4894 15.014 16.1427 18.335 12.0362 18.335ZM16.1246 12.791C15.8985 12.683 14.795 12.143 14.596 12.062C14.3879 11.99 14.2432 11.954 14.0894 12.17C13.9357 12.395 13.5106 12.899 13.3839 13.043C13.2573 13.196 13.1216 13.214 12.8955 13.097C12.6693 12.989 11.9457 12.746 11.0955 11.99C10.4261 11.396 9.98291 10.667 9.84724 10.442C9.7206 10.217 9.82914 10.1 9.94673 9.98303C10.0462 9.88403 10.1729 9.72203 10.2814 9.59603C10.3899 9.47003 10.4352 9.37103 10.5075 9.22703C10.5799 9.07403 10.5437 8.94803 10.4894 8.84003C10.4352 8.73203 9.98291 7.63404 9.80201 7.18404C9.6211 6.75204 9.43115 6.80604 9.29548 6.79704H8.86131C8.70754 6.79704 8.47236 6.85104 8.26432 7.07604C8.06533 7.30104 7.48643 7.84104 7.48643 8.93903C7.48643 10.037 8.29146 11.099 8.4 11.243C8.50854 11.396 9.98291 13.646 12.2261 14.609C12.7598 14.843 13.1759 14.978 13.5015 15.077C14.0352 15.248 14.5236 15.221 14.9126 15.167C15.3467 15.104 16.2422 14.627 16.4231 14.105C16.6131 13.583 16.6131 13.142 16.5497 13.043C16.4864 12.944 16.3508 12.899 16.1246 12.791Z"/>
	</symbol>
	<symbol id="icon-vk" xmlns="http://www.w3.org/2000/svg" viewBox="0 0 16 12">
		<path fill-rule="evenodd" clip-rule="evenodd" d="M7.7296 11.184H8.68453C8.68453 11.184 8.97101 11.1285 9.11424 10.962C9.25748 10.7955 9.25748 10.4625 9.25748 10.4625C9.25748 10.4625 9.25748 9.01949 9.83044 8.79749C10.4034 8.57549 11.1673 10.2405 11.9313 10.851C12.5042 11.3505 12.934 11.2395 12.934 11.2395L15.0348 11.184C15.0348 11.184 16.133 11.1285 15.6077 10.074C15.56 10.0185 15.3213 9.35249 14.0321 7.96499C12.6952 6.522 12.8862 6.7995 14.4618 4.302C15.4168 2.8035 15.7987 1.9155 15.7032 1.4715C15.6077 1.083 14.8916 1.194 14.8916 1.194H12.5042C12.5042 1.194 12.3132 1.1385 12.2178 1.2495C12.0745 1.3605 12.0268 1.527 12.0268 1.527C12.0268 1.527 11.6448 2.6925 11.1673 3.6915C10.1169 5.745 9.6872 5.856 9.54396 5.745C9.16199 5.4675 9.25748 4.524 9.25748 3.9135C9.25748 1.9155 9.54396 1.083 8.73227 0.860999C8.49354 0.805499 8.30256 0.75 7.63411 0.75C6.77467 0.75 6.05848 0.75 5.67651 0.972C5.39003 1.1385 5.19905 1.4715 5.34228 1.4715C5.48552 1.4715 5.86749 1.5825 6.05848 1.86C6.24946 2.3595 6.24946 3.192 6.24946 3.192C6.24946 3.192 6.3927 5.5785 5.91524 5.856C5.58102 6.078 5.1513 5.634 4.19637 3.747C3.71891 2.8035 3.33694 1.6935 3.33694 1.6935C3.33694 1.6935 3.28919 1.4715 3.14595 1.3605C3.00271 1.2495 2.76398 1.194 2.76398 1.194H0.519905C0.519905 1.194 0.18568 1.194 0.0424412 1.3605C-0.0530515 1.527 0.0424412 1.8045 0.0424412 1.8045C0.0424412 1.8045 1.80906 6.5775 3.8144 9.01949C5.67651 11.3505 7.7296 11.184 7.7296 11.184Z"/>
	</symbol>
	<symbol id="icon-vk2" xmlns="http://www.w3.org/2000/svg" viewBox="0 0 24 24">
		<path fill-rule="evenodd" clip-rule="evenodd" d="M12.3061 18.912H13.5794C13.5794 18.912 13.9613 18.838 14.1523 18.616C14.3433 18.394 14.3433 17.95 14.3433 17.95C14.3433 17.95 14.3433 16.026 15.1073 15.73C15.8712 15.434 16.8898 17.654 17.9084 18.468C18.6723 19.134 19.2453 18.986 19.2453 18.986L22.0464 18.912C22.0464 18.912 23.5106 18.838 22.8103 17.432C22.7467 17.358 22.4284 16.47 20.7095 14.62C18.927 12.696 19.1816 13.066 21.2824 9.736C22.5557 7.738 23.065 6.554 22.9377 5.962C22.8103 5.444 21.8554 5.592 21.8554 5.592H18.6723C18.6723 5.592 18.4177 5.518 18.2903 5.666C18.0994 5.814 18.0357 6.036 18.0357 6.036C18.0357 6.036 17.5264 7.59 16.8898 8.922C15.4892 11.66 14.9163 11.808 14.7253 11.66C14.216 11.29 14.3433 10.032 14.3433 9.218C14.3433 6.554 14.7253 5.444 13.643 5.148C13.3247 5.074 13.0701 5 12.1788 5C11.0329 5 10.078 5 9.56868 5.296C9.18671 5.518 8.93206 5.962 9.12305 5.962C9.31403 5.962 9.82333 6.11 10.078 6.48C10.3326 7.146 10.3326 8.256 10.3326 8.256C10.3326 8.256 10.5236 11.438 9.88699 11.808C9.44135 12.104 8.8684 11.512 7.59516 8.996C6.95855 7.738 6.44925 6.258 6.44925 6.258C6.44925 6.258 6.38559 5.962 6.1946 5.814C6.00362 5.666 5.68531 5.592 5.68531 5.592H2.69321C2.69321 5.592 2.24757 5.592 2.05659 5.814C1.92926 6.036 2.05659 6.406 2.05659 6.406C2.05659 6.406 4.41207 12.77 7.08587 16.026C9.56868 19.134 12.3061 18.912 12.3061 18.912Z"/>
	</symbol>
	<symbol id="icon-chain" xmlns="http://www.w3.org/2000/svg" width="28" height="38" viewBox="0 0 28 38" fill="none">
		<path d="M13.3341 23.4582C12.6932 23.6513 12.0359 23.8202 11.4033 24.0455C10.3516 24.4236 9.34107 24.9305 8.26478 25.204C5.60279 25.8959 3.30231 25.1638 1.56052 23.1042C-0.197703 21.0526 -0.435967 18.7195 0.673193 16.2576C1.21545 15.0508 2.16029 14.1899 3.20372 13.4096C3.7049 13.0395 4.20607 12.6694 4.71547 12.2993C6.26007 11.1649 6.9913 9.62019 7.20491 7.76977C7.33637 6.62733 7.45961 5.4688 7.80468 4.37463C8.69201 1.53463 11.5347 -0.219257 14.6486 0.022103C17.5653 0.247373 20.0712 2.54834 20.5066 5.42857C20.8599 7.78586 20.104 9.76501 18.2883 11.3419C17.6803 11.8729 16.982 12.3154 16.3493 12.8303C15.7413 13.3211 15.1662 13.852 14.5829 14.3589C14.6157 14.4152 14.6486 14.4715 14.6815 14.5279C15.1827 14.3991 15.692 14.3026 16.1768 14.1256C17.097 13.7877 17.9925 13.3854 18.9127 13.0395C23.0289 11.4867 27.3423 13.9003 27.9339 18.1724C28.2543 20.4895 27.3998 22.4445 25.5923 23.9731C24.8447 24.6006 24.0395 25.1638 23.259 25.7431C21.7472 26.8694 21.016 28.39 20.827 30.2163C20.6956 31.4955 20.597 32.7827 20.104 33.9895C19.0277 36.6284 16.3904 38.1972 13.3998 37.98C10.7049 37.7869 8.24835 35.7515 7.63215 33.1126C7.00773 30.4415 7.83755 28.221 9.97371 26.4752C10.7378 25.8476 11.5594 25.2845 12.3317 24.665C12.7261 24.3432 13.0629 23.957 13.4244 23.603C13.3916 23.5547 13.3587 23.5065 13.3341 23.4582ZM2.4232 18.8723C2.43142 21.1089 4.01711 22.8065 6.21078 23.072C8.19083 23.3134 10.1462 21.9778 10.631 20.0067C10.8035 19.2907 10.9103 18.5586 10.9678 17.8264C11.1897 14.9221 12.4385 12.597 14.9033 10.9235C15.6099 10.4408 16.3 9.92592 16.9244 9.34665C17.935 8.41339 18.3212 7.23073 18.1322 5.87107C17.8693 3.98846 16.3165 2.56443 14.3035 2.37134C12.4796 2.19435 10.6063 3.3931 10.0723 5.16308C9.84225 5.94347 9.71901 6.7641 9.6615 7.56863C9.43967 10.5213 8.18262 12.8786 5.66852 14.5681C5.00303 15.0186 4.36218 15.5013 3.76241 16.0323C2.8833 16.8288 2.46428 17.8425 2.4232 18.8723ZM25.5923 18.9528C25.5759 18.7838 25.5512 18.5586 25.5184 18.3333C25.2308 16.4829 23.6287 15.0669 21.6569 14.9221C19.8083 14.7853 18.0172 15.9599 17.4749 17.7138C17.3024 18.2689 17.2449 18.8643 17.1298 19.4436C16.908 20.6262 16.7848 21.833 16.4397 22.9835C15.9139 24.7213 14.665 25.9603 13.2108 27.0303C12.4303 27.6096 11.6169 28.1728 10.9268 28.8566C9.72723 30.0393 9.51361 31.8575 10.2695 33.37C10.9925 34.8262 12.6521 35.7676 14.2542 35.6469C16.0289 35.5101 17.4913 34.432 17.9597 32.8149C18.1815 32.0587 18.3047 31.2702 18.3622 30.4898C18.5759 27.4889 19.8576 25.1075 22.4209 23.4019C23.0289 22.9996 23.6123 22.5491 24.171 22.0663C25.0829 21.2618 25.543 20.224 25.5923 18.9528ZM14.4514 21.0848C14.6733 19.6688 14.8869 18.2689 15.1087 16.869C14.5993 16.8932 14.0899 16.9093 13.5559 16.9334C13.3341 18.3413 13.1204 19.7412 12.8986 21.1572C13.3916 21.1331 13.901 21.1089 14.4514 21.0848Z" fill="#E33434"/>
		<path d="M4.00006 18.9808C4.00966 17.8676 5.11328 17 6.5048 17C7.90592 17 9.00953 17.9059 8.99994 19.0345C8.98074 20.1324 7.85793 21.0076 6.46641 20.9999C5.08449 20.9846 3.99047 20.094 4.00006 18.9808ZM6.4952 18.4894C6.14972 18.4894 5.84263 18.7197 5.86182 18.9961C5.89061 19.2879 6.08254 19.4645 6.45682 19.4875C6.81189 19.5105 7.09979 19.2879 7.10939 19.0038C7.12858 18.7197 6.85028 18.4971 6.4952 18.4894Z" fill="black"/>
		<path d="M15.9999 6.5143C15.9923 7.92496 15.094 9.01894 13.9578 8.99975C12.8599 8.98056 11.9924 7.85779 12.0001 6.45672C12.0077 5.07485 12.906 3.99047 14.0192 4.00006C15.1324 4.00966 16.0076 5.12283 15.9999 6.5143ZM14.5029 6.5239C14.5105 6.16883 14.2879 5.89054 14.0038 5.88094C13.7198 5.88094 13.4818 6.15924 13.4971 6.5143C13.5125 6.87896 13.6814 7.09968 13.9731 7.12847C14.2649 7.14766 14.4952 6.86937 14.5029 6.5239Z" fill="black"/>
		<path d="M22.9999 19.0269C22.9923 20.1324 22.1017 21.0076 20.9808 20.9999C19.8753 20.9923 18.9924 20.1017 19 18.9886C19 17.8677 19.906 16.9848 21.0422 17.0002C22.1401 17.0156 23.0076 17.9061 22.9999 19.0269ZM21.5105 19.0116C21.5182 18.7352 21.2879 18.4895 21.0038 18.5049C20.7121 18.5126 20.5278 18.6738 20.5048 18.9732C20.4818 19.2573 20.6967 19.4876 20.9808 19.5029C21.2649 19.5106 21.5029 19.288 21.5105 19.0116Z" fill="black"/>
		<path d="M15.9999 31.4856C16.0076 32.8771 15.1324 33.9903 14.0268 33.9999C12.8906 34.0095 12 32.9059 12 31.4952C12 30.1132 12.8906 29 13.9961 29C15.117 29.0096 15.9999 30.1036 15.9999 31.4856ZM14.0115 30.881C13.7274 30.881 13.4971 31.1593 13.5048 31.5048C13.5201 31.8694 13.6814 32.0902 13.9808 32.1286C14.2572 32.1574 14.4952 31.8694 14.5105 31.524C14.5182 31.1785 14.2956 30.8906 14.0115 30.881Z" fill="black"/>
	</symbol>
	<symbol id="icon-motorcycle" xmlns="http://www.w3.org/2000/svg" width="40" height="40" viewBox="0 0 40 40" fill="none">
		<path d="M21 8H26.3333L33 25" stroke="#E33434" stroke-width="3" stroke-miterlimit="10" stroke-linecap="round" stroke-linejoin="round"/>
		<path d="M33 31C35.7614 31 38 28.7614 38 26C38 23.2386 35.7614 21 33 21C30.2386 21 28 23.2386 28 26C28 28.7614 30.2386 31 33 31Z" stroke="black" stroke-width="3" stroke-miterlimit="10" stroke-linecap="round" stroke-linejoin="round"/>
		<path d="M7 31C9.76142 31 12 28.7614 12 26C12 23.2386 9.76142 21 7 21C4.23858 21 2 23.2386 2 26C2 28.7614 4.23858 31 7 31Z" stroke="black" stroke-width="3" stroke-miterlimit="10" stroke-linecap="round" stroke-linejoin="round"/>
		<path d="M7 17C12.2295 17 16.5082 21.5 16.5082 27H23.6393C23.6393 21.5 27.918 17 33.1475 17C34.0984 17 35.168 17.125 36 17.5" stroke="#E33434" stroke-width="3" stroke-miterlimit="10" stroke-linecap="round" stroke-linejoin="round"/>
		<path d="M28 14H21.1429L20.6857 14.58C18.8571 17.0934 15.4286 18.4468 12 17.8668" stroke="#E33434" stroke-width="3" stroke-miterlimit="10" stroke-linecap="round" stroke-linejoin="round"/>
	</symbol>
	<symbol id="icon-store" xmlns="http://www.w3.org/2000/svg" width="32" height="32" viewBox="0 0 32 32" fill="none">
		<path d="M7 22V28H25V22M7 22V16M7 22H25M25 22V16M7 16V10H25V16M7 16H25" stroke="#E33434" stroke-width="2" stroke-linecap="round" stroke-linejoin="round"/>
		<path d="M2 28H6.5H24.5H29V7L15.5 4L2 7V28Z" stroke="black" stroke-width="2" stroke-linecap="round" stroke-linejoin="round"/>
	</symbol>
	<symbol id="icon-box" xmlns="http://www.w3.org/2000/svg" width="32" height="32" viewBox="0 0 32 32" fill="none">
		<path d="M30 9H2V28H30V9Z" stroke="#E33434" stroke-width="2" stroke-linecap="round" stroke-linejoin="round"/>
		<path d="M2 9L6.66667 4H25.3333L30 9" stroke="#E33434" stroke-width="2" stroke-linecap="round" stroke-linejoin="round"/>
		<path d="M15 4L14 8.8V16H18V8.8L17 4H15Z" stroke="black" stroke-width="2" stroke-linecap="round" stroke-linejoin="round"/>
		<path d="M6 23H11" stroke="black" stroke-width="2" stroke-linecap="round" stroke-linejoin="round"/>
	</symbol>
	<symbol id="icon-delivery" xmlns="http://www.w3.org/2000/svg" width="32" height="32" viewBox="0 0 32 32" fill="none">
		<path d="M3 10V6H20V22" stroke="black" stroke-width="2" stroke-linecap="round" stroke-linejoin="round"/>
		<path d="M7 22H3V18" stroke="black" stroke-width="2" stroke-linecap="round" stroke-linejoin="round"/>
		<path d="M20 8H26V14L30 16V22H26" stroke="black" stroke-width="2" stroke-linecap="round" stroke-linejoin="round"/>
		<path d="M10 25C11.6569 25 13 23.6569 13 22C13 20.3431 11.6569 19 10 19C8.34315 19 7 20.3431 7 22C7 23.6569 8.34315 25 10 25Z" stroke="black" stroke-width="2" stroke-linecap="round" stroke-linejoin="round"/>
		<path d="M23 25C24.6569 25 26 23.6569 26 22C26 20.3431 24.6569 19 23 19C21.3431 19 20 20.3431 20 22C20 23.6569 21.3431 25 23 25Z" stroke="black" stroke-width="2" stroke-linecap="round" stroke-linejoin="round"/>
		<path d="M13 22H20" stroke="black" stroke-width="2" stroke-linecap="round" stroke-linejoin="round"/>
		<path d="M1 10H13" stroke="#E33434" stroke-width="2" stroke-linecap="round" stroke-linejoin="round"/>
		<path d="M1 14H9" stroke="#E33434" stroke-width="2" stroke-linecap="round" stroke-linejoin="round"/>
		<path d="M1 18H5" stroke="#E33434" stroke-width="2" stroke-linecap="round" stroke-linejoin="round"/>
	</symbol>
	<symbol id="icon-logo" xmlns="http://www.w3.org/2000/svg" viewBox="0 0 142 84" fill="none">
		<g clip-path="url(#clip0_1003_26902)">
			<path d="M78.8889 81.8545C74.0172 81.8545 69.8098 80.459 66.3774 77.7753C65.8238 77.3459 65.3256 76.8628 64.8273 76.3797C64.3291 76.8091 63.7755 77.1848 63.2219 77.5606C59.0145 80.4053 54.3088 81.8545 49.2156 81.8545H2.76807L9.13454 53.8366H10.9614C10.5186 52.4411 10.2971 50.9382 10.2971 49.3817C10.2971 48.2545 10.4632 47.1273 10.74 46.0002L13.1759 34.997H13.0651L17.5494 14.8155C18.3798 11.1657 19.5977 7.03278 23.4176 4.5101C26.5731 2.36313 29.9501 2.36313 33.8254 2.25579L39.3614 2.14844L41.0223 4.88582L43.7903 2.25579H64.9934H80.2729H129.987H139.287L136.685 14.3325L133.198 29.5222L130.596 42.7797L125.558 65.8596C124.561 70.5829 121.738 74.5011 117.143 77.6142C112.936 80.459 108.23 81.9082 103.137 81.9082H78.8889V81.8545Z" fill="black"/>
			<path d="M38.0881 4.3476L39.7489 7.03131L40.524 8.31949L43.0706 5.90415L44.676 4.3476H46.9458H55.416H62.2807H62.7236H76.8959H79.3871H82.8195H107.4H108.673H110.555H111.219H123.731H129.821H136.63L135.246 10.7885L134.637 13.7406V13.7943V13.8479L131.924 25.6562L131.371 28.0716H131.315L130.54 32.0435L128.437 42.1879V42.2415V42.2952L123.399 65.3751C122.513 69.508 119.966 73.0505 115.925 75.7879C112.105 78.3642 107.787 79.7061 103.192 79.7061H78.9443C74.5708 79.7061 70.8616 78.4716 67.8721 76.1099C66.7649 75.2511 65.8791 74.285 65.1595 73.2115C64.2183 74.124 63.2218 74.9827 62.0039 75.7879C58.184 78.3642 53.8659 79.7061 49.271 79.7061H12.4008H5.4807L6.97544 73.2115L9.90955 60.2224L10.8507 55.9821H14.283C13.0651 53.9962 12.4561 51.7955 12.4561 49.3802C12.4561 48.4141 12.5669 47.4479 12.8437 46.4818L15.8331 32.8486H15.7224L17.1618 26.354L19.5977 15.2971C20.3727 11.862 21.4246 8.37316 24.5801 6.27987C27.2374 4.50863 30.1162 4.50863 33.77 4.40128C34.1021 4.40128 34.4897 4.40128 34.8772 4.40128L38.0881 4.3476ZM40.6347 0L38.0327 0.0536741L34.8218 0.107348C34.4343 0.107348 34.1021 0.107348 33.7146 0.107348C29.6733 0.161022 25.8534 0.214697 22.0889 2.73738C17.6047 5.68946 16.276 10.3054 15.3349 14.331V14.3847L12.899 25.4415L11.4597 31.9361L10.2971 37.1425H10.4632L8.63626 45.5157C8.30409 46.8038 8.13801 48.092 8.13801 49.3802C8.13801 50.1853 8.19337 50.9367 8.30409 51.6882H7.41832L6.64328 55.0697L5.70214 59.3099L2.76803 72.299L1.27329 78.7936L0 84H5.4807H12.3454H49.1602C54.6963 84 59.8448 82.4435 64.4398 79.3304C64.4951 79.2767 64.5505 79.223 64.6612 79.1693C64.7719 79.2767 64.8827 79.3304 64.938 79.4377C68.7579 82.4971 73.4082 84.0537 78.8335 84.0537H103.081C108.618 84.0537 113.766 82.4971 118.361 79.3304C123.399 75.8952 126.499 71.5476 127.662 66.2875L132.699 43.2077V43.154V43.1003V43.0466V42.993L134.692 32.9022L135.301 29.8965L135.523 28.984L136.076 26.5687L138.789 14.7604V14.7067V14.653V14.5994V14.5457L139.398 11.5936L140.782 5.15272L141.889 0H136.575H123.51H110.998H110.334H108.451H106.957H82.5981H81.048H79.1657H76.6745H67.54H62.1146H55.2499H46.9458H44.676H42.8491L41.5758 1.2345L41.4651 1.34185L40.6347 0Z" fill="#E33434"/>
			<path d="M78.8335 34.0839C75.9548 36.0698 74.1832 38.4315 73.5743 41.2225L68.5364 64.3024C68.4257 64.8928 68.3704 65.4296 68.3704 66.02C68.3704 68.4353 69.3668 70.4213 71.3598 71.9778C73.3528 73.588 75.844 74.3395 78.8889 74.3395H103.137C106.625 74.3395 109.78 73.3733 112.714 71.3874C115.648 69.4014 117.365 67.0398 117.973 64.2487L123.011 41.1689L125.004 31.0781H88.4109C84.9232 31.1318 81.7676 32.0979 78.8335 34.0839ZM104.299 44.0673H117.918L105.96 45.3018L102.528 61.404H87.6359L83.7053 68.1133L85.809 59.257L89.1306 44.0673H104.299Z" fill="#E33434"/>
			<path d="M62.7237 50.0788C60.7307 48.4685 58.1841 47.7171 55.0839 47.7171H34.379L34.8773 45.5165L25.0785 44.0673H68.4258L71.3599 31.0781H21.9229L18.2691 47.7171C18.103 48.3075 18.0477 48.8443 18.0477 49.4347C18.0477 51.85 19.0442 53.836 21.0371 55.4462C23.0301 57.0564 25.5767 57.8078 28.6769 57.8078H49.4925L48.9943 59.5791L46.8905 68.0059L46.503 61.404H15.335L12.4009 74.3931H49.2157C52.7034 74.3931 55.859 73.427 58.7931 71.4411C61.7272 69.4551 63.4434 67.0935 64.0523 64.3024L65.4917 57.8078C65.6578 57.2174 65.7132 56.627 65.7132 56.0366C65.7132 53.6213 64.7167 51.689 62.7237 50.0788Z" fill="#E33434"/>
			<path d="M110.5 9.76953L104.355 14.2782L102.03 24.5299L106.458 27.482H120.631L126.388 24.5299L129.101 12.7216L129.71 9.76953H110.5ZM120.243 14.4392L118.361 22.8123L117.475 23.2954H104.41L110.887 22.8123L112.769 14.4392L113.711 13.9561H126.831L120.243 14.4392Z" fill="white"/>
			<path d="M32.8289 19.3772H33.0504L35.597 23.7248H40.1365L44.6761 19.3772H50.1014L44.7315 19.8603L43.0707 27.482H51.4855L55.4161 9.76953H46.9459L39.4722 16.9082H39.3061L34.988 9.76953C27.9018 9.87688 26.6285 9.50116 25.0784 16.4788L22.6426 27.5357H31.1128L32.8289 19.3772Z" fill="white"/>
			<path d="M58.6823 27.482H72.8547L78.6122 24.5299L80.9927 14.1708L76.896 9.76953H62.7237L56.9662 12.7216L53.6445 27.482H58.6823ZM63.0558 22.8123L64.9381 14.4392L65.8792 13.9561H78.1139L72.4671 14.4392L70.5849 22.8123L69.6991 23.2954H57.5198L63.0558 22.8123Z" fill="white"/>
			<path d="M88.1895 14.8686L85.3661 27.482H93.781L96.7704 14.2245H101.365L107.344 9.76953H82.7642L81.8784 14.2245H94.8882L88.1895 14.8686Z" fill="white"/>
		</g>
		<defs>
			<clipPath id="clip0_1003_26902">
				<rect width="142" height="84" fill="white"/>
			</clipPath>
		</defs>
	</symbol>
	<symbol id="icon-logo-footer" xmlns="http://www.w3.org/2000/svg" viewBox="0 0 220 49" fill="none">
		<g clip-path="url(#clip0_2194_2264)">
		  <path fill-rule="evenodd" clip-rule="evenodd" d="M219.961 0.271648L216.005 17.9983L212.475 34.6413C211.583 38.8214 208.985 42.4209 205.067 45.169C201.15 47.917 196.418 49.0007 191.259 49.0007H174.27C170.585 49.0007 167.133 48.6524 164.108 47.0268C160.889 48.6137 157.281 49.0007 153.441 49.0007H0.0388184L7.05927 15.6761C7.83501 11.9604 8.95983 8.05127 12.0628 5.14843C17.1051 0.426466 24.591 0.271648 31.9605 0.271648L219.922 0.078125V0.271648H219.961Z" fill="#E33434"/>
		  <path d="M219.961 0.271648L216.005 17.9983L212.475 34.6413C211.583 38.8214 208.985 42.4209 205.067 45.169C201.15 47.917 196.418 49.0007 191.259 49.0007H174.27C170.585 49.0007 167.133 48.6524 164.108 47.0268C160.889 48.6137 157.281 49.0007 153.441 49.0007H0.0388184L7.05927 15.6761C7.83501 11.9604 8.95983 8.05127 12.0628 5.14843C17.1051 0.426466 24.591 0.271648 31.9605 0.271648L219.922 0.078125V0.271648H219.961Z" stroke="black" stroke-width="0.216" stroke-miterlimit="22.926"/>
		  <path fill-rule="evenodd" clip-rule="evenodd" d="M32.4259 3.63864L34.4428 7.00593L37.9336 3.63864H215.229L212.126 17.4175L208.597 34.0604C207.86 37.5051 205.726 40.408 202.507 42.6529C199.288 44.8977 195.448 45.7105 191.259 45.7105H174.27C170.508 45.7105 167.017 45.0912 164.263 42.9625C161.16 45.0138 157.475 45.7105 153.48 45.7105H4.73193L10.9379 16.1789C12.8772 7.27687 15.8638 3.05807 32.4259 3.63864Z" fill="#010005"/>
		  <path d="M168.918 9.13477L166.862 18.5013H136.492L143.357 19.5463L143.008 21.1332H157.514C159.686 21.1332 161.47 21.7138 162.867 22.8362C164.263 23.9973 164.961 25.3907 164.961 27.0937C164.961 27.5581 164.922 27.9839 164.806 28.3709L163.798 33.0542C163.371 35.0668 162.169 36.7698 160.113 38.2019C158.096 39.634 155.846 40.3307 153.403 40.3307H127.609L129.665 30.9642H151.502L151.774 35.7635L153.248 29.6869L153.597 28.4096H139.013C136.841 28.4096 135.056 27.8291 133.66 26.7066C132.264 25.5455 131.566 24.1134 131.566 22.3717C131.566 21.946 131.604 21.5589 131.721 21.1332L134.281 9.17347H168.918V9.13477ZM205.145 16.4112L201.615 33.0542C201.188 35.0668 199.986 36.7698 197.93 38.2019C195.913 39.634 193.664 40.3307 191.22 40.3307H174.231C172.098 40.3307 170.314 39.7501 168.956 38.6277C167.56 37.4665 166.862 36.0345 166.862 34.3314C166.862 33.9057 166.901 33.4799 166.978 33.0929L170.508 16.4499C170.934 14.4373 172.137 12.7343 174.193 11.3022C176.21 9.87015 178.459 9.17347 180.903 9.17347H206.541L205.145 16.4112ZM201.576 18.5013H192.035H181.368L179.041 29.4547L177.567 35.8409L180.36 30.9642H190.793L193.198 19.3528L201.576 18.5013Z" fill="#E33434"/>
		  <path d="M33.6672 24.8485L38.5932 20.0104H44.5276L38.7095 20.5523L36.8477 28.9512H46.0403L50.3068 9.36664H41.1143L32.969 17.2237H32.7363L28.0819 9.40534C20.402 9.56016 19.0057 9.13441 17.2603 16.7979L14.584 28.9899H23.7765L25.7159 20.0491H25.9874L28.78 24.8872H33.6672V24.8485ZM61.7102 13.8177H75.0142L68.847 14.3595L66.7913 23.726L65.8216 24.2679H52.5565L58.646 23.726L60.7018 14.3595L61.7102 13.8177ZM58.2582 9.0957L51.9747 12.4243L48.3287 28.9512H53.8752H69.2737L75.5572 25.6613L78.1171 14.0886L73.6566 9.13441H58.2582V9.0957ZM92.1192 28.9512L95.3773 14.0499H100.381L106.858 9.0957H80.0953L79.1256 14.0886H93.2829L86.0297 14.7853L82.9267 28.9512H92.1192ZM113.724 13.8177H128.036L120.86 14.3595L118.805 23.726L117.835 24.2679H103.6L110.659 23.726L112.715 14.3595L113.724 13.8177ZM110.272 9.0957L103.6 14.166L101.079 25.6226L105.927 28.9124H121.326L127.609 25.6226L130.518 12.3856L131.217 9.0957H110.272Z" fill="#E33434"/>
		  <path d="M19.8589 33.1309H13.7693L11.9851 40.2912H17.8419C21.0613 40.2912 23.2333 40.1364 23.6988 38.2786C23.8151 37.8141 23.7764 37.4658 23.5824 37.2335C23.3109 36.8852 22.8067 36.653 21.837 36.5369C23.1558 36.3046 23.9703 35.9176 24.203 34.9887C24.2806 34.6403 24.2418 34.292 24.0479 34.0598C23.5824 33.4018 22.2637 33.1309 19.8589 33.1309ZM17.2214 37.4271H18.1522C18.5401 37.4271 19.0056 37.4658 19.1219 37.5819C19.1607 37.6206 19.1607 37.6593 19.1219 37.8141L19.0443 38.3173C18.9668 38.6656 18.734 38.7817 17.7256 38.7817H16.8723L17.2214 37.4271ZM17.9195 34.679H18.8116C19.1995 34.679 19.6262 34.679 19.7425 34.8339C19.7813 34.8726 19.7813 34.9113 19.7425 35.0274L19.6262 35.4531C19.5486 35.7628 19.3546 35.9176 18.4238 35.9176H17.5704L17.9195 34.679Z" fill="white"/>
		  <path d="M26.5303 40.2912H31.1847L32.9689 33.1309H28.3145L26.5303 40.2912Z" fill="white"/>
		  <path d="M43.9069 33.1309L40.6488 36.1498L41.4245 33.1309H36.8477L35.0635 40.2912H39.6016L40.3773 37.2335L42.2779 40.2912H47.2426L44.5663 36.5756L48.6777 33.1309H43.9069Z" fill="white"/>
		  <path d="M49.5698 40.2912H58.3357L58.7236 38.743H54.5733L54.8836 37.4271H58.7623L59.1502 35.8789H55.2715L55.5818 34.679H59.7708L60.1587 33.1309H51.354L49.5698 40.2912Z" fill="white"/>
		  <path d="M75.4021 33.0156C71.7173 33.0156 69.9331 33.6349 69.584 35.0283C69.3901 35.8024 69.5064 36.2281 71.2519 36.8087L73.773 37.6989C74.7815 38.0472 74.9366 38.1246 74.8591 38.3569C74.7815 38.6278 74.6263 38.86 73.773 38.86C73.23 38.86 73.0361 38.7439 72.9585 38.6665C72.9197 38.5891 72.9197 38.5117 72.9197 38.4343L73.0748 37.8537H68.5368L68.4204 38.3956C68.304 38.8213 68.3816 39.1697 68.6143 39.4406C69.2349 40.2534 71.0579 40.4082 73.5791 40.4082C77.3026 40.4082 79.1256 39.7889 79.4747 38.3956C79.785 37.2344 78.8541 36.8087 77.419 36.3055L75.4021 35.6088L75.1306 35.5314C74.51 35.3379 73.967 35.1444 74.0057 34.9509C74.0057 34.9121 74.1221 34.5638 75.0142 34.5638C75.5184 34.5638 75.7124 34.6799 75.7899 34.7573C75.8287 34.796 75.8287 34.8734 75.8287 34.9509L75.6736 35.5314H79.9789L80.1341 34.9121C80.2117 34.6025 80.1729 34.2929 79.9789 34.0606C79.3196 33.1704 77.1087 33.0156 75.4021 33.0156Z" fill="white"/>
		  <path d="M90.1022 35.8789H88.2017L88.8998 33.1309H84.2454L82.4612 40.2912H87.1156L87.8138 37.5045H89.6756L88.9774 40.2912H93.5931L95.3773 33.1309H90.7616L90.1022 35.8789Z" fill="white"/>
		  <path d="M104.764 33.0156C100.885 33.0156 98.9457 33.6736 98.5967 35.067L97.7433 38.3182C97.6658 38.7052 97.7046 39.0148 97.9373 39.2858C98.5191 40.0212 100.226 40.3695 103.135 40.3695C106.82 40.3695 108.836 39.6728 109.186 38.3182L110.039 34.9509C110.116 34.6025 110.078 34.3316 109.845 34.0606C109.263 33.4027 107.556 33.0156 104.764 33.0156ZM103.329 38.86C102.669 38.86 102.475 38.7439 102.398 38.6665C102.359 38.5891 102.359 38.5504 102.398 38.4343L103.251 34.9896C103.29 34.8347 103.367 34.5251 104.453 34.5251C105.113 34.5251 105.307 34.6025 105.384 34.7186C105.423 34.7573 105.423 34.8347 105.384 34.9121L104.531 38.3956C104.453 38.5891 104.376 38.86 103.329 38.86Z" fill="white"/>
		  <path d="M124.662 33.9437C124.235 33.3631 123.149 33.1309 121.093 33.1309H114.228L112.444 40.2912H117.059L117.68 37.7754H119.58C122.489 37.7754 124.274 37.4658 124.7 35.8015L124.855 35.1822C124.972 34.6403 124.894 34.2146 124.662 33.9437ZM118.456 34.6403H119.503C120.007 34.6403 120.279 34.679 120.395 34.7952C120.434 34.8339 120.434 34.8726 120.434 35.0274L120.24 35.7628C120.162 36.0724 120.085 36.2659 119.076 36.2659H118.068L118.456 34.6403Z" fill="white"/>
		</g>
		<defs>
		  <clipPath id="clip0_2194_2264">
			 <rect width="220" height="49" fill="white"/>
		  </clipPath>
		</defs>
	 </symbol>
	<symbol id="icon-story" xmlns="http://www.w3.org/2000/svg" viewBox="0 0 17 16" fill="none">
		<path d="M1 7L2 9L3 7" stroke-width="1.5" stroke-linecap="round"/>
		<path d="M9 4V8.375L11 11" stroke-width="1.5" stroke-linecap="round"/>
		<path d="M9 15C12.866 15 16 11.866 16 8C16 4.13401 12.866 1 9 1C5.13401 1 2 4.13401 2 8C2 7.97119 2 8.77778 2 8.77778" stroke-width="1.5" stroke-linecap="round"/>
	</symbol>
	<symbol id="icon-quote" xmlns="http://www.w3.org/2000/svg" viewBox="0 0 48 48" fill="none">
		<path d="M44 23.9999V14.4799C44 12.9118 44.0003 12.1278 43.6889 11.5289C43.415 11.002 42.9773 10.5736 42.4397 10.3052C41.8285 10 41.029 10 39.4289 10H34.286C32.6858 10 31.8852 10 31.274 10.3052C30.7364 10.5736 30.2996 11.002 30.0257 11.5289C29.7143 12.1278 29.7143 12.9118 29.7143 14.4799V19.5199C29.7143 21.0881 29.7143 21.8723 30.0257 22.4712C30.2996 22.9981 30.7364 23.4263 31.274 23.6948C31.8852 24 32.6858 24 34.286 24L44 23.9999ZM44 23.9999V29.6C44 34.2392 40.1624 38 35.4286 38M18.2857 23.9999V14.4799C18.2857 12.9118 18.286 12.1278 17.9746 11.5289C17.7007 11.002 17.263 10.5736 16.7254 10.3052C16.1142 10 15.3147 10 13.7146 10H8.57171C6.97156 10 6.17089 10 5.55971 10.3052C5.0221 10.5736 4.58533 11.002 4.31141 11.5289C4 12.1278 4 12.9118 4 14.4799V19.5199C4 21.0881 4 21.8723 4.31141 22.4712C4.58533 22.9981 5.0221 23.4263 5.55971 23.6948C6.17089 24 6.97156 24 8.57171 24L18.2857 23.9999ZM18.2857 23.9999L18.2857 29.6C18.2857 34.2392 14.4482 38 9.71429 38" stroke="#E33434" stroke-width="2" stroke-linecap="round" stroke-linejoin="round"/>
	</symbol>
	<symbol id="icon-play" xmlns="http://www.w3.org/2000/svg" viewBox="0 0 24 24" fill="none">
		<path d="M6 3L20 12L6 21V3Z" stroke-width="2" stroke-linecap="round" stroke-linejoin="round"/>
	</symbol>
	<symbol id="icon-call" xmlns="http://www.w3.org/2000/svg" width="24" height="24" viewBox="0 0 24 24">
		<path d="M18.6766 12.936C18.4785 12.936 18.2713 12.8728 18.0732 12.8277C17.6723 12.7377 17.2781 12.62 16.8935 12.4754C16.4757 12.3229 16.0165 12.3308 15.6042 12.4976C15.1919 12.6644 14.8556 12.9782 14.6601 13.3787L14.462 13.7942C13.5874 13.2966 12.7794 12.6896 12.0575 11.9876C11.3577 11.2635 10.7524 10.4531 10.2564 9.57586L10.6707 9.38617C11.0699 9.19008 11.3828 8.85281 11.5491 8.43926C11.7153 8.0257 11.7232 7.56508 11.5712 7.14604C11.4282 6.75676 11.3109 6.35846 11.22 5.95372C11.175 5.755 11.139 5.54724 11.1119 5.34852C11.0026 4.71227 10.6703 4.13609 10.175 3.72374C9.67971 3.31139 9.0539 3.08997 8.41028 3.09936H5.69961C5.3189 3.09886 4.94238 3.17907 4.59474 3.33474C4.2471 3.49041 3.93618 3.71801 3.68238 4.00264C3.42331 4.29499 3.2304 4.64013 3.11692 5.01434C3.00344 5.38856 2.97207 5.78298 3.02497 6.1705C3.5145 9.93007 5.22701 13.4226 7.89696 16.1066C10.5728 18.7846 14.0548 20.5023 17.803 20.9933C17.9199 21.0022 18.0374 21.0022 18.1543 20.9933C18.8183 20.9943 19.4595 20.7499 19.9554 20.3068C20.2391 20.0522 20.466 19.7404 20.6212 19.3917C20.7764 19.043 20.8564 18.6653 20.8559 18.2835V15.5736C20.8511 14.9495 20.6315 14.3462 20.2345 13.8656C19.8374 13.385 19.2871 13.0567 18.6766 12.936ZM19.1178 18.3557C19.1175 18.4818 19.091 18.6063 19.0398 18.7215C18.9886 18.8366 18.914 18.9397 18.8207 19.0241C18.722 19.1143 18.6045 19.1814 18.4768 19.2204C18.3491 19.2595 18.2143 19.2696 18.0822 19.25C14.7216 18.8097 11.5985 17.2736 9.19376 14.8781C6.78701 12.4641 5.24216 9.32056 4.79906 5.93565C4.7795 5.80317 4.78955 5.66799 4.82849 5.53988C4.86742 5.41178 4.93428 5.29396 5.0242 5.19496C5.10941 5.10026 5.21366 5.02473 5.33007 4.97335C5.44649 4.92197 5.57243 4.89591 5.69961 4.89688H8.40127C8.60945 4.89178 8.81295 4.95919 8.97714 5.08765C9.14134 5.21611 9.25607 5.39768 9.30182 5.60144C9.30182 5.84532 9.38287 6.09824 9.43691 6.34213C9.54099 6.81532 9.67944 7.28024 9.85116 7.73317L8.59039 8.32934C8.37368 8.42911 8.20528 8.61102 8.1221 8.83517C8.03203 9.05508 8.03203 9.30175 8.1221 9.52166C9.41818 12.3062 11.6498 14.5446 14.426 15.8446C14.6452 15.9349 14.8911 15.9349 15.1104 15.8446C15.3339 15.7612 15.5152 15.5923 15.6147 15.3749L16.182 14.1103C16.6466 14.2802 17.122 14.419 17.6049 14.5258C17.8391 14.58 18.0912 14.6252 18.3344 14.6613C18.5375 14.7072 18.7185 14.8223 18.8466 14.987C18.9747 15.1517 19.0419 15.3558 19.0368 15.5646L19.1178 18.3557ZM13.8046 3C13.5975 3 13.3813 3 13.1742 3C12.9354 3.02036 12.7144 3.13506 12.5598 3.31885C12.4053 3.50265 12.3299 3.74049 12.3502 3.98006C12.3705 4.21962 12.4848 4.44128 12.6681 4.59628C12.8513 4.75128 13.0885 4.82692 13.3273 4.80655H13.8046C15.2376 4.80655 16.612 5.37755 17.6253 6.39394C18.6386 7.41032 19.2079 8.78883 19.2079 10.2262C19.2079 10.3888 19.2079 10.5424 19.2079 10.705C19.1879 10.9432 19.263 11.1798 19.4166 11.3626C19.5702 11.5455 19.7899 11.6598 20.0274 11.6805H20.0994C20.3249 11.6814 20.5425 11.5975 20.7092 11.4453C20.8759 11.2931 20.9797 11.0837 21 10.8585C21 10.6508 21 10.434 21 10.2262C21 8.31127 20.2422 6.47462 18.8931 5.1197C17.5439 3.76478 15.7138 3.00239 13.8046 3ZM15.6057 10.2262C15.6057 10.4658 15.7006 10.6955 15.8695 10.8649C16.0383 11.0343 16.2674 11.1295 16.5062 11.1295C16.7451 11.1295 16.9741 11.0343 17.143 10.8649C17.3119 10.6955 17.4068 10.4658 17.4068 10.2262C17.4068 9.26796 17.0273 8.34895 16.3517 7.67136C15.6762 6.99377 14.76 6.61311 13.8046 6.61311C13.5657 6.61311 13.3367 6.70828 13.1678 6.87767C12.9989 7.04707 12.904 7.27682 12.904 7.51639C12.904 7.75595 12.9989 7.9857 13.1678 8.1551C13.3367 8.3245 13.5657 8.41966 13.8046 8.41966C14.2823 8.41966 14.7404 8.61 15.0782 8.94879C15.4159 9.28759 15.6057 9.74709 15.6057 10.2262Z"/>
	</symbol>
	<symbol id="icon-ok" xmlns="http://www.w3.org/2000/svg" width="16" height="17" viewBox="0 0 16 17">
		<path d="M13.8969 5.19136C13.7978 4.7963 13.4013 4.59877 13.0049 4.5C12.7076 4.5 12.4103 4.59877 12.1129 4.89506C11.5183 5.48765 10.9237 6.08025 10.2299 6.67284C9.13973 7.75926 8.04955 8.84568 6.86027 9.9321C6.76116 10.0309 6.66205 10.0309 6.56295 9.9321C5.8692 9.24074 5.17545 8.54938 4.5808 7.95679C4.38259 7.66049 4.08527 7.46296 3.88705 7.16667C3.58973 6.96914 3.39152 6.87037 2.99509 6.87037C2.69777 6.87037 2.30134 7.0679 2.10312 7.46296C1.90491 7.85802 2.00402 8.35185 2.30134 8.64815L3.39152 9.73457C4.18437 10.5247 4.97723 11.3148 5.77009 12.1049C6.16652 12.4012 6.46384 12.5 6.76116 12.5C7.05848 12.5 7.3558 12.4012 7.65312 12.1049L10.329 9.43827C11.1219 8.74691 11.8156 7.95679 12.6085 7.26543L13.6987 6.27778C13.996 5.98148 14.0951 5.58642 13.8969 5.19136Z"/>
	</symbol>
	<symbol id="icon-bonus" viewBox="0 0 16 16" fill="none" xmlns="http://www.w3.org/2000/svg">
		<path d="M4 12L5.40082 5H11L10.7528 6.22021H6.93761L6.66157 7.5874H8.04179C8.70924 7.5874 9.26682 7.67741 9.71454 7.85742C10.165 8.03516 10.4891 8.28695 10.6869 8.61279C10.8874 8.93864 10.9437 9.32259 10.8558 9.76465C10.7652 10.2044 10.5537 10.5929 10.2213 10.9302C9.8917 11.2651 9.46459 11.5272 8.93996 11.7163C8.41809 11.9054 7.82343 12 7.15597 12H4ZM6.02295 10.8105H7.39494C7.71356 10.8105 7.99235 10.7627 8.23131 10.667C8.47028 10.569 8.66255 10.4403 8.80812 10.2808C8.95645 10.119 9.04983 9.94238 9.08829 9.75098C9.14322 9.47298 9.06219 9.23828 8.8452 9.04688C8.63096 8.85319 8.28487 8.75635 7.80695 8.75635H6.43496L6.02295 10.8105Z" fill="#E33434"/>
		<path d="M6 0.5H15.5V10C15.5 13.0376 13.0376 15.5 10 15.5H0.5V6C0.5 2.96243 2.96243 0.5 6 0.5Z" stroke="#E33434"/>
	</symbol>
	<symbol id="icon-return" xmlns="http://www.w3.org/2000/svg" viewBox="0 0 16 16" fill="none">
		<path d="M15 8L13 10L11 8M7.5 14C4.46243 14 2 11.3137 2 8C2 4.68629 4.46243 2 7.5 2C10.5376 2 13 4.68629 13 8V9.5" stroke-opacity="0.75" stroke-width="2" stroke-linecap="round"/>
	</symbol>
	<symbol id="icon-dots-three" xmlns="http://www.w3.org/2000/svg" viewBox="0 0 24 24">
		<rect x="3" y="5" width="5" height="6" rx="2"/>
		<rect x="10" y="5" width="5" height="6" rx="2"/>
		<rect x="17" y="5" width="5" height="6" rx="2"/>
		<rect x="3" y="13" width="5" height="6" rx="2"/>
		<rect x="10" y="13" width="5" height="6" rx="2"/>
		<rect x="17" y="13" width="5" height="6" rx="2"/>
	</symbol>
	<symbol id="icon-dots-four" xmlns="http://www.w3.org/2000/svg" viewBox="0 0 24 24">
		<rect x="1" y="13" width="4" height="4" rx="2"/>
		<rect x="1" y="13" width="4" height="5" rx="2"/>
		<rect x="7" y="13" width="4" height="5" rx="2"/>
		<rect x="13" y="13" width="4" height="5" rx="2"/>
		<rect x="19" y="13" width="4" height="5" rx="2"/>
		<rect x="1" y="6" width="4" height="4" rx="2"/>
		<rect x="1" y="6" width="4" height="5" rx="2"/>
		<rect x="7" y="6" width="4" height="5" rx="2"/>
		<rect x="13" y="6" width="4" height="5" rx="2"/>
		<rect x="19" y="6" width="4" height="5" rx="2"/>
	</symbol>
	<symbol id="icon-filters" xmlns="http://www.w3.org/2000/svg" viewBox="0 0 16 16">
		<rect y="1" width="16" height="2"/>
		<rect x="3" y="7" width="10" height="2"/>
		<rect x="5" y="13" width="6" height="2"/>
	</symbol>
	<symbol id="icon-key" xmlns="http://www.w3.org/2000/svg"  viewBox="0 0 16 16">
		<path d="M15.7333 10.8603L12.1249 7.25299C12.2004 6.88456 12.2379 6.50932 12.2366 6.1332C12.2364 5.10191 11.9766 4.08734 11.4814 3.18326C10.9862 2.27918 10.2715 1.51476 9.40333 0.960679C8.5352 0.406594 7.54167 0.080718 6.51457 0.0131736C5.48747 -0.0543708 4.45994 0.138596 3.52698 0.574237C3.40878 0.628337 3.30554 0.710531 3.22624 0.813679C3.14694 0.916827 3.09397 1.03781 3.07193 1.16613C3.04998 1.29281 3.05884 1.42293 3.09775 1.54546C3.13666 1.66799 3.20448 1.77931 3.29546 1.87L6.76816 5.34135L5.33118 6.78108L1.86647 3.30173C1.7752 3.21199 1.66374 3.14553 1.54149 3.10795C1.41923 3.07036 1.28975 3.06276 1.16395 3.08577C1.03668 3.10704 0.916459 3.1589 0.813573 3.23691C0.710687 3.31492 0.628206 3.41675 0.573194 3.53369C0.136932 4.47151 -0.055498 5.50466 0.0138044 6.53702C0.0831069 7.56937 0.41189 8.5674 0.969569 9.43825C1.52725 10.3091 2.2957 11.0245 3.20345 11.5178C4.1112 12.0112 5.12875 12.2665 6.16143 12.2601C6.53683 12.2613 6.91136 12.2237 7.27908 12.1481L10.8795 15.7634C10.9537 15.8384 11.042 15.8979 11.1393 15.9385C11.2366 15.9791 11.3409 16 11.4463 16C11.5517 16 11.656 15.9791 11.7533 15.9385C11.8506 15.8979 11.9389 15.8384 12.0131 15.7634C12.0879 15.689 12.1473 15.6006 12.1879 15.5031C12.2284 15.4056 12.2493 15.3011 12.2493 15.1955C12.2493 15.0899 12.2284 14.9854 12.1879 14.8879C12.1473 14.7904 12.0879 14.702 12.0131 14.6276L8.10135 10.7083C8.0036 10.6111 7.88237 10.5408 7.74947 10.5043C7.61658 10.4679 7.47652 10.4665 7.34295 10.5004C6.9575 10.6038 6.56046 10.6576 6.16143 10.6604C5.56433 10.6656 4.97208 10.5525 4.41881 10.3274C3.86554 10.1024 3.36218 9.76989 2.93773 9.34908C2.51328 8.92827 2.17612 8.42748 1.94568 7.87556C1.71524 7.32363 1.59607 6.73147 1.59504 6.1332C1.59401 5.86526 1.61537 5.59771 1.65891 5.33335L4.78832 8.47676C4.86254 8.55173 4.95083 8.61124 5.04811 8.65184C5.1454 8.69245 5.24974 8.71336 5.35513 8.71336C5.46052 8.71336 5.56486 8.69245 5.66215 8.65184C5.75943 8.61124 5.84772 8.55173 5.92194 8.47676L8.46059 5.90924C8.60448 5.7601 8.68491 5.56078 8.68491 5.35335C8.68491 5.14591 8.60448 4.9466 8.46059 4.79745L5.35513 1.66203C5.61904 1.61885 5.88604 1.59745 6.15345 1.59805C7.35256 1.60017 8.50184 2.07891 9.34899 2.92919C10.1961 3.77946 10.6719 4.93179 10.6719 6.1332C10.6692 6.53299 10.6155 6.93079 10.5123 7.31698C10.4785 7.45081 10.4798 7.59113 10.5162 7.72429C10.5526 7.85744 10.6227 7.9789 10.7198 8.07684L14.6316 11.9961C14.7819 12.1467 14.9858 12.2313 15.1984 12.2313C15.411 12.2313 15.6149 12.1467 15.7652 11.9961C15.9155 11.8455 16 11.6412 16 11.4282C16 11.2152 15.9155 11.0109 15.7652 10.8603H15.7333Z"/>
	</symbol>
</svg>