<svg width="173" height="107" viewBox="0 0 173 107" fill="none" xmlns="http://www.w3.org/2000/svg">
<path d="M46.0928 101.972L46.0918 101.971L46.0928 101.972Z" fill="#D2D3D6"/>
<path d="M46.039 101.893C46.0569 101.919 46.0761 101.944 46.0925 101.971C46.0567 101.949 46.0426 101.922 46.039 101.893Z" fill="#D2D3D6"/>
<path d="M47.9453 100.472C47.9453 100.593 47.8833 100.623 47.7911 100.472C47.7066 100.335 47.9453 100.334 47.9453 100.472Z" fill="#D2D3D6"/>
<path d="M44.3824 101.565C44.468 101.34 45.2706 101.842 45.2717 101.947C45.2734 102.102 44.4455 102.029 44.3846 101.869C44.352 101.784 44.3511 101.647 44.3824 101.565Z" fill="#D2D3D6"/>
<path d="M59.0932 41.3526C58.7381 41.9304 57.2545 40.2056 57.4793 39.9876C57.8342 39.6434 59.3537 40.9287 59.0932 41.3526Z" fill="#D2D3D6"/>
<path d="M55.4492 40.5385C55.4492 40.5995 55.3332 40.6132 55.1666 40.5718C54.0864 40.3036 55.4492 40.1797 55.4492 40.5385Z" fill="#D2D3D6"/>
<path d="M55.2827 39.3077C55.5041 39.085 56.8884 40.1473 56.8884 40.54C56.8884 40.8277 56.3488 40.7772 55.9667 40.4537C55.6445 40.1812 55.1831 39.4079 55.2827 39.3077Z" fill="#D2D3D6"/>
<path d="M4.45619 55.7255C4.51539 55.6143 4.79497 55.446 5.07758 55.3516C5.72591 55.135 5.7474 55.0935 5.58288 54.636C5.26975 53.7651 9.48274 47.0143 9.34709 46.2627C9.27487 45.8625 9.62071 45.155 10.0493 44.8262C10.3905 44.5645 12.481 41.0271 12.481 40.7115C12.481 40.6243 12.3645 40.4429 12.2221 40.3084C12.0751 40.1695 11.9364 39.8957 11.9013 39.6749C11.6577 38.1429 9.39718 39.8649 9.39718 38.1758C9.39718 36.2931 16.0624 37.3664 17.6476 36.6062C18.817 36.0453 18.3998 34.9497 18.1765 34.7855C18.0142 34.6662 18.0059 34.6095 18.1154 34.3678C18.2945 33.9725 19.2798 33.716 18.5743 33.6111C18.4574 33.5937 18.2851 33.4943 18.1914 33.3901C17.4135 32.5257 22.7826 33.0701 23.5028 33.1335C24.3437 34.0562 23.2522 33.5894 29.9562 35.4291C31.7924 35.933 31.1384 36.0864 29.2944 36.5142C26.2201 37.2276 25.7151 38.2114 25.1234 37.6729C24.8035 37.3818 22.6146 38.1765 22.2384 38.3479C21.5568 38.6586 18.7504 39.0863 17.3456 39.8306C16.6826 40.1819 13.4062 44 13.4062 44.5494C13.4062 44.7741 13.0374 45.7818 11.523 46.9523C10.2052 47.9707 6.6217 53.9561 6.6217 54.6301C6.6217 54.8018 7.09569 54.7207 7.23487 54.9821C7.38997 55.2736 7.37265 56.9203 7.21345 57.0244C7.14315 57.0704 6.76152 57.2333 6.36539 57.3863C5.59577 57.6835 4.75938 57.7595 4.59159 57.5474C4.43393 57.3483 4.33092 55.9609 4.45619 55.7255ZM19.4197 34.0046C19.5022 34.1388 19.8499 34.141 19.9336 34.0046C20.0192 33.8655 19.3342 33.8655 19.4197 34.0046Z" fill="#D2D3D6"/>
<path d="M11.9928 79.8749C12.3552 79.735 12.1617 78.972 11.7638 78.972C11.6747 78.972 11.4478 78.8306 11.2595 78.6577C10.808 78.243 10.9971 78.3029 11.1094 77.3697C11.2929 75.846 13.0256 76.4245 12.1164 75.8255C11.8855 75.6733 11.2051 75.0588 11.6186 74.2252C12.0103 73.4355 11.2878 73.5213 12.1493 72.9771C12.4165 72.8084 12.7069 72.6694 12.7946 72.6683C13.1453 72.664 13.3484 72.1488 13.0684 71.9737C12.8183 71.8173 12.481 71.2943 12.481 71.0628C12.481 70.7106 12.7613 70.7606 12.8553 70.1697C13.0263 69.094 14.3314 69.2192 14.3314 69.2192C14.3314 69.2192 14.0469 68.6668 13.9678 68.1695C13.849 67.4221 14.537 67.2223 14.537 66.723C14.537 66.4364 15.4142 65.9472 15.9281 65.9472C16.3922 65.9472 16.436 65.8719 16.182 65.276C15.6549 64.0394 16.476 64.4356 16.6534 63.7245C16.7788 63.2223 17.4286 62.9776 18.1348 63.1665C18.258 63.1996 18.2992 63.0593 18.3403 62.4668C18.4308 61.163 18.9424 61.555 19.2963 60.9249C19.6056 60.3743 20.8753 60.4219 21.27 60.4167C21.27 60.3232 21.2548 59.2614 21.3213 59.196C21.5661 58.9558 22.8299 58.1942 22.9838 58.1942C23.0917 58.1942 23.3172 58.2962 23.4849 58.4209C24.3235 59.0445 23.6855 57.4721 25.1247 56.8941C25.7954 56.6247 26.0197 56.1986 27.1058 56.6824C27.5338 56.8731 27.5286 56.8778 27.6396 56.2056C27.7122 55.7662 27.8429 55.6728 28.7628 55.4025C29.7103 55.1242 29.6745 54.9848 30.0301 55.3923C30.9344 56.4286 30.9097 54.6233 32.2575 54.5229C33.3186 54.4439 33.216 54.1964 33.8273 54.724C34.3338 55.1613 34.6535 55.2025 34.7433 54.8423C34.9066 54.1879 35.3818 54.2265 36.947 54.1557C37.4227 54.9477 37.4678 55.093 37.8242 55.093C40.4048 55.093 32.8544 52.1576 32.6312 51.9426C32.0486 51.3812 22.738 46.9548 22.5147 46.804C22.4091 46.7327 22.0237 44.8862 22.3051 44.2901C22.7733 43.2977 22.1078 41.8406 24.195 41.1892C26.9337 40.3343 22.8131 38.7946 34.4729 44.6944C35.3532 43.8627 35.4228 42.7919 36.6398 42.7919C37.487 42.7919 38.878 43.0726 39.1944 42.9023C39.4827 42.7472 40.1328 41.8195 40.1328 41.5633C40.1328 40.9063 40.9882 41.9648 41.2114 41.9648C41.2903 41.9648 42.7148 43.1187 42.779 43.1886C43.362 43.8228 45.4818 43.4153 45.6866 44.2587C45.7642 44.5783 45.9565 44.6025 46.0315 44.3021C46.3593 42.988 58.6824 46.088 62.8386 46.6095C64.9577 46.8754 63.0578 47.2314 64.7904 47.7309C65.818 48.027 65.9995 47.966 65.9561 47.3384C65.9136 46.7235 74.7638 48.1253 59.9723 45.4713C49.0312 43.5082 47.4936 43.0598 47.2734 43.4181C47.0161 43.8369 39.8298 40.6171 40.0885 40.1961C40.1196 40.1456 39.979 40.1042 39.7762 40.1042C38.5901 40.1042 30.7804 34.9828 30.6118 34.7085C30.5791 34.6555 30.583 34.4488 30.6203 34.2492C30.7485 33.562 31.3113 33.5168 36.1753 33.803C42.8273 34.1945 30.9284 34.1303 30.9284 34.1303C30.9284 34.1303 43.0526 38.3582 43.4906 39.0303C43.7044 39.3585 43.9512 39.365 43.6279 39.0189C43.2695 38.6353 43.6522 38.6599 43.9362 39.1223C44.0586 39.3212 44.223 39.484 44.3018 39.484C44.478 39.484 44.7769 40.0393 44.7039 40.2309C44.5941 40.5184 46.1978 41.9223 46.1978 42.1215C46.1978 42.2877 46.5906 42.4438 46.8916 42.7195C47.3601 43.1486 47.0643 42.5517 46.4804 41.8898C46.2684 41.6494 46.0949 41.3614 46.0949 41.2498C46.0949 39.9388 43.5828 39.3122 44.124 38.4406C44.4369 37.9369 43.5388 37.5514 43.6735 37.1247C43.8016 36.7188 42.4971 36.0026 42.4971 35.351C42.4971 35.0857 43.2727 35.1909 42.324 34.8941C41.1912 34.5398 40.7695 34.3149 40.6633 34.0087C40.4746 33.4642 39.6373 33.8054 39.2514 33.3766C39.1926 33.3112 29.1401 33.4144 29.0409 33.5757C28.9762 33.6811 28.7973 33.6977 28.2994 33.6444C27.2905 33.5363 26.298 33.8597 25.279 33.8355C24.5664 33.8187 23.9707 33.6308 24.1925 33.4929C24.3031 33.4242 24.2862 33.3766 24.112 33.2672C23.6295 32.9643 24.2791 32.8868 23.146 32.7187C21.7481 32.5113 21.6019 32.4098 23.1318 32.3864C24.4413 32.3662 24.5462 32.1447 24.323 32.1447C24.1535 32.1447 24.2477 31.868 24.0711 31.8083C23.7288 31.6925 24.6538 31.1173 24.7866 31.6278C24.8539 31.8865 24.9385 31.8895 25.0942 31.6386C25.208 31.4554 25.328 31.446 26.9436 31.4943C34.097 31.7089 25.0138 31.7842 34.3763 32.2319C39.2931 32.4671 40.0053 32.1308 40.3963 32.5654C40.6543 32.852 40.7857 32.8151 41.067 32.3773C41.3965 31.8643 40.795 31.5693 52.5196 33.0654C78.1683 36.3384 79.7326 35.0465 86.4109 33.2227C89.9583 32.2539 92.01 31.5244 93.1404 31.5244C93.6082 31.5244 95.009 31.3562 95.7463 30.4233C96.958 28.8901 100.171 26.9521 100.167 27.0955C100.298 22.7468 105.339 21.4612 106.878 27.3289C107.165 28.4244 107.176 28.486 108.26 28.1908C109.4 27.8804 108.784 27.9875 109.151 26.9522C109.385 26.2938 109.059 26.6346 108.986 26.1158C108.965 25.9677 108.778 25.7955 108.44 25.6122C107.658 25.1885 107.375 24.0736 107.369 23.849C107.364 23.6927 107.315 23.5648 107.26 23.5648C107.136 23.5648 106.641 22.6047 106.641 22.3644C106.641 22.2259 106.593 22.2427 106.405 22.4475C105.964 22.9255 103.834 23.3045 103.35 22.9911C103.266 22.9371 102.989 22.8929 102.735 22.8929C102.278 22.8929 102.269 22.8859 101.989 22.3303C101.536 21.4314 102.008 21.3073 101.59 21.4422C101.161 21.581 100.867 21.5243 100.436 21.2193C98.7222 20.0081 99.8656 18.4995 100.904 18.4995C101.069 18.4995 101.276 18.347 101.537 18.0334C101.942 17.5457 102.446 17.2325 103.029 17.1059C103.616 16.9783 104.481 16.5501 104.437 16.4086C104.414 16.3362 104.367 15.9899 104.332 15.6389C104.217 14.4878 104.779 14.9392 104.629 14.3004C104.534 13.8976 103.662 12.1938 103.55 12.1938C103.434 12.1938 102.05 10.9111 101.964 10.8326C100.71 10.9015 100.636 10.9055 99.3831 10.9742C97.8791 9.70149 96.8664 5.57805 97.7754 4.66396C98.0593 4.37841 98.1059 4.42195 99.2331 4.54044C99.6225 2.98992 99.7352 2.55164 100.788 2.77874C102.287 3.10189 102.775 3.90072 103.635 5.08372C106.443 8.94497 106.267 7.12761 106.165 11.5219C106.74 13.0359 106.991 13.6026 106.981 14.2613C106.965 15.363 107.329 14.6381 107.207 15.8635C109.575 16.0716 110.026 16.7669 110.032 15.4191C110.04 13.3623 111.732 15.1193 112.759 16.8455C115.675 21.7447 115.307 21.3046 115.904 20.0644C115.672 19.6071 115.269 18.9544 115.636 18.4266C115.969 17.9482 117.949 17.2311 117.949 16.7334C117.949 16.3606 118.497 14.6595 118.775 14.8326C118.907 14.9141 118.899 15.5604 118.761 16.0605C118.655 16.4436 118.67 16.4924 119.044 17.0134C124.515 24.6234 123.441 23.2996 125.748 24.709C125.627 26.354 125.691 25.2771 128.546 30.065C132.614 36.8858 135.076 30.4576 150.997 41.92C156.397 45.8076 157.661 45.3883 150.123 43.7688C145.81 42.8421 146.156 42.93 144.354 41.7879C139.395 38.6441 140.562 39.7796 127.994 40.2763C127.102 40.3116 126.351 40.3747 126.325 40.4165C126.325 40.4168 132.096 52.5588 132.854 54.3436C133.148 55.0355 133.267 54.985 133.471 54.5591C134.094 53.2541 135.429 54.8151 135.896 53.6913C136.215 52.9234 137.392 53.0168 137.657 53.2581C138.333 53.8735 138.543 52.7154 139.532 52.7154C140.543 52.7154 140.43 53.6452 141.252 52.7594C141.738 52.2361 142.713 52.3234 143.021 52.6533C143.739 53.4218 143.879 52.5533 144.744 52.5984C146.076 52.6678 145.694 53.5547 146.773 52.9142C146.863 52.8607 146.936 52.8232 147.002 52.7971C147.024 52.5417 147.022 52.5566 147.002 52.7971C147.306 52.6769 147.434 52.8388 148.091 52.9718C148.588 53.0722 148.71 54.0946 149.481 53.587C149.886 53.3198 150.828 53.7139 151.074 54.1322C151.615 55.0516 151.939 54.0988 152.774 54.3504C153.331 54.5183 153.721 54.8477 153.721 55.1498C153.721 55.5296 154.11 55.7427 154.52 55.5873C155.087 55.3721 156.086 56.1238 156.086 56.548C156.086 56.8279 156.446 56.9805 156.918 56.9004C157.465 56.8073 158.347 57.3073 158.347 57.8609C158.347 58.3509 158.592 58.6077 159.06 58.6077C159.541 58.6077 159.694 58.8667 160.297 59.3642C160.463 59.5014 160.508 59.6195 160.462 59.8019C160.371 60.1668 160.731 60.5031 161.121 60.417C161.37 60.3621 161.485 60.421 161.885 60.8061C162.792 61.6798 161.954 62.4938 162.92 62.5973C163.303 62.6384 164.062 63.4586 163.967 64.0519C163.901 64.4582 164.158 64.81 164.522 64.81C165.16 64.81 165.627 65.7844 165.461 66.3285C165.18 67.2499 166.052 67.2484 166.263 67.7045C166.642 68.5246 166.731 68.5549 166.57 68.9456C166.407 69.3411 166.565 69.7719 166.873 69.7719C167.393 69.7719 167.815 70.8484 167.548 71.4927C167.352 71.9633 167.35 72.346 167.543 72.4203C167.753 72.5015 168.135 73.1834 168.068 73.3585C167.937 73.7001 168.498 73.8145 168.114 74.1643C167.812 74.4389 167.856 74.8254 168.232 75.2164C168.511 75.5053 168.562 75.6415 168.589 76.1624C168.652 77.3768 167.668 77.0391 168.344 78.1328C168.606 78.556 168.751 79.59 168.356 79.8502C168.054 80.0492 168.042 80.4046 168.326 80.7669C168.694 81.238 168.575 82.2593 168.112 82.5903C167.732 82.8629 167.653 83.2319 167.861 83.7779C168.139 84.5091 167.804 84.305 167.804 84.9064C167.804 85.0912 167.717 85.2146 167.508 85.3231C167.144 85.5125 167.007 85.9506 167.234 86.2025C167.617 86.6282 167.203 87.2084 167.171 87.445C167.079 88.1259 165.713 87.7418 166.161 89.1053C166.258 89.4032 166.267 89.5527 166.19 89.6013C165.921 89.7715 165.945 90.4462 165.504 90.4462C165.027 90.4462 164.806 90.8534 165.042 91.297C165.136 91.4749 165.104 91.6226 164.862 92.1185C164.596 92.6619 164.521 92.7358 164.119 92.8492C163.555 93.0086 163.236 93.4167 163.333 93.8574C163.429 94.2967 162.719 95.1324 162.385 95.0683C162.062 95.0062 161.739 95.4224 161.739 95.9007C161.739 96.1905 161.649 96.3531 161.284 96.7199C160.393 97.6166 160.503 96.6742 159.853 97.3557C159.257 97.9821 160.057 97.7362 159.263 98.5182C158.891 98.8854 158.784 98.9372 158.497 98.8904C157.621 98.7473 157.898 99.4601 157.431 99.9197C156.713 100.626 156.747 100.609 156.182 100.534C154.512 100.311 155.522 101.909 154.749 101.662C154.366 101.54 154.584 102.094 153.997 101.966C153.593 101.879 153.378 101.413 152.993 101.88C152.897 101.996 152.919 102.024 153.103 102.024C152.984 102.034 152.862 102.044 152.741 102.055C152.677 102.179 152.512 102.483 152.385 102.542C150.95 103.21 151.636 102.501 150.069 102.711C149.803 102.897 150.067 103.251 149.558 103.404C148.961 103.582 148.854 103.843 148.499 103.348C148.362 103.158 147.818 103.093 147.59 103.24C147.494 103.337 147.409 103.422 147.327 103.502C147.224 103.727 147.221 103.958 146.699 104.04C146.472 104.176 146.281 104.186 146.031 104.079C145.877 104.072 145.806 104.036 145.749 103.928C145.565 103.815 145.349 103.664 145.074 103.471C144.85 103.471 144.778 103.52 144.778 103.672H144.778C144.751 103.655 144.725 103.64 144.698 103.624C144.632 103.761 144.597 104.013 144.449 104.107C144.264 104.224 143.365 104.216 143.14 104.095C142.883 103.957 143.055 103.803 143.005 103.578C142.974 103.443 142.83 103.405 142.696 103.405C142.689 103.493 142.689 103.493 142.696 103.405C142.41 103.406 142.055 103.621 142.023 103.85C141.98 104.148 141.768 104.187 140.589 104.107C140.159 104.078 140.558 103.676 140.134 103.442C140.108 103.453 140.081 103.463 140.055 103.474C139.093 102.956 139.697 104.264 138.468 103.967C138.106 103.945 137.996 103.929 137.929 103.785C137.853 103.753 137.806 103.731 137.806 103.731C137.774 103.333 137.698 103.164 137.47 103.067C137.153 103.13 136.846 103.201 136.553 103.282L136.251 103.506C135.315 103.186 135.12 103.161 134.908 102.743C134.654 102.244 134.268 102.069 133.9 102.288C133.477 102.54 132.735 102.156 132.477 101.644C132.371 101.617 132.267 101.589 132.169 101.56C132.639 101.689 131.795 101.084 131.461 101.39C131.408 101.44 131.212 101.508 131.026 101.543C130.734 101.598 130.676 101.573 130.592 101.35C130.404 100.852 130.09 101.366 129.883 100.768C129.821 100.589 129.77 100.359 129.77 100.257C129.77 100.046 129.375 99.7275 129.227 99.8195C129.173 99.8531 128.97 99.9166 128.775 99.9608C128.465 100.031 128.411 100.012 128.332 99.8052C128.194 99.438 127.417 99.4499 127.669 98.7886C127.768 98.5302 127.224 98.1855 126.833 98.2591C125.941 98.4274 126.214 97.973 125.838 97.774C125.507 97.5986 125.441 97.4664 125.504 97.1041C125.584 96.6382 125.24 96.2211 124.842 96.3012C124.472 96.3756 124.429 96.211 123.906 95.6631C123.508 95.2461 123.953 94.2711 123.061 94.2711C122.618 94.2711 121.723 93.3435 121.888 92.7078C121.979 92.3592 121.785 92.0137 121.411 91.8566C120.963 91.6684 120.482 90.8511 120.573 90.4341C120.663 90.0202 120.399 89.5939 119.92 89.3816C119.557 89.2206 119.486 89.129 119.328 88.6247C118.973 87.4907 119.982 87.5153 119.024 86.7807C118.526 86.3987 118.77 86.2924 118.52 85.8064C118.131 85.0502 119.212 85.1807 118.222 84.214C116.911 82.9327 118.464 82.069 117.739 81.2938C117.475 81.0105 117.368 79.9438 117.581 79.6999C118.394 78.7647 116.303 77.9722 117.654 76.6681C117.905 76.4263 117.897 76.0079 117.633 75.573C117.302 75.0264 117.641 75.2719 117.641 74.6846C117.641 74.1322 118.672 73.658 118.11 73.1889C117.677 72.8274 117.866 71.9027 118.497 71.2967C118.9 70.9093 118.9 70.9079 118.832 70.2974C118.788 69.9113 118.802 69.6617 118.87 69.6197C118.929 69.5831 118.977 69.4469 118.977 69.3169C118.977 68.6027 120.238 68.8345 119.735 67.7731C119.479 67.2331 119.979 66.2527 120.627 66.1036C120.985 66.0214 121.273 65.5135 121.187 65.1182C121.074 64.6012 121.547 64.4296 121.547 64.1356C121.547 63.9921 121.771 63.88 122.057 63.88C122.774 63.88 122.433 61.6059 123.579 61.6059C124.005 61.6059 124.571 61.0782 124.474 60.7711C124.405 60.5517 124.991 59.7452 125.511 59.7452C126.456 59.7452 125.933 58.4885 126.841 58.0726C126.982 58.0078 127.098 57.9081 127.098 57.851C127.098 57.5649 120.893 46.0934 119.525 43.8519C118.804 42.6689 116.695 46.3522 116.224 47.1498C111.487 55.1734 111.529 60.9008 110.944 62.0711C110.585 62.7908 109.679 64.0314 109.485 64.0689C109.31 64.1029 109.303 64.0174 109.363 62.6229C109.791 52.7823 111.132 51.5789 109.666 53.029C107.213 55.4562 108.847 56.6501 107.357 56.9032C106.684 57.0175 106.94 57.252 105.882 59.0024C105.519 59.6042 105.366 60.1394 105.634 59.8693C106.136 59.3646 107.764 60.6734 107.883 60.898C108.001 61.1198 107.92 61.5025 107.754 61.5025C107.693 61.5025 107.673 61.6069 107.708 61.745C107.751 61.9175 107.65 62.1845 107.359 62.6697C106.851 63.5174 106.852 63.3626 107.299 63.9144C107.815 64.5504 109.029 66.9968 109.415 68.176C110.183 70.5259 111.219 70.47 111.98 75.4914C112.357 77.977 112.739 81.2044 110.533 82.3915C109.976 82.6914 110.041 83.2542 109.209 82.9949C109.012 82.9337 108.518 82.8218 108.11 82.7464C103.822 81.952 101.132 73.8598 101.022 73.6283C100.225 71.9413 100.65 71.2907 99.4689 73.1143C96.1046 78.3096 90.2738 80.7807 84.7975 80.6151C84.7896 80.6148 77.0365 80.6324 77.0365 80.6244C77.0365 80.219 79.8912 80.3231 79.2926 79.9511C79.125 79.8469 77.4526 79.7898 77.2998 80.0585C76.965 80.6472 76.1421 81.0763 75.897 81.2581C75.5365 81.5256 73.997 80.0729 74.0608 80.7038C74.0933 81.0246 74.0603 81.0475 73.7728 80.9046C72.8548 80.4485 71.704 80.4661 69.8409 80.965C67.0264 81.7186 67.1331 81.6721 66.2657 82.5245C64.6979 84.0655 63.357 82.3781 64.0904 81.1849C64.472 80.5639 64.3122 79.4636 63.5047 80.1022C63.1248 80.4028 60.8766 80.7495 60.3802 81.5103C59.9718 82.1363 58.9174 82.0194 59.88 82.9778C60.2763 83.3724 60.3016 83.4293 60.1986 83.6961C59.8875 84.5033 60.0416 85.4848 59.1358 85.4848C58.5926 85.4848 58.8197 85.8475 59.3531 86.921C58.5608 88.78 58.6944 88.925 57.6853 89.1622C57.1424 89.2898 57.5095 89.8173 57.8403 90.3953C56.6283 92.4588 56.8309 92.2294 56.1177 92.2461C55.6658 92.2567 55.6613 92.2689 55.8055 93.0831C55.8753 93.4766 55.8476 93.5377 55.2444 94.3236C54.5207 95.2663 54.3342 95.3999 53.7338 95.4049C52.6151 95.4145 53.7752 95.9245 53.2607 96.6157C53.0934 96.8404 52.0231 98.0378 51.6975 97.9403C51.4514 97.8666 50.9623 97.7964 50.721 97.7589C50.721 98.5253 50.751 98.787 50.5202 98.9495C50.2109 99.1674 50.1912 99.6459 49.9269 99.6491C49.6748 99.6523 49.3077 99.9661 49.2645 100.215C49.1479 100.888 47.3871 99.9005 47.6259 100.349C47.8485 100.768 47.0327 101.463 46.5681 101.55C46.254 101.61 46.0254 101.772 46.04 101.892C46.0061 101.842 45.9697 101.793 45.9307 101.747L45.6691 101.925C44.4589 101.276 44.2449 101.134 44.2449 101.712C44.2449 102.059 43.5511 102.851 43.2468 102.851C42.962 102.851 42.357 103.265 42.009 103.265C41.6949 103.265 40.9974 102.904 40.92 102.701L40.9201 102.701C40.8957 102.64 40.8635 102.582 40.8267 102.525C40.6633 102.433 40.6865 102.469 40.5727 102.609C40.5093 102.843 40.4898 103.121 40.4171 103.862C37.8516 104.289 38.4136 103.56 37.7876 102.83C37.2379 102.726 37.4994 103.182 37.2964 103.922C37.185 104.48 34.4044 104.303 34.2005 103.947C34.2005 104.171 32.9949 104.302 31.9618 104.208C30.9253 104.114 31.4068 104.071 30.9721 103.455C30.5088 102.798 31.2587 101.464 29.121 103.301L29.1207 103.3C29.037 103.39 29.0191 103.426 28.9451 103.389C28.2299 103.029 27.6734 103.287 27.3264 102.734C26.8275 101.939 27.0926 100.949 26.3212 101.701C26.1523 101.865 25.9392 102.024 25.6986 102.024C25.0463 102.024 25.3846 101.922 24.6544 101.607C23.7544 101.219 24.2511 100.648 24.2511 100.309C24.1353 100.263 24.021 100.214 23.9087 100.164C23.5398 100.164 23.7097 99.8523 23.26 100.174C21.5503 101.345 22.236 99.8536 21.2897 99.8536C20.8784 99.8536 20.6334 99.0493 20.8536 98.4219C21.0781 97.7819 20.7233 97.5888 20.0648 97.9925C19.5723 98.2945 19.3768 98.2478 18.7774 97.6855C18.0232 96.978 18.1651 96.8689 18.7003 95.9312C18.1667 95.3935 18.2315 95.3785 17.7899 95.5641C17.2146 95.8059 16.7376 95.6835 16.5286 95.2407C16.1776 94.4968 15.398 94.5023 15.9838 93.4032C16.2814 92.8448 16.2644 92.2644 15.243 92.5276C14.3418 92.7599 14.5737 92.3551 14.1772 91.7683C13.4581 90.7041 14.5916 90.6934 14.5168 90.0451C14.4504 89.4698 12.7895 89.9163 12.7895 89.0455C12.7895 87.7215 11.677 88.3936 12.7528 87.2371C13.1962 86.7604 13.2233 86.7002 13.1348 86.3887C13.0466 86.0781 13.0013 86.0495 12.5174 86.0001C11.3163 85.8777 11.8458 85.3826 11.5081 84.7314C11.0016 83.755 13.2338 83.3249 11.9991 82.9688C11.0286 82.6889 11.0871 81.817 11.0839 81.5919C11.0778 81.1628 11.0262 80.8871 10.9422 80.835C10.8695 80.7898 10.8404 80.7036 10.8774 80.6435C10.9584 80.511 11.7411 79.972 11.9928 79.8749ZM24.6879 32.3853C24.8175 32.4629 26.6667 32.6497 26.6667 32.4252C26.6667 32.017 24.138 32.0566 24.6879 32.3853ZM27.9751 32.2964C27.2464 32.1126 26.3614 32.8919 27.7381 32.6738C28.204 32.5999 28.3373 32.3878 27.9751 32.2964ZM28.7504 31.9789C28.7163 32.0133 28.777 32.0377 28.8854 32.0332C29.172 32.0213 28.8197 31.9092 28.7504 31.9789ZM29.3478 32.6498C30.1495 32.7863 30.1738 32.7868 30.3493 32.6749C30.8063 32.3837 26.8085 32.2179 29.3478 32.6498ZM30.7785 32.6616C30.7785 32.7976 31.2924 32.7976 31.2924 32.6616C31.2924 32.5259 30.7785 32.5254 30.7785 32.6616ZM32.5082 49.2008C32.72 48.6484 32.1148 48.7465 32.1148 48.9711C32.1148 49.0188 32.181 49.1482 32.2619 49.2585C32.4049 49.4536 32.4118 49.452 32.5082 49.2008ZM50.9263 42.984C51.1486 42.984 50.709 42.8063 50.5151 42.8063C50.2929 42.8063 50.7317 42.984 50.9263 42.984ZM57.8453 44.2316C58.1218 44.2255 58.1411 44.2104 57.9678 44.1355C57.3439 43.866 57.2414 44.2451 57.8453 44.2316ZM63.8271 43.6187C63.8621 43.6756 63.9689 43.7215 64.0644 43.7205C64.398 43.7174 63.6649 43.3548 63.8271 43.6187ZM62.1824 44.7469C62.707 44.7373 62.072 44.5634 61.8226 44.5579C61.4163 44.5489 61.8138 44.7537 62.1824 44.7469ZM50.859 41.1297C51.1232 41.0337 51.2849 41.032 51.5435 41.1227C51.9771 41.2747 52.0844 41.2724 52.0316 41.1122C51.9699 40.9247 49.473 40.8077 49.4058 40.8753C49.3429 40.9387 50.3877 41.3011 50.859 41.1297ZM46.5001 51.5784C46.2352 51.5784 46.3439 51.7851 46.5636 51.7851C46.7714 51.7851 46.7719 51.5784 46.5001 51.5784ZM120.1 22.0893C120.095 22.1305 120.147 22.1828 120.215 22.2056C120.468 22.2901 120.129 21.8039 120.1 22.0893ZM65.2341 76.4204C65.1599 76.3905 65.0712 76.3942 65.0371 76.4286C64.9663 76.4997 65.4284 76.4985 65.2341 76.4204ZM116.336 28.7141C116.307 28.7887 116.31 28.8779 116.345 28.9123C116.415 28.9834 116.414 28.5187 116.336 28.7141ZM116.233 27.7276C116.207 27.8281 116.208 27.9677 116.236 28.0377C116.303 28.2032 116.297 27.481 116.233 27.7276ZM116.198 27.5447C116.072 26.1699 115.855 26.3707 116.062 27.0795L116.198 27.5447ZM101.244 27.0018C103.195 27.6378 103.339 27.5963 103.274 28.811C103.251 29.2499 105.826 28.9906 106.061 28.6116C106.271 28.2728 105.477 24.0766 103.044 24.3117C102.038 24.409 101.128 25.2064 101.244 27.0018ZM68.7355 76.0848C69.1302 76.0746 69.2668 75.5045 68.2987 76.0258C67.4484 76.4836 68.3621 76.0944 68.7355 76.0848ZM59.4118 70.4994C59.2122 70.3328 59.2775 70.4137 59.1903 70.642C59.1224 70.8198 59.2268 70.8516 59.4374 70.7173C59.544 70.6493 59.5388 70.6055 59.4118 70.4994ZM59.7666 64.9002C59.7666 63.361 57.8013 63.7924 57.2904 62.0389C57.2148 61.7793 57.0504 61.5165 56.896 61.4085C56.7586 61.3123 46.8685 56.0379 46.7501 56.157C46.6462 56.2615 46.8455 56.5042 47.1919 56.6952C48.4146 57.3691 47.0518 59.2719 49.1809 57.8551C50.7368 58.8955 50.7392 58.749 50.4619 59.6951C50.4164 59.8503 50.4864 59.9676 50.7341 60.1519C51.0631 60.3964 51.074 60.3975 51.5503 60.2273C52.1726 60.0051 52.4399 60.0092 52.5135 60.2424C52.672 60.7445 53.3865 60.6471 53.3909 61.519L53.3933 62.0011C55.6515 63.2658 54.3438 62.6078 56.722 64.1311L57.9434 64.9133C58.6108 64.9133 59.1012 64.9133 59.7437 64.9133C59.7517 64.9091 59.7597 64.9049 59.7666 64.9002ZM31.6597 96.3554C33.9236 96.4011 28.9053 95.5005 25.8979 93.3152C22.1457 90.5888 20.2266 86.9315 20.2266 86.9315C20.2046 86.9315 20.2162 87.0497 20.2522 87.1941C20.4377 87.9369 19.467 87.2684 20.5799 89.1023C22.7456 92.6707 26.3849 95.4432 30.2068 96.4364C32.5384 97.0423 30.321 96.3283 31.6597 96.3554ZM27.3862 63.9313C27.2182 64.135 27.4208 64.1386 27.5918 63.9313C27.7599 63.7276 27.5573 63.7241 27.3862 63.9313ZM39.7202 94.3751C39.9068 94.2746 39.9063 94.2554 39.7044 93.6777C39.461 92.9815 37.4758 89.2057 37.3531 89.2057C37.1647 89.2057 36.5827 91.2644 36.5302 91.4464C36.6838 91.8465 37.6455 94.4717 38.0353 94.6221C38.3494 94.7434 39.2929 94.6051 39.7202 94.3751ZM41.8507 93.6542C42.657 93.2789 42.898 93.3501 41.7162 89.9614C40.7652 87.2344 41.0777 87.2589 40.0359 87.5229C38.5007 87.9117 38.2598 86.1554 37.5514 88.6057C37.9851 89.4245 39.657 92.6221 40.1602 93.3664C40.5345 93.92 40.639 94.2182 41.8507 93.6542ZM44.5737 64.2931C44.4971 64.2931 44.2447 64.7301 44.2447 64.8627C44.2447 64.8864 44.6957 65.2488 45.247 65.6681C46.6327 66.7222 46.6379 66.7244 46.805 66.3449C46.9321 66.0561 46.9217 66.0145 46.6511 65.7305C46.421 65.4891 44.7864 64.2931 44.5737 64.2931ZM36.1238 91.5452C36.1238 91.2897 35.2359 88.7971 35.091 88.6459C34.903 88.4499 32.9969 93.471 32.9326 93.754C32.7645 94.4933 32.63 94.5473 32.964 94.675C33.1875 94.7604 34.5376 95.0191 34.8132 94.7129C35.0154 94.4884 36.1238 92.3572 36.1238 91.5452ZM48.6584 86.4146C47.9261 86.1532 47.6302 85.4954 48.1678 85.3238C48.8996 85.0902 49.8613 86.4702 49.981 85.6266C50.0207 85.3464 48.9322 84.2008 48.0481 84.709C47.6698 84.9265 44.1094 85.4426 44.7338 85.8306C44.784 85.8619 45.5387 86.1645 46.4109 86.5031C50.2557 87.9958 49.3885 86.6753 48.6584 86.4146ZM49.6474 86.518C49.7242 86.518 49.7215 86.3112 49.5839 86.3112C49.449 86.3112 49.5635 86.518 49.6474 86.518ZM50.5206 84.3845C50.6599 84.0161 50.5889 83.9783 50.1511 84.1872C49.8046 84.3525 49.7923 84.374 49.9675 84.5076C50.2492 84.7222 50.4061 84.6873 50.5206 84.3845ZM49.2477 70.8029C48.7406 69.9518 48.5873 69.9745 47.4426 71.0699C46.2674 72.1946 46.0184 72.3318 47.8425 71.9471C49.8644 71.5206 49.6328 71.4493 49.2477 70.8029ZM43.6139 87.039C43.5053 86.7259 43.4718 86.7064 43.1346 86.7614C42.5561 86.8558 42.5397 86.9833 43.0679 87.2802C43.7727 87.6764 43.8266 87.6526 43.6139 87.039ZM44.2895 71.8756C45.6108 69.3781 43.2672 72.4975 43.3816 72.6837C43.6452 73.1128 44.0935 72.2462 44.2895 71.8756ZM47.6761 68.8415C47.4754 68.8415 47.5965 69.0482 47.8032 69.0482C48.004 69.0482 47.8829 68.8415 47.6761 68.8415ZM29.1438 86.7694C29.4838 85.8617 29.6407 85.8054 26.3069 87.4749C23.1666 89.0475 23.4146 88.9663 24.286 89.8425C24.3737 89.9307 24.9072 90.4465 25.0312 90.4449C25.1253 90.4441 26.9854 89.6349 27.7124 89.0834C28.6438 88.3767 28.521 88.4319 29.1438 86.7694ZM37.4908 77.4626C37.6224 77.8652 40.3623 76.9262 40.1389 76.9128C39.7331 76.8884 37.4591 77.3607 37.4908 77.4626ZM41.5357 64.4108C41.3046 64.2214 40.084 63.8965 39.9797 63.9967C39.8574 64.1142 39.617 65.1368 39.6855 65.2481C39.7471 65.3484 41.0211 65.3946 41.327 65.1435C41.589 64.9287 41.6984 64.5442 41.5357 64.4108ZM39.2811 65.3268C39.2191 63.5284 39.2986 63.5916 37.4139 63.5178C37.4697 64.3951 37.4948 64.4712 37.6863 65.3268C38.2634 65.3268 38.704 65.3268 39.2811 65.3268ZM33.5943 63.672C33.4688 63.5459 32.1355 63.8288 31.9165 64.028C31.6928 64.2316 31.7246 64.998 31.7088 65.5336C32.4078 65.5336 32.9414 65.5336 33.6404 65.5336C33.7468 64.9946 33.7799 63.8588 33.5943 63.672ZM26.2495 68.4279C25.9802 68.4279 25.047 67.2192 24.9394 68.2953C24.9011 68.6779 25.0809 68.9917 27.1026 72.0718C27.9515 73.3652 28.698 74.4221 28.7615 74.4205C29.0404 74.4131 30.2598 73.0509 30.3266 72.8379C30.5074 72.2611 31.705 71.7019 31.7021 70.8839C31.6996 70.1877 31.9863 70.3512 26.8604 66.9471C26.6503 66.8075 26.5319 66.7914 26.3181 66.8731C25.3913 67.2275 26.8305 68.4279 26.2495 68.4279ZM21.1973 76.8099C21.8046 77.0156 21.8405 77.2555 21.27 77.2937C20.5009 77.3452 20.3962 77.3979 20.3962 77.7331C20.3962 78.3102 21.5905 78.6347 24.765 79.5822C28.1165 80.5827 25.6703 80.4996 27.8394 75.8659C27.5095 75.5343 27.6315 75.6569 27.3017 75.3252C22.036 75.5794 21.0614 75.5755 20.6696 76.1035C20.4105 76.4527 20.501 76.5739 21.1973 76.8099ZM26.2989 81.1156C25.8883 81.3125 25.8587 81.4048 26.1784 81.4909C27.1948 81.7649 26.9963 80.7812 26.2989 81.1156ZM28.3367 78.8684C28.1721 78.8684 27.263 79.992 27.334 80.1076C27.6611 80.6396 28.7429 78.8684 28.3367 78.8684ZM28.8703 84.5226C28.9267 84.6701 29.0949 84.7025 29.1675 84.5798C29.1927 84.5371 29.247 84.021 29.2881 83.4328C29.3587 82.4237 29.3521 82.3655 29.1713 82.4003C28.8969 82.4532 28.7987 84.3347 28.8703 84.5226ZM36.3295 84.0371C36.3295 83.9016 36.0211 83.8999 36.0211 84.0371C36.0211 84.1725 36.3295 84.1742 36.3295 84.0371ZM35.0892 83.8267C35.3508 83.9675 35.5802 83.9623 35.6716 83.8136C35.763 83.6648 35.3506 83.3134 35.0845 83.3134C34.8247 83.3134 34.828 83.6861 35.0892 83.8267ZM36.3295 83.2101C36.3295 83.0747 36.0211 83.073 36.0211 83.2101C36.0211 83.3456 36.3295 83.3473 36.3295 83.2101ZM37.043 83.6236C36.9021 83.6236 36.8988 83.8303 37.1065 83.8303C37.3086 83.8304 37.1947 83.6236 37.043 83.6236ZM34.1986 78.0824C34.1644 78.1167 34.2251 78.1411 34.3335 78.1367C34.6201 78.1247 34.2679 78.0127 34.1986 78.0824ZM34.3763 80.5224C34.3763 80.7404 34.5259 80.8006 34.6333 80.6258C34.7713 80.4013 34.3763 80.1183 34.3763 80.5224ZM32.7316 81.3577C32.7316 80.9869 32.0338 80.7908 32.5248 80.2654C32.8628 79.9036 32.7863 79.2235 32.9626 78.999C33.1853 78.7155 32.588 78.528 33.7277 78.2583C34.0958 78.1712 34.1008 78.165 33.811 78.1558C32.1842 78.1041 31.2314 80.3764 32.3978 81.6748C32.6851 81.9947 33.554 82.5714 33.554 82.4422C33.554 82.4415 32.7316 81.5928 32.7316 81.3577ZM39.6317 69.2937C40.0141 69.3706 40.9626 69.2888 41.0296 69.0837C41.0953 68.8828 40.4757 68.2665 40.0875 68.1467C39.3601 67.9222 39.0061 69.1679 39.6317 69.2937ZM34.0871 73.2948C33.901 73.1961 33.8166 73.1959 33.6994 73.2938C33.5694 73.4022 33.5737 73.4357 33.7317 73.5455C34.4094 74.0166 34.7323 73.6367 34.0871 73.2948ZM33.1752 74.9767C33.0546 75.098 33.2008 75.3244 33.3484 75.245C33.4332 75.1994 33.5951 75.126 33.7082 75.0821C34.0396 74.9532 33.2335 74.9181 33.1752 74.9767ZM33.6226 70.0044C33.7044 70.1415 34.1175 70.0872 34.3755 69.9055C34.7252 69.6592 35.8582 69.4731 37.3333 69.4197C37.6876 69.4069 38.0213 69.3522 38.075 69.2982C38.1674 69.2052 37.9413 67.9474 37.8079 67.8127C37.6863 67.6899 34.0184 67.533 33.8974 67.6454C33.7791 67.7554 33.5342 69.8564 33.6226 70.0044ZM38.4501 68.5055C38.6266 69.1678 39.568 67.8294 38.4624 67.8091C38.3703 67.8075 38.3637 68.1812 38.4501 68.5055ZM31.3953 79.3336C31.2594 79.2491 31.2578 79.6954 31.3953 79.6954C31.5268 79.6954 31.5338 79.4196 31.3953 79.3336ZM31.7007 78.0455C31.8992 77.9194 31.7579 77.7358 31.525 77.97C31.3392 78.1569 31.4504 78.2046 31.7007 78.0455ZM31.6402 78.8488C31.7935 79.003 31.8065 78.9941 31.8065 78.7355C31.8065 78.2017 31.3352 78.5422 31.6402 78.8488ZM32.398 69.853C32.8716 70.547 32.9811 70.6395 33.124 70.4664C33.2455 70.3193 33.5764 67.721 33.4913 67.5827C33.4237 67.4726 32.0096 67.4976 31.881 67.4976C32.0146 69.1749 31.9758 69.2343 32.398 69.853ZM35.0188 77.973C34.9481 77.9443 34.8325 77.9443 34.7618 77.973C34.5899 78.0427 35.1908 78.0427 35.0188 77.973ZM31.0876 67.1107C30.3733 66.5365 30.2921 66.7286 30.8808 67.6003C31.3818 68.3422 31.4986 68.4267 31.4967 68.0464C31.4944 67.5836 31.3961 67.3587 31.0876 67.1107ZM35.3786 82.418C35.3079 82.4467 35.3658 82.4701 35.507 82.4701C35.8517 82.4702 35.5511 82.348 35.3786 82.418ZM33.6568 82.6932C33.6569 82.875 34.8911 82.7372 35.0755 82.5349C35.1238 82.4817 33.6568 82.5965 33.6568 82.6932ZM20.9725 75.0365C21.1876 75.2341 22.439 75.2223 25.63 74.9927C29.2784 74.7301 22.114 73.2541 21.5172 73.4446C21.3119 73.5101 20.8334 74.9086 20.9725 75.0365ZM25.071 73.7573C27.045 74.5867 22.9056 71.0123 22.6674 71.0123C22.5657 71.0123 21.8353 72.3509 21.8353 72.5373C21.8353 72.8053 24.7142 73.6074 25.071 73.7573ZM25.0504 72.4817C26.6956 74.1172 26.8586 74.2505 27.4354 74.4324C28.1774 74.6664 28.2086 74.6688 28.2086 74.4914C28.2086 74.2763 24.7036 68.9934 24.4014 68.9139C24.1753 68.8544 23.8874 69.1113 23.4142 69.7946C23.0033 70.3886 23.0051 70.4486 25.0504 72.4817ZM31.4987 69.565C31.98 69.565 29.1476 65.4302 28.5408 65.4302C28.2756 65.4302 27.4849 65.8581 27.2709 66.1174C26.9419 66.516 31.2755 69.565 31.4987 69.565ZM29.7748 65.722C29.7897 65.712 30.1258 65.6771 30.5215 65.6445C31.3186 65.5788 31.2799 65.6366 31.1318 64.7324C31.0767 64.396 31.0143 64.2931 30.8655 64.2931C30.6182 64.2931 29.3398 64.8726 29.3398 64.9843C29.3403 65.0976 29.7445 65.7423 29.7748 65.722ZM37.2032 65.3785C37.1013 64.3224 36.631 63.5731 36.4194 63.4592C36.0864 63.28 34.7362 63.3871 34.4886 63.6124C34.2956 63.7881 34.1803 64.2697 34.1401 65.0683C34.1129 65.6102 33.9309 65.5349 37.2032 65.3785ZM42.791 64.9735C42.4278 64.82 42.1274 64.8623 42.0449 65.0785C41.9766 65.2575 43.7693 65.3872 42.791 64.9735ZM37.2361 77.8089C37.2081 77.6103 37.1431 77.5774 36.792 77.5843C36.4715 77.5906 34.837 77.9171 35.6321 77.9313C36.4955 77.9466 36.5924 77.3696 36.9474 77.8105C37.1839 78.1043 37.2777 78.1037 37.2361 77.8089ZM32.4545 86.8811C32.6367 87.2651 32.8359 87.3599 32.8321 87.0607C32.8266 86.6271 32.0378 86.0022 32.4545 86.8811ZM29.1602 87.836C28.9805 88.316 30.4693 87.2587 30.5527 87.0343C30.5887 86.9374 29.9371 86.4147 29.7803 86.4147C29.6409 86.4146 29.2096 87.7042 29.1602 87.836ZM28.1393 89.1779C28.0682 89.06 27.1408 89.6062 26.5332 90.1237C25.4468 91.0492 25.1617 90.8931 26.164 91.6351C26.5095 91.8909 26.8273 92.1001 26.8704 92.1001C27.048 92.1001 28.2426 89.3493 28.1393 89.1779ZM23.377 88.2722C23.575 88.2704 23.8215 88.2197 23.9247 88.1593C24.0278 88.099 24.1368 88.0743 24.1669 88.1046C24.2354 88.1735 24.8045 87.9168 27.1039 86.7796C30.2189 85.2391 28.7882 86.5597 27.0941 82.3572C27.031 82.2009 26.9361 82.073 26.8831 82.073C26.742 82.073 23.3153 85.0998 22.685 85.7812C22.0107 86.5102 21.9945 86.6545 22.5803 87.5832C22.9845 88.224 23.0437 88.2751 23.377 88.2722ZM26.2041 82.0299C26.2041 81.758 24.1628 81.7579 21.6442 83.6474C21.2025 83.9789 20.8726 84.0353 21.4203 85.32C21.5315 85.581 21.686 85.7944 21.7638 85.7944C22.1653 85.7943 26.2041 82.1804 26.2041 82.0299ZM21.9895 82.9063C25.5354 81.6052 24.5985 81.7022 20.499 81.5239C20.5005 81.8034 20.4808 82.142 20.6344 82.738C20.8325 83.5061 20.8339 83.3303 21.9895 82.9063ZM21.4859 81.0339C21.6994 81.1042 22.9451 81.2457 23.1203 81.2457C25.1639 81.4196 24.9847 81.5487 25.9215 81.0671C26.6276 80.7041 26.8005 80.5143 26.5609 80.3654C26.3538 80.2367 21.9048 79.0317 20.2935 78.8716C20.2934 81.5043 20.4466 80.692 21.4859 81.0339ZM40.5633 76.8333C40.4891 76.8034 40.4004 76.8071 40.3663 76.8415C40.2955 76.9126 40.7576 76.9114 40.5633 76.8333ZM39.0734 81.6605C38.0575 81.9408 38.0276 81.9706 37.9391 80.7552C37.7937 78.7578 36.896 77.6945 37.2873 78.9393C37.5251 79.6957 37.511 80.2841 37.7336 80.8437C37.9117 81.2911 37.8427 81.7425 37.82 82.0213C37.3967 82.0683 36.6437 82.1403 36.2229 82.2618C35.4437 82.4866 36.669 82.2832 37.2074 82.2672C38.2428 82.2364 37.5261 82.1374 39.773 81.7125C43.3335 81.0392 41.7675 80.9172 39.0734 81.6605ZM46.2996 83.6249C45.9684 84.0453 45.9878 84.1512 46.3459 83.8787C46.6567 83.6423 47.7528 83.7996 46.9249 83.3691C46.6283 83.2148 46.6197 83.2183 46.2996 83.6249ZM37.1518 87.0349C37.5325 87.2822 37.5817 86.9302 37.2289 86.9331C37.0419 86.9343 37.0271 86.9538 37.1518 87.0349ZM31.8418 85.8373C32.1499 86.2246 32.3408 86.0095 32.0439 85.6097C31.8145 85.3006 31.6004 85.1985 31.6014 85.3981C31.6017 85.4739 31.7098 85.6716 31.8418 85.8373ZM29.923 87.9124C29.0079 88.4607 28.7809 88.7617 28.2856 90.0844C27.3403 92.6088 27.4737 92.586 28.3586 93.0836C29.8381 93.9156 29.1526 93.1659 29.5718 92.5364C29.8057 92.1851 30.6758 87.8429 30.6758 87.7076C30.6758 87.5788 30.3169 87.6766 29.923 87.9124ZM44.1906 86.251C43.8745 86.3308 43.8708 86.4917 44.1659 87.3366C44.3646 87.9055 44.3676 88.1862 46.3734 89.1181C46.8442 89.3369 47.2645 89.5158 47.3075 89.5158C47.5595 89.5158 48.562 88.373 48.562 88.0856C48.562 87.7626 44.6712 86.1297 44.1906 86.251ZM37.2032 87.8619C37.119 87.9988 37.4602 87.9998 37.4602 87.8619C37.4602 87.7307 37.2887 87.7226 37.2032 87.8619ZM36.801 87.9402C35.2098 88.1075 35.2332 87.916 35.8226 89.4806C36.0731 90.1456 36.3243 90.7038 36.3808 90.721C36.4857 90.753 36.8739 89.8827 37.0702 89.1754C37.1943 88.7282 37.1106 88.6307 36.801 87.9402ZM34.6482 88.2042C34.6208 88.1766 34.2476 88.1102 33.819 88.0567C30.2135 87.6066 31.2943 85.6602 30.247 90.7563C30.0103 91.9084 29.917 93.4847 30.0685 93.7711C30.1186 93.8658 30.4723 94.0439 30.8545 94.1668C31.5096 94.3776 31.7648 94.5255 31.8606 94.3698C31.9986 94.1452 32.2614 94.4359 32.3702 94.0383C32.3956 93.9455 34.7142 88.2706 34.6482 88.2042ZM50.002 72.3576C49.6992 71.7887 46.0391 72.5831 45.5172 73.0918C44.8201 73.7713 45.0364 73.6994 47.7397 73.1197C50.2846 72.574 50.1426 72.6218 50.002 72.3576ZM45.2877 72.4898C45.6294 72.437 46.7473 71.2167 47.5855 70.3479C46.7102 70.1969 46.6002 70.2242 45.5592 70.3404C44.3259 72.7581 44.2231 72.6543 45.2877 72.4898ZM44.0736 73.4345C44.2657 73.9381 44.9092 73.173 45.1184 72.9485C44.3568 73.0653 43.9434 73.0934 44.0736 73.4345ZM36.3017 92.1266C35.947 92.2456 35.6738 94.2488 35.5959 94.4733C35.5023 94.7435 35.5074 94.8279 35.6217 94.9007C35.8449 95.0429 36.5289 94.9443 37.1649 94.8779C37.0247 93.7006 36.5249 92.0518 36.3017 92.1266ZM48.4442 81.0891C48.32 81.0424 48.1075 81.2406 47.6463 81.8335C46.8854 82.8116 46.9024 82.8346 47.5342 83.2211C48.5331 83.8321 48.3346 83.2238 49.1085 83.2138C49.5458 83.2083 49.6882 82.9658 50.1635 82.9838C50.3408 82.9905 50.5734 82.9314 50.6804 82.8525C51.1486 82.5073 48.6876 81.1806 48.4442 81.0891ZM45.3459 90.6702C45.5034 91.0003 45.6555 91.2703 45.6838 91.2692C45.8054 91.2665 46.8141 90.313 46.8106 90.2043C46.8049 90.0275 45.0481 88.7995 44.7938 88.7945C44.641 88.7915 44.9495 89.8397 45.3459 90.6702ZM44.0423 88.327C41.9054 87.1016 41.8412 87.0233 41.4785 87.1504C41.0442 87.3027 41.0692 87.0835 41.6831 88.8164C42.4107 90.8705 42.6091 91.4902 42.9697 92.2294C43.1291 92.5563 43.3077 92.8233 43.3666 92.8233C43.5741 92.8225 44.585 92.1484 44.787 91.8762C45.2289 91.2805 44.2801 88.9455 44.0423 88.327ZM19.2738 73.3972C19.6995 73.6681 19.7502 73.2934 20.3129 72.3561C21.1335 70.9893 22.6066 67.8811 27.4862 64.6842C27.0275 64.1152 27.072 64.091 26.718 64.2694C22.0608 66.6167 18.7353 73.0544 19.2738 73.3972ZM61.4549 69.7015C61.189 69.506 61.048 69.59 61.0732 69.9289C61.1059 70.3662 61.2539 70.4398 61.4611 70.1217C61.6372 69.8514 61.637 69.8354 61.4549 69.7015ZM63.2775 68.8374C63.3039 68.9171 63.3867 68.8847 63.5116 68.746C63.8822 68.3341 63.2004 68.6049 63.2775 68.8374ZM56.7856 64.8666C56.7856 64.8095 55.8981 64.1898 55.8162 64.1898C55.3229 64.1898 56.7856 65.2169 56.7856 64.8666ZM54.5686 64.6953C54.7186 64.9394 55.4133 65.1843 54.7685 64.7594C54.6202 64.6617 54.5302 64.6329 54.5686 64.6953ZM63.2617 61.6054C63.127 61.6054 63.1254 61.9156 63.2617 61.9156C63.3964 61.9156 63.3981 61.6054 63.2617 61.6054ZM62.383 67.3495C62.6854 67.8137 62.5562 67.4659 63.3447 67.4284C63.8789 67.403 65.7205 67.1581 66.7567 66.9745C68.0996 66.7368 67.9903 67.0874 67.9903 66.1409C67.9903 65.4918 67.9714 65.43 67.759 65.3838C65.417 64.8741 65.2148 64.848 65.2148 65.0561C65.2148 65.194 64.0242 66.8774 63.9267 66.8774C63.9002 66.8774 63.6516 66.75 63.3742 66.5942C62.8699 66.3111 62.8697 66.3111 62.645 66.5155C62.2652 66.8612 62.2 67.0685 62.383 67.3495ZM64.4377 62.1951C64.6058 62.6358 65.3176 62.0333 65.3176 61.4504C65.3176 61.0629 65.583 60.7772 65.7586 60.5527C65.6655 60.4591 64.8316 59.5789 64.7385 59.6725C64.6416 59.7699 64.3728 62.0249 64.4377 62.1951ZM66.7987 62.3763C66.5998 62.6498 66.6162 62.7294 66.8852 62.7953C69.9492 63.5464 69.8018 63.2733 69.9016 62.7717C70.0077 62.2381 69.7328 62.1374 68.2278 62.1589C67.0909 62.1751 66.9268 62.2001 66.7987 62.3763ZM48.809 80.6531C48.724 80.7386 49.837 81.4493 50.3819 81.6573C51.0512 81.9129 51.1808 82.3052 51.2892 81.3752C51.416 80.2859 51.4496 80.3675 50.8749 80.3654C50.2911 80.3631 48.9054 80.5561 48.809 80.6531ZM59.9723 70.4574C59.9723 70.3927 59.9244 70.3988 59.8507 70.4729C59.6136 70.7114 59.9723 70.7563 59.9723 70.4574ZM69.9519 61.6214C70.248 62.1779 70.73 61.4448 70.3124 61.0963C70.1025 60.9211 69.8077 61.3505 69.9519 61.6214ZM162.917 75.8707C162.162 67.3126 153.586 60.9517 156.265 63.6894C156.732 64.1659 157.114 64.6413 157.114 64.7456C157.114 64.8692 157.166 64.9153 157.263 64.8777C157.651 64.728 160.299 68.4206 161.069 70.1853C162.671 73.8562 163.056 77.4479 162.917 75.8707ZM115.173 44.4913C115.173 44.6936 115.189 44.8592 115.207 44.8592C115.62 44.8592 115.173 43.6002 115.173 44.4913ZM83.1177 77.3686C84.1626 77.8578 84.0755 77.6799 84.1207 76.6017C82.9035 76.2325 82.795 75.9911 81.2366 75.5072C79.5709 74.99 79.7356 75.0206 79.0211 74.1998C79.0168 74.3513 79.0178 74.8098 78.9386 74.9387C78.8537 75.0769 78.0616 74.9549 77.8505 74.771C77.6629 74.6077 77.4846 74.589 77.4018 74.7238C77.1405 75.1489 77.9912 75.1328 78.7838 75.6102C79.1082 75.8056 79.9182 76.1143 80.6841 76.3343C82.4771 76.8495 82.1349 76.9085 83.1177 77.3686ZM101.406 59.0775C101.356 59.0464 101.244 59.2302 101.158 59.486C101.007 59.9296 101.01 59.956 101.205 60.061C101.481 60.2097 102.221 60.4693 102.221 60.4175C102.221 60.3294 101.492 59.1311 101.406 59.0775ZM92.4041 36.2275C94.2001 36.6581 96.5089 37.4111 98.5109 37.843C104.161 39.0619 92.4583 35.2137 91.3229 35.6601C90.8027 35.8646 90.7292 35.826 92.4041 36.2275ZM105.999 35.08C108.728 36.4784 99.7781 33.6953 98.1991 33.6953C98.1991 33.6953 102.707 36.7733 104.791 38.3483C109.29 41.7478 103.853 37.2164 101.27 35.3092C100.376 34.649 100.231 34.351 100.859 34.4671C107.457 35.6854 110.054 37.5254 106.44 34.9647C105.065 33.9898 102.697 33.3884 105.999 35.08ZM100.987 48.1326C100.988 48.2338 101.849 47.9381 102.052 47.7667C102.219 47.6264 102.286 47.34 102.151 47.34C102.073 47.3401 100.988 48.0791 100.987 48.1326ZM84.1146 64.4509C84.0354 64.3711 82.4844 64.9184 82.4844 65.026C82.4844 65.3076 84.3243 64.6617 84.1146 64.4509ZM87.4186 63.3627C87.4186 63.2287 86.9377 63.2252 86.8532 63.3627C86.767 63.503 87.4186 63.4977 87.4186 63.3627ZM88.5493 57.4706C88.6865 57.4706 88.6855 57.1275 88.5493 57.2121C88.4111 57.298 88.4186 57.4706 88.5493 57.4706ZM88.4386 55.5614C87.6781 54.3944 87.7395 54.2193 87.4066 54.4986C87.2477 54.6319 86.699 55.456 86.699 55.5614C86.699 55.6392 88.361 55.5641 88.4386 55.5614ZM88.8089 54.5813C89.1369 55.2191 89.3308 54.6754 89.5739 54.1627C88.4761 54.1627 88.5761 54.1285 88.8089 54.5813ZM91.0739 52.9222C91.1506 52.9222 91.1479 52.7155 91.0103 52.7155C90.8754 52.7154 90.9898 52.9222 91.0739 52.9222ZM93.5457 51.9334C93.4586 52.2824 93.6624 52.2823 93.7944 51.9334C93.9508 51.5195 93.6134 50.9433 93.2678 51.0342C92.8105 51.1545 93.6821 51.3873 93.5457 51.9334ZM85.9352 56.9628C85.7859 57.1035 86.0744 57.5489 86.4653 57.7808C86.9106 58.045 86.7802 58.0993 87.1617 57.4944C87.3902 57.1323 87.5345 57.0053 87.718 57.0053C87.8543 57.0053 87.9868 56.9425 88.0126 56.8656C88.0878 56.6411 86.042 56.8622 85.9352 56.9628ZM94.6152 48.9411C95.5747 47.7785 85.264 54.2066 85.2614 54.4986C85.2551 55.2279 94.429 49.1667 94.6152 48.9411ZM100.677 47.487C101.658 46.6451 102.245 46.3732 101.951 46.329C100.927 46.1745 98.1583 48.276 97.582 48.5445C96.0919 49.2387 98.8369 49.0668 100.677 47.487ZM95.7879 52.0952C96.3475 52.0952 96.1138 52.3409 96.8129 51.8485C95.5113 51.4944 95.2924 52.0952 95.7879 52.0952ZM95.4412 53.4391C95.3255 53.4391 95.2309 53.4838 95.2309 53.5384C95.2309 53.8185 94.7054 53.8254 94.901 54.3389C94.9868 54.5639 95.1635 56.4419 95.5884 53.8267C95.6441 53.4845 95.6268 53.4391 95.4412 53.4391ZM93.0649 55.2524C93.3115 55.1242 93.3807 55.0199 93.3807 54.7765C93.3807 54.1589 93.9714 53.9892 93.6814 53.6976C93.4101 53.4238 91.7579 53.7881 90.9998 54.2319C89.2881 55.234 89.7773 55.645 89.7773 56.2975C90.123 57.8511 89.9912 55.651 90.7241 55.5074C91.1636 55.4212 91.7788 54.303 92.2698 54.9643C92.5725 55.372 92.7271 55.4281 93.0649 55.2524ZM84.4889 61.1919C84.2851 61.1919 84.2851 61.3987 84.4889 61.3987C84.6926 61.3987 84.6926 61.1919 84.4889 61.1919ZM88.6241 47.7416C89.5606 48.2127 89.655 48.2326 89.9431 48.0194C90.2168 47.8168 90.2264 47.9471 88.8637 47.3206C88.0926 46.9661 87.9789 46.939 87.8419 47.0768C87.6187 47.3013 87.6629 47.258 88.6241 47.7416ZM99.2399 46.5404C99.2399 46.4486 97.7932 45.9694 97.7246 46.0384C97.6865 46.0768 99.2399 46.7237 99.2399 46.5404ZM84.6945 51.324C84.9177 51.2531 89.7553 50.4346 86.4162 50.5649C85.2489 50.6105 84.4518 50.8526 84.069 51.2778C83.791 51.5877 84.2387 51.4687 84.6945 51.324ZM96.9785 43.8254C97.1235 43.5529 97.0232 43.5483 96.8757 43.8254C96.7307 44.0978 96.831 44.1026 96.9785 43.8254ZM97.4924 42.9985C97.6374 42.7261 97.5371 42.7212 97.3896 42.9985C97.2447 43.2709 97.3449 43.2757 97.4924 42.9985ZM91.8901 42.5837C89.6897 43.8599 87.1272 45.4401 86.699 45.7848C84.1109 47.8679 103.078 36.094 91.8901 42.5837ZM80.0687 72.4077C80.2488 71.5928 80.2824 71.0538 80.1111 71.3495C79.9841 71.569 80.0506 72.1557 80.0687 72.4077ZM84.3347 50.2125C84.3347 50.4853 84.6352 50.1959 86.1266 49.9606C87.3791 49.7631 87.2478 49.8547 87.1555 49.3594C87.073 48.9172 86.8394 48.8167 86.2873 48.4494C85.416 49.0559 84.3347 49.9879 84.3347 50.2125ZM101.447 51.2518C101.558 50.7752 101.913 48.9694 101.913 48.8793C101.913 48.3604 100.567 49.8972 100.146 49.7855C99.8713 49.7127 98.5354 50.0523 98.0064 50.3294C97.3361 50.6806 96.5887 50.6095 97.5695 51.0785C98.0052 51.2869 98.2182 51.3124 99.5483 51.316C101.564 51.3213 101.37 51.5775 101.447 51.2518ZM98.0388 54.266C97.792 54.266 96.9666 58.3312 97.5794 58.7858C97.7294 58.8971 98.0891 59.0197 98.3787 59.0581C98.979 59.1378 98.9056 59.2341 99.3364 57.8016C99.9401 55.7948 98.2621 54.266 98.0388 54.266ZM89.521 74.2814C89.9568 74.2304 89.9835 74.01 89.5539 74.01C89.0754 74.01 85.9664 74.4021 85.8978 74.4712C85.6739 74.6963 89.2041 74.3185 89.521 74.2814ZM77.6626 73.7697C77.422 73.9282 77.4195 73.9407 77.6034 74.0759C78.094 74.4367 78.0987 73.9198 78.6627 74.0598C79.3182 74.2225 78.153 73.4465 77.6626 73.7697ZM112.86 37.7268C114.254 39.143 113.031 37.6555 112.822 37.4309C112.467 37.0481 112 36.8526 112.86 37.7268ZM109.462 50.1368C108.949 49.6311 99.7163 46.5936 104.739 48.7855C106.898 49.7275 107.978 50.3105 107.978 50.5347C107.978 50.7684 106.31 52.1905 105.027 53.0506C102.498 54.7457 105.836 53.1788 108.132 51.4697C109.204 50.6712 109.601 50.2739 109.462 50.1368ZM98.6336 68.7381C98.4642 68.7381 98.0064 69.5316 98.0042 69.829C98.0025 70.0535 97.8198 70.9474 97.2708 71.0655C96.8101 71.1646 96.6782 71.2872 96.4403 71.8378C96.2774 72.2148 95.9564 73.1492 95.9517 73.2606C95.9334 73.684 98.9316 70.3268 98.9316 69.4388C98.9316 69.1144 98.7715 68.7381 98.6336 68.7381ZM87.4463 76.8505C86.8686 76.9654 86.0808 76.9858 86.0204 76.8875C85.7773 76.492 85.8429 77.2349 85.6196 77.4213C85.1304 77.8295 86.0646 77.7375 86.2878 77.6649C87.4646 77.2817 88.3273 76.6751 87.4463 76.8505ZM84.5403 77.3696C84.5403 77.5543 84.5958 77.6281 84.7349 77.6281C85.3986 77.6281 84.5403 76.7008 84.5403 77.3696ZM89.7828 35.9128C89.7828 36.1254 90.912 35.7602 90.5862 35.6345C90.4401 35.5782 89.7828 35.8059 89.7828 35.9128ZM114.885 40.4383C114.664 40.3642 114.753 40.5743 115.302 41.424C116.976 44.0168 114.985 40.4719 114.885 40.4383ZM114.249 45.8216C112.367 47.6018 111.564 48.0256 110.249 47.9321C105.822 47.6172 111.205 46.6545 108.597 45.3255C108.052 45.0478 106.555 44.6008 106.467 44.6893C106.414 44.743 107.1 45.0658 107.267 45.0658C107.49 45.0658 108.831 46.1295 107.373 47.0299C107.143 47.1721 106.954 47.3168 106.952 47.3516C106.949 47.4221 109.268 48.0902 110.116 48.2628C111.492 48.5432 112.282 48.2835 113.273 47.2251C114.057 46.388 116.241 43.9372 114.249 45.8216ZM134.868 95.0411C135.298 95.1222 135.264 95.0292 135.847 94.3337C136.035 94.1091 138.405 90.3332 138.405 89.5657C138.405 89.3014 138.363 89.1006 138.312 89.1196C138.089 89.2027 135.162 91.858 133.06 94.1399C132.845 94.3734 132.441 95.3768 132.387 94.1503C132.348 93.2641 132.378 93.8086 133.332 93.0476C133.871 92.6181 138.305 88.5183 138.429 88.3351C138.47 88.2738 138.505 88.0282 138.506 87.7893C138.508 87.2411 138.611 87.4764 136.449 85.7901C136.226 85.9554 135.964 86.1958 135.409 86.2714C134.941 86.3352 134.93 86.3302 134.863 86.021C134.497 84.3478 133.269 87.5961 130.592 91.3771C129.94 92.2981 132.452 92.8372 131.984 93.7467C131.894 93.9214 131.745 94.0643 131.653 94.0643C131.219 94.0643 129.365 92.3314 128.097 90.7405C125.771 87.8216 124.454 84.1779 125.555 85.5063C125.326 84.2159 125.294 84.0249 124.96 84.0598C124.714 84.0854 124.678 84.0498 124.649 83.7522C124.585 83.0845 125.582 83.3873 124.318 81.9046C124.068 81.612 124.029 81.45 123.91 80.2054C123.806 79.1163 123.81 75.6269 123.81 75.6269C122.804 76.7102 122.54 90.2391 132.328 95.1979C133.492 95.7877 133.53 95.2014 134.101 95.2014C134.582 95.2013 134.322 94.9383 134.868 95.0411ZM144.74 96.5408C145.029 95.9257 145.07 95.6977 145.445 92.617C145.868 89.1348 146.025 89.4629 145.283 88.4841L143.96 88.5479C143.852 89.8169 143.846 89.8943 143.96 88.5479C143.346 88.5776 142.46 88.5967 141.858 88.4913C141.469 88.4232 141.113 88.4052 141.067 88.4512C140.772 88.7479 141.694 96.1666 141.694 96.3913C141.694 96.7913 141.903 96.9586 142.401 96.9586C142.759 96.9586 142.81 96.8951 142.974 96.2483C143.085 95.8126 143.231 95.6494 143.346 95.7615C143.463 94.3879 143.462 94.4047 143.346 95.7615C143.523 95.9331 143.514 96.6294 143.673 96.8294C143.875 97.0841 144.574 96.8952 144.74 96.5408ZM148.562 96.125C148.806 96.1024 150.377 95.4188 150.409 95.3209C150.543 94.9171 147.861 91.7649 147.559 91.4282C147.545 92.879 148.211 96.1575 148.562 96.125ZM153.2 77.0511C153.507 77.1407 153.831 77.2119 153.92 77.2091C154.106 77.2033 155.366 76.4795 155.366 76.3782C155.366 76.2435 152.519 76.0588 152.385 76.0486C152.385 76.5337 152.326 76.7958 153.2 77.0511ZM153.092 77.7414C153.267 77.6299 153.176 77.4643 152.901 77.3918C152.411 77.2631 152.598 78.0563 153.092 77.7414ZM161.392 79.0117C161.49 78.6172 161.38 77.1429 161.239 76.9722C160.89 76.5492 156.659 76.4013 156.137 76.3768C153.954 77.6752 153.684 77.2343 158.655 78.695C161.422 79.5077 161.336 79.2362 161.392 79.0117ZM122.904 33.7108C123.625 33.9168 124.844 33.6295 123.841 33.4402C122.858 33.2548 122.372 31.4628 121.856 32.0024C121.718 32.1462 122.631 33.6326 122.904 33.7108ZM117.846 30.4184C117.846 30.1975 117.669 30.2664 117.605 30.5121C117.468 31.0403 117.846 30.6429 117.846 30.4184ZM127.862 89.7226C127.946 89.7226 128.061 89.5159 127.926 89.5159C127.788 89.5158 127.785 89.7226 127.862 89.7226ZM151.738 94.7658C153.651 93.7489 153.365 93.7326 153.094 93.486C152.87 93.2824 148.112 87.7277 147.65 87.5679C146.636 87.2174 147.281 90.3526 147.532 90.7563C147.756 91.1174 149.085 92.7597 149.519 93.3416C150.87 95.1559 151.285 95.007 151.738 94.7658ZM156.551 90.9631C156.772 90.9631 157.936 89.4321 157.936 89.1416C157.936 88.7232 154.561 85.5543 154.338 85.4363C154.074 85.2966 152.686 85.0439 152.609 85.1214C152.43 85.3013 155.555 89.8967 155.853 90.2652C156.163 90.649 156.478 90.9631 156.551 90.9631ZM155.283 85.6371C155.207 85.7131 157.061 87.5145 157.628 87.9152C158.451 88.4977 158.378 88.5514 158.636 88.272C158.898 87.9896 159.478 86.9014 159.478 86.6926C159.478 86.3539 155.462 85.4564 155.283 85.6371ZM157.523 67.1566C157.521 66.922 156.174 65.4302 155.964 65.4302C155.528 65.4302 154.207 66.4134 151.767 68.1695C151.653 68.4712 151.198 69.6615 151.107 69.9527C150.985 70.3437 150.874 70.3804 153.927 69.0263C156.453 67.906 157.525 67.3484 157.523 67.1566ZM152.205 67.2118C152.262 67.3855 155.529 65.0949 155.295 64.718C155.109 64.4183 153.92 63.4583 153.815 63.5234C153.371 63.7994 152.141 67.021 152.205 67.2118ZM148.701 62.5358C147.466 62.5358 149.323 60.8552 148.271 60.6229C147.668 60.4896 147.472 60.6105 146.106 63.3293C146.055 63.9237 146.052 63.9627 146.106 63.3293C143.775 67.9683 143.996 67.2331 144.711 69.4419C145.303 69.559 145.365 69.5682 145.571 69.6182C145.833 66.5385 145.82 66.6926 145.571 69.6182C145.873 69.6915 146.214 69.7942 146.416 69.8754C147.841 70.4496 147.641 70.8332 148.271 68.6864C150.477 61.1641 150.599 61.5017 149.986 61.2441C149.538 61.0558 149.263 61.1365 149.34 61.4335C149.398 61.6582 149.156 62.5358 148.701 62.5358ZM146.377 60.1406C144.156 59.6259 144.59 59.4899 143.258 65.1709C143.295 65.2712 143.847 66.8774 143.954 66.8774C144.04 66.8774 145.348 64.2714 146.175 62.5166C146.416 59.6802 146.414 59.7033 146.175 62.5166C147.308 60.1125 147.083 60.3042 146.377 60.1406C146.347 60.4972 146.349 60.4704 146.377 60.1406ZM129.41 78.5059C129.407 78.4248 129.349 76.5567 129.294 76.4975C129.221 76.4186 126.138 76.8243 125.71 76.9691C124.903 77.2418 124.623 76.8617 124.641 78.2814C124.646 78.7464 124.682 79.2397 124.721 79.3776C124.838 79.8016 124.76 79.8758 129.41 78.5059ZM126.686 86.8218C126.686 86.8584 126.91 87.2818 127.185 87.7627C127.976 89.1515 127.915 88.6087 128.428 88.2928C128.685 88.1345 131.525 85.1471 131.396 85.0171C131.262 84.8828 126.686 86.6364 126.686 86.8218ZM139.433 88.1497C139.433 87.9362 138.6 88.7098 138.788 89.0491C138.913 89.2736 139.433 88.3156 139.433 88.1497ZM150.077 71.219C149.854 71.219 149.067 71.4328 149.66 71.8671C149.907 72.0476 149.913 72.046 150.068 71.743C150.266 71.3593 150.268 71.219 150.077 71.219ZM143.842 68.281C143.758 68.1876 143.346 68.9678 143.341 69.229C143.338 69.3982 144.161 69.4168 144.161 69.2187C144.161 69.027 143.947 68.3976 143.842 68.281ZM140.87 60.0025C140.667 59.9378 138.971 60.2263 138.702 60.3712C138.166 60.6595 138.669 61.1426 141.518 67.6527C142.056 68.8829 141.88 69.0479 142.842 65.1284C142.383 63.684 141.322 60.1467 140.87 60.0025ZM124.86 76.3507C125.324 76.6392 129.401 76.0639 129.437 75.8708C129.475 75.6691 125.613 74.0934 125.198 74.2532C125.056 74.3083 124.628 76.2066 124.86 76.3507ZM135.921 81.0734C136.106 81.5639 136.246 81.6135 136.246 81.1886C136.246 80.8256 135.492 79.9374 135.921 81.0734ZM144.073 87.2254C144.184 87.2425 144.201 87.1648 144.09 87.0236C144.081 87.1233 144.081 87.1277 144.09 87.0236C143.57 86.3611 143.363 87.1167 144.073 87.2254C144.087 87.0581 144.087 87.0582 144.073 87.2254ZM144.982 87.6009C145.144 87.7976 145.292 87.8041 145.292 87.6145C145.292 87.3697 144.662 87.2133 144.982 87.6009ZM151.622 77.1186C151.41 77.343 150.698 78.5583 151.086 78.5583C151.42 78.5583 152.167 76.5402 151.622 77.1186ZM150.451 75.2239C150.632 76.1598 151.206 74.2168 150.81 74.2168C150.638 74.2168 150.391 74.9112 150.451 75.2239ZM131.62 80.158C131.62 80.02 131.736 79.9514 132.315 79.7472C132.41 79.7136 132.389 79.6124 132.238 79.3626C131.896 78.798 132.156 78.3516 131.858 78.3516C131.516 78.3516 130.47 78.697 130.42 78.8262C130.348 79.0166 130.87 79.8662 131.209 80.1089C131.556 80.3571 131.62 80.3648 131.62 80.158ZM143.894 85.5712C143.984 85.4412 144.059 85.2886 144.059 85.2321C144.059 84.9923 143.712 84.2437 143.601 84.2437C143.449 84.2437 143.008 84.739 142.903 84.8493L143.11 85.1409C143.671 85.9328 143.738 85.7957 143.894 85.5712ZM148.494 77.1602C148.552 77.2187 149.609 76.573 149.609 76.4789C149.609 76.4032 149.235 76.2872 148.983 76.285C148.772 76.2832 148.417 77.0832 148.494 77.1602ZM148.427 75.2505C148.768 75.2505 148.768 75.0437 148.427 75.0437C148.087 75.0437 148.086 75.2505 148.427 75.2505ZM147.1 77.9382C147.189 77.9382 147.244 77.883 147.222 77.8154C147.071 77.3606 146.737 77.9382 147.1 77.9382ZM145.254 73.3464C144.185 73.6687 144.021 74.2167 144.719 74.2167C144.869 74.2167 145.024 74.2615 145.169 74.3385C145.192 74.0722 145.192 74.0737 145.169 74.3385C145.241 74.3767 145.311 74.4203 145.376 74.4752C145.716 74.7628 145.766 74.779 145.857 74.6311C145.943 74.4906 145.585 73.3771 145.434 73.3191C145.407 73.3086 145.341 73.32 145.254 73.3464C145.162 74.4261 145.165 74.3813 145.254 73.3464ZM143.405 74.2884C143.18 74.5143 143.57 74.5535 143.879 74.6813C144.456 74.9204 143.551 74.1419 143.405 74.2884ZM142.414 84.1602C142.414 84.4417 142.747 84.3889 143.063 84.0573C143.858 83.2224 142.414 83.54 142.414 84.1602ZM141.821 80.7033C142.313 81.3516 142.294 81.3052 142.569 81.1028C142.76 80.9623 142.76 80.9511 142.567 80.5085C141.336 77.6901 139.871 78.1355 141.821 80.7033ZM146.207 73.8291C146.563 74.7675 147.39 72.3777 146.259 72.8963C145.978 73.0247 145.969 73.2 146.207 73.8291ZM141.895 84.8729C141.601 85.4261 142.208 84.9512 142.208 84.7266C142.208 84.5743 142.003 84.6701 141.895 84.8729ZM141.843 83.5149C142.087 83.7454 142.088 83.7455 142.2 83.5368C142.261 83.4214 142.311 83.2775 142.311 83.2169C142.311 83.0863 141.731 83.0671 141.652 83.1951C141.622 83.2437 141.708 83.3876 141.843 83.5149ZM143.043 73.374C143.636 73.7292 143.667 73.6712 143.323 72.8405C143.004 72.07 142.884 71.9602 142.623 72.1982C142.227 72.5586 142.375 72.9743 143.043 73.374ZM148.316 76.0884C148.133 75.9213 147.517 75.7632 147.421 75.859C147.233 76.0482 147.437 77.628 147.701 77.628C147.881 77.6281 148.449 76.2091 148.316 76.0884ZM142.562 85.1495C142.453 85.2413 141.866 85.7001 141.971 85.7962C142.087 85.9031 143.024 85.9923 143.079 85.902C143.137 85.8077 142.632 85.2346 142.562 85.1495ZM141.633 83.9474C140.736 82.5254 140.534 83.277 140.733 84.9416C140.816 85.6337 140.943 85.6983 141.436 84.8518C141.794 84.2374 141.8 84.2117 141.633 83.9474ZM140.212 83.4303C140.15 83.3293 140.054 83.3683 139.822 83.5892C138.723 84.6357 140.07 85.2772 140.294 85.2772C140.402 85.2776 140.329 83.6204 140.212 83.4303ZM139.79 87.0391C139.866 86.9148 139.158 85.4843 139.02 85.4843C138.637 85.4843 139.544 87.4397 139.79 87.0391ZM144.037 73.1831C144.187 73.1831 145.183 72.4103 145.186 72.2909C145.193 72.0502 143.442 71.8105 143.442 71.9815C143.442 72.0714 143.935 73.1831 144.037 73.1831ZM144.242 70.5215C145.285 71.5709 144.263 69.628 143.927 69.966C143.837 70.0565 143.914 70.1916 144.242 70.5215ZM146.941 70.8124C146.822 70.5903 146.622 70.5654 146.556 70.7645C146.436 71.1271 147.229 71.355 146.941 70.8124ZM147.275 71.5938C147.185 71.5033 147.04 71.6268 147.04 71.7937C147.04 72.1492 147.448 71.7676 147.275 71.5938ZM149.059 73.5664C149.175 74.0319 149.494 73.8219 149.309 72.8187C149.187 72.1505 149.123 72.0167 148.973 72.1099C148.777 72.2315 149.059 73.3661 149.059 73.5664ZM147.105 81.9955C146.909 83.4102 146.908 83.4871 147.089 83.5567C147.305 83.64 148.084 83.721 148.342 83.7515C150.011 81.6799 149.501 81.8515 148.273 81.6613C147.183 81.4923 147.174 81.4947 147.105 81.9955ZM145.428 83.148C145.489 83.3067 145.812 83.376 145.932 83.2559C146.025 83.1619 145.895 82.7965 145.768 82.7982C145.543 82.8013 145.366 82.9842 145.428 83.148ZM131.783 65.9833C131.64 65.6061 130.992 64.4998 130.914 64.4998C130.812 64.4998 130.413 64.9506 130.343 65.025C130.679 65.3256 131.977 66.4933 131.783 65.9833ZM129.345 66.0246C128.89 66.5095 128.228 67.3423 128.228 67.4293C128.228 67.5787 129.182 68.1071 131.183 69.0653C133.62 70.2321 133.36 70.1697 133.62 69.8802C133.896 69.574 132.312 66.855 132.089 66.7304C130.041 65.5874 129.957 65.3723 129.345 66.0246ZM135.372 75.1457L135.681 75.1433C136.555 75.1362 136.709 74.2558 135.372 75.1457ZM130.701 74.6785C130.649 74.7104 130.552 74.9064 130.484 75.1141C130.374 75.4469 130.382 75.508 130.547 75.6295C130.817 75.8279 131.929 75.7763 131.929 75.5655C131.929 75.4292 130.802 74.6155 130.701 74.6785ZM136.891 81.2863C137.169 81.0076 136.555 80.283 136.555 80.745C136.555 81.0358 136.78 81.3982 136.891 81.2863ZM132.627 76.4651C134.114 77.0451 132.779 76.0831 132.366 76.0797C131.871 76.0756 131.958 76.2044 132.627 76.4651ZM133.517 75.988C133.349 75.9554 133.342 75.9728 133.461 76.1172C133.799 76.5276 133.905 76.0636 133.517 75.988ZM131.06 74.2247C131.097 74.285 131.472 74.6102 131.895 74.9474C134.707 77.1949 132.086 72.8202 131.762 73.0906C131.476 73.329 130.991 74.1127 131.06 74.2247ZM133.549 75.173C133.617 75.3293 133.708 75.4502 133.751 75.4418C134.904 75.2162 134.276 75.0085 135.645 73.1769C134.421 70.874 134.635 71.1258 133.741 70.8169C131.538 73.2186 132.212 72.0789 133.549 75.173ZM133.241 77.2981C133.19 77.1423 130.997 76.2899 130.644 76.2885C130.112 76.2864 130.047 76.3935 130.056 77.2539C130.06 77.6847 130.093 78.0847 130.129 78.1427C130.307 78.4336 133.301 77.4766 133.241 77.2981ZM149.829 77.0078C149.635 77.0078 148.068 78.0332 148.068 78.1604C148.068 78.3778 148.831 79.3482 149.13 79.5102C149.563 79.7449 149.579 79.7426 149.926 79.3932C150.533 78.7826 150.068 77.0078 149.829 77.0078ZM148.093 85.0959C148.188 85.3839 150.021 85.0556 150.021 84.7403C150.021 84.5462 148.009 84.8433 148.093 85.0959ZM147.373 86.5438C147.421 86.6886 147.781 86.7718 147.889 86.6629C148.138 86.4131 147.298 86.3128 147.373 86.5438ZM147.22 84.0853C146.915 84.0291 146.834 84.0464 146.834 84.1678C146.834 84.755 146.426 85.3007 147.324 84.6338C147.807 84.275 147.791 84.1908 147.22 84.0853ZM146.332 82.1108C146.163 82.3154 146.378 84.1846 146.579 82.5641C146.653 81.9663 146.572 81.8191 146.332 82.1108ZM145.577 84.3387C145.651 84.7704 145.988 85.1632 146.148 85.0026C146.669 84.4786 145.334 82.9034 145.577 84.3387ZM141.707 87.3059C142.36 87.9692 142.461 88.0368 142.557 87.8798C142.75 87.5658 139.951 85.5248 141.707 87.3059ZM137.202 83.7346C137.092 83.2893 136.799 83.1677 136.901 83.5322C136.939 83.6677 137.021 84.1619 137.084 84.6303C137.289 86.1585 137.882 86.4772 137.202 83.7346ZM128.023 74.6785C128.825 74.9931 129.523 75.2505 129.573 75.2505C129.65 75.2505 130.181 74.3133 130.181 74.1763C130.181 74.0394 126.366 71.1619 126.135 71.2511C126.002 71.3024 125.507 72.5753 125.388 73.1705C125.333 73.4465 125.103 73.5338 128.023 74.6785ZM130.371 73.6999C130.568 73.6999 131.52 72.2839 131.493 72.0321C131.472 71.8367 131.515 71.7875 131.708 71.7875C132.049 71.7875 133.055 70.5714 132.997 70.4778C132.859 70.2533 128.927 68.4407 127.787 68.0799C127.069 68.9844 126.481 70.2826 126.481 70.4078C126.481 70.8101 130.148 73.6999 130.371 73.6999ZM138.713 77.3001C138.713 77.238 131.157 62.7949 130.938 62.5439C130.237 61.739 138.715 78.5119 138.713 77.3001ZM141.188 70.3495C141.326 70.5165 141.451 70.5363 141.533 70.4037C141.695 70.1397 140.881 69.9772 141.188 70.3495ZM143.13 66.1184C143.066 66.0464 142.311 68.9443 142.311 69.26C142.311 69.4035 142.679 69.3802 142.801 69.229C142.932 69.0644 143.575 67.7515 143.671 67.5594C143.594 67.3349 143.228 66.23 143.13 66.1184ZM150.343 82.7966C149.863 82.7966 149.161 83.7566 150.201 83.2364C150.565 83.054 150.648 82.7966 150.343 82.7966ZM139.038 87.6134C138.938 87.5516 138.816 87.6411 138.816 87.7757C138.816 87.998 139.239 87.7387 139.038 87.6134ZM139.728 69.9659C139.931 69.9507 141.76 69.459 141.716 69.2452C141.669 69.0206 138.329 60.675 137.694 60.675C137.471 60.675 136.483 60.9766 135.854 61.3907C136.025 61.9299 136.327 62.828 136.406 63.4794C136.504 64.2904 139.5 69.983 139.728 69.9659ZM142.462 62.7335C143.079 64.595 142.939 64.7612 143.48 62.5336C143.897 60.8115 143.878 60.3846 143.904 59.8998C141.457 59.8282 141.304 59.2373 142.462 62.7335ZM148.396 69.9363C148.44 70.1344 151.22 68.0252 151.587 67.7561C153.513 62.6951 153.411 63.0815 152.12 62.3036C150.656 61.4219 150.928 61.9045 150.68 62.3807C150.399 62.92 148.347 69.7118 148.396 69.9363ZM151.021 68.7664C150.734 68.8771 148.376 70.6475 148.376 70.7522C148.376 70.8139 148.51 70.9441 148.674 71.0417C149.086 71.2862 148.778 71.3428 150.573 70.4437C151.163 68.8644 151.253 68.6769 151.021 68.7664ZM152.048 79.592C151.912 79.592 150.637 80.8321 150.637 80.9645C150.637 81.4951 152.642 79.592 152.048 79.592ZM152.134 84.5397C152.153 84.5603 152.46 84.6401 152.816 84.717C153.708 84.9093 154.08 85.1043 152.733 83.874C151.899 83.1125 151.839 83.0767 151.705 83.2608C151.627 83.3683 151.563 83.5107 151.563 83.5772C151.563 83.6725 151.97 84.3578 152.134 84.5397ZM151.175 84.2632C151.239 84.4549 151.46 84.4866 151.46 84.3041C151.46 84.086 151.12 84.0967 151.175 84.2632ZM150.941 82.4495C150.867 82.5244 150.88 82.5955 150.984 82.682C151.358 82.994 151.228 82.1614 150.941 82.4495ZM151.822 84.9447C150.782 84.2097 150.267 85.6828 148.749 86.7765C148.433 87.0039 148.174 87.2476 148.173 87.3182C148.169 87.5427 153.378 93.2372 153.97 93.2372C154.354 93.2372 155.88 91.8859 155.88 91.5459C155.88 90.7592 152.189 85.204 151.822 84.9447ZM146.266 88.6391C146.19 89.2252 146.213 89.1697 146.928 89.981C146.959 87.6892 146.266 87.6124 146.266 88.6391ZM145.806 88.4821C145.942 88.4821 145.942 88.2754 145.806 88.2754C145.67 88.2753 145.67 88.4821 145.806 88.4821ZM138.689 90.3507C138.597 96.9622 138.388 96.4318 139.708 96.6428C141.403 96.9136 141.528 98.0668 140.811 90.2394C140.556 87.4512 140.482 87.2534 138.689 90.3507ZM134.545 80.2701C133.757 80.3889 134.151 80.7521 134.899 80.4759C135.363 80.3049 135.147 80.1794 134.545 80.2701ZM134.478 82.6801C134.334 82.8875 133.744 83.0794 133.721 83.1182C133.631 83.2637 133.989 83.205 134.58 82.9775C135.618 82.5771 134.726 82.3241 134.478 82.6801ZM133.458 84.9117C133.026 84.7737 133.564 84.2668 132.931 84.4021C132.747 84.4414 132.51 84.5498 132.403 84.643C132.027 84.9704 128.922 88.4322 128.866 88.5854C128.492 89.6175 127.851 88.9069 129.01 90.3335C130.177 91.7693 129.602 91.7265 133.455 86.307C133.938 85.6265 133.682 84.9831 133.458 84.9117ZM126.301 85.9753C126.65 86.4175 131.886 84.2438 132.129 84.2438C132.463 84.2438 132.202 83.7424 132.1 83.5178C129.487 83.5778 126.109 83.5903 125.572 83.9953C125.521 84.0335 126.179 85.8216 126.301 85.9753ZM125.36 83.0493C125.884 83.6043 132.202 83.1529 132.425 83.0141C133.026 82.6408 130.898 81.4155 129.885 79.4112C129.763 79.1696 129.604 78.9719 129.531 78.9719C129.243 78.9719 125.938 79.9265 125.405 80.1636C124.743 80.458 124.745 80.4456 125.003 81.9031C125.107 82.496 125.241 82.9232 125.36 83.0493ZM130.027 63.3483C129.914 63.4049 129.545 63.7337 129.208 64.0789C127.468 65.8595 130.444 63.1397 130.027 63.3483ZM122.615 43.6855C123.158 44.7546 123.344 45.0435 123.237 44.6524C123.039 43.924 121.431 41.3522 122.615 43.6855ZM122.212 37.3909C122.123 36.8491 122.097 36.8191 121.892 37.025C121.742 37.1754 121.745 37.2169 121.917 37.5098C122.179 37.9567 122.297 37.9091 122.212 37.3909ZM121.424 37.3069C121.365 37.1274 121.095 37.0362 121.155 37.2165C121.214 37.3959 121.484 37.4871 121.424 37.3069ZM129.257 55.8962C129.254 55.0507 117.679 34.1372 127.251 52.958C130.543 59.4316 129.26 56.5987 129.257 55.8962ZM120.364 39.2774C120.282 39.4117 120.485 39.4163 120.57 39.2774C120.652 39.1431 120.45 39.1384 120.364 39.2774ZM118.668 29.0952C118.668 28.8899 118.463 28.8899 118.463 29.0952C118.463 29.3005 118.668 29.3005 118.668 29.0952ZM118.257 31.5446C118.257 33.2599 119.277 29.7672 118.778 29.7672C118.624 29.7672 118.257 31.0184 118.257 31.5446ZM118.437 32.961L118.742 33.5035C118.909 33.8019 119.1 34.0641 119.166 34.0862C119.345 34.1462 120.102 32.4787 120.174 31.8649C120.226 31.4268 120.197 31.2693 120.009 30.9641C119.369 29.9211 119.919 31.315 118.437 32.961ZM120.485 33.1484C119.633 35.326 118.575 35.2625 121.756 34.1184C121.758 34.1103 121.76 34.1016 121.761 34.0923C120.784 32.3081 120.842 32.2356 120.485 33.1484ZM125.041 40.8031C124.66 40.8432 123.18 41.4594 123.127 41.6002C123.027 41.8616 127.873 50.8077 128.89 52.8188C129.437 53.899 129.449 53.909 129.934 53.6588C130.481 53.3769 131.033 53.3455 131.52 54.6328C131.604 54.8573 133.64 57.5069 126.535 43.2569C125.386 40.9514 125.28 40.7779 125.041 40.8031ZM150.894 70.7756C149.88 72.8089 150.154 71.9938 151.479 74.237C151.707 74.6238 151.947 74.9404 152.011 74.9394C152.234 74.9375 156.919 71.9066 159.426 70.0998C157.885 67.1185 158.986 67.1774 150.894 70.7756ZM159.744 70.9302C159.418 70.5905 152.084 75.3955 152.2 75.5128C152.225 75.5373 153.005 75.6277 153.934 75.7136C156.084 75.9126 156.378 75.9089 156.754 75.6779C158.307 74.7238 160.593 73.7127 160.471 72.8316C160.404 72.3521 159.938 71.1328 159.744 70.9302ZM159.929 74.3202C159.747 74.3202 157.479 75.5784 157.233 75.8156C156.925 76.1124 160.03 76.1787 161.123 76.0656C161.123 73.1116 160.498 74.3202 159.929 74.3202ZM152.925 83.4722C154.696 85.198 154.087 85.0367 158.45 85.8268C158.819 85.8937 159.881 85.7735 159.98 85.6537C160.156 85.4399 160.724 83.5941 160.637 83.5166C160.409 83.3134 158.208 82.9346 154.955 82.5385C152.254 82.2099 151.189 81.7811 152.925 83.4722ZM146.93 90.6031C146.584 90.0626 146.229 89.6761 146.151 89.7549C145.97 89.9363 145.409 95.3711 145.409 95.9508C145.414 96.704 145.428 96.7513 145.636 96.7415C146.049 96.7221 147.502 96.4182 147.614 96.3278C147.885 96.1098 147.295 91.1733 146.93 90.6031ZM137.977 96.0967C138.275 95.724 138.461 90.9512 138.164 91.2768C137.96 91.5014 135.602 95.3 135.952 95.5221C136.124 95.6313 137.834 96.275 137.977 96.0967ZM113.183 25.4576C112.999 25.272 112.596 25.7357 112.957 25.7357C113.121 25.7357 113.273 25.5482 113.183 25.4576ZM110.608 21.0291C109.844 22.0363 111.419 21.6684 112.006 21.8338C112.465 21.9632 112.437 21.738 111.926 21.1886C111.323 20.5404 111.008 20.5022 110.608 21.0291ZM111.63 26.1645C110.947 26.0322 114.937 33.0751 115.126 33.0751C115.213 33.0751 111.769 26.1915 111.63 26.1645ZM159.221 79.2461C153.182 77.3792 154.06 77.5411 152.745 78.4055C152.707 79.0277 152.638 80.572 152.454 81.1686C152.37 81.4388 152.338 81.6819 152.381 81.7088C152.604 81.8475 160.465 83.0296 160.868 82.624C161.068 82.4233 160.99 82.4689 161.186 81.3038C161.355 80.2968 161.726 80.0206 159.221 79.2461ZM75.2445 54.4593C76.0969 53.3057 76.1769 53.0255 75.6541 53.0255C75.3489 53.0255 75.0336 53.4439 75.1119 53.745C75.1817 54.0139 74.3182 55.7128 75.2445 54.4593ZM110.384 24.1995C110.548 23.9337 110.033 23.4849 110.033 23.8656C110.033 24.0945 110.296 24.3439 110.384 24.1995ZM127.084 34.2307C126.812 34.3089 124.316 35.0033 124.18 35.1405C124.05 35.2714 124.178 35.2218 130.233 35.0908C129.017 34.7113 128.799 34.6618 127.084 34.2307ZM156.235 94.0289C157.261 93.1168 158.627 91.4103 158.464 91.2458C158.069 90.8486 156.383 93.1414 153.379 95.066C152.331 95.737 150.619 96.6219 149.816 96.9068C148.995 97.1978 147.453 97.9415 147.404 98.0698C147.203 98.5944 152.253 97.5699 156.235 94.0289ZM52.4142 82.5899C52.2688 82.5899 52.2198 82.4247 52.2557 82.0563C52.4 80.5783 51.4191 84.8471 50.2088 87.1065C48.5652 90.1744 46.1355 92.6448 43.0625 94.3728C42.0551 94.9392 42.0496 94.9454 42.5338 94.9583C43.011 94.971 43.4376 94.6844 43.4376 94.6844C43.6793 94.6844 43.2673 95.1586 44.0938 94.7024C51.4019 90.6693 52.8587 82.5899 52.4142 82.5899ZM61.9146 65.7605C62.0356 65.5331 61.942 65.3597 61.6721 65.3113C61.1428 65.2165 61.5968 66.3578 61.9146 65.7605ZM113.207 20.406C115.181 21.1129 110.929 17.9253 110.74 18.0425C110.691 18.0732 110.65 18.3974 110.65 18.7627C110.65 20.0397 111.627 19.84 113.207 20.406ZM114.866 25.9948C114.808 25.9587 114.79 26.0001 114.826 26.0921C114.965 26.4563 115.025 26.094 114.866 25.9948ZM119.675 20.3604H119.948C118.931 19.3369 119.253 20.3604 119.675 20.3604ZM129.273 59.6399C129.155 59.4151 121.484 44.7139 121.136 44.4978C120.723 44.2413 126.015 54.0138 128.692 59.3758C129.651 61.2954 129.539 60.1481 129.273 59.6399ZM54.9797 78.2881C54.8609 78.3216 53.1884 78.6805 53.1274 78.7799C53.0489 78.9075 52.9065 78.8783 54.9867 78.4571C56.2521 78.2008 55.9799 78.0055 54.9797 78.2881ZM104.988 12.7218C105.266 13.2559 105.545 13.8906 105.609 14.1322C105.672 14.3738 105.74 14.5715 105.76 14.5715C105.824 14.5715 105.922 14.2515 105.922 14.0409C105.922 12.6496 103.455 9.7778 104.988 12.7218ZM120.587 21.7834C120.587 21.8347 120.675 22.0355 120.737 22.0737C121.033 22.2582 120.462 21.284 120.587 21.7834ZM62.5936 76.6971C62.1159 76.6971 62.1161 76.9039 62.5936 76.9039C63.0713 76.9039 63.0709 76.6971 62.5936 76.6971ZM59.0471 76.0168C59.0471 76.2901 58.9281 76.5938 59.0149 76.5938C59.0657 76.5938 59.1568 76.4077 59.2172 76.1803C59.3802 75.566 59.0471 75.7244 59.0471 76.0168ZM44.8363 53.3161C44.955 53.3337 45.1074 53.4151 45.1749 53.4969C45.2883 53.6342 45.6837 53.7107 45.6837 53.5953C45.6837 53.4999 44.8652 53.0255 44.7007 53.0255C44.4624 53.0255 44.5803 53.278 44.8363 53.3161ZM100.027 9.47851C98.8693 6.69107 99.8029 5.16899 98.2634 5.00961C98.2251 6.40914 98.308 9.20026 99.255 10.2223C99.4022 10.3812 99.5788 10.4361 99.9378 10.4351C101.188 10.431 100.297 10.1262 100.027 9.47851ZM120.915 21.2907C120.73 21.2907 121.298 22.4908 121.529 22.5868C121.806 22.7021 122.369 22.824 122.369 22.7687C122.369 22.68 121.003 21.2907 120.915 21.2907ZM105.14 61.2522C104.989 60.8577 104.739 61.2607 105.08 61.375C105.155 61.4002 105.178 61.3529 105.14 61.2522ZM33.7124 49.9175C33.8047 49.7673 33.7023 49.656 33.6213 49.8682C33.5518 50.0504 33.6111 50.0824 33.7124 49.9175ZM83.1771 45.01C82.9453 44.9525 82.9046 44.9694 82.9553 45.1022C83.0815 45.433 81.3537 46.1439 81.3537 46.3684C81.3537 46.4223 81.2499 46.4714 82.5165 45.8178C83.7202 45.1966 83.7124 45.143 83.1771 45.01ZM47.2809 36.6378C50.5108 37.7904 47.6295 37.6118 50.7127 38.5936C52.7842 39.2533 53.655 40.3251 53.5693 40.5496C53.4686 40.8135 53.1427 40.6501 53.0268 40.8388C52.9331 40.9912 53.5683 40.8597 53.878 40.6625C54.2152 40.4479 54.4356 40.4778 55.8 40.9234C58.3502 41.7563 61.8981 42.598 59.4068 41.8324C60.2677 41.536 60.4435 41.9719 60.0126 41.3281C58.9674 39.7663 61.1391 41.039 61.413 41.8653C61.5099 42.1005 61.6052 42.1715 61.824 42.1715C62.9241 42.1715 60.933 40.3709 60.2993 40.1156C59.3101 39.7171 46.7684 36.246 46.5613 36.3134C46.5069 36.3311 46.8307 36.4771 47.2809 36.6378ZM60.439 79.3078C61.2222 80.1549 61.6379 79.3853 62.0796 79.3853C62.1994 79.3853 62.3838 79.3217 62.4894 79.2441C62.6625 79.1167 62.6158 79.0913 62.0157 78.9862C59.6613 78.5738 59.9436 78.7719 60.439 79.3078ZM45.8026 51.1231C45.7032 51.0613 45.581 51.1508 45.581 51.2855C45.581 51.5078 46.0042 51.2484 45.8026 51.1231ZM81.1027 46.5591C81.5022 46.2372 80.8396 46.646 80.8396 46.6718C80.8396 46.7846 81.0125 46.6318 81.1027 46.5591ZM105.305 60.2616C105.16 60.534 105.26 60.5388 105.408 60.2616C105.553 59.9891 105.452 59.9844 105.305 60.2616ZM67.904 78.9598C67.5707 79.3402 56.836 77.544 66.14 79.1765C66.7192 79.2781 68.1959 79.6191 68.1959 78.9751C68.1959 78.7139 68.1229 78.71 67.904 78.9598ZM24.1879 43.1197C23.8092 43.1756 23.8594 43.3697 24.2858 43.4981C25.5477 43.8783 24.6387 43.0532 24.1879 43.1197ZM24.295 45.1036C24.529 44.8044 24.552 44.6757 24.4115 44.4523C24.1725 44.0725 24.1277 44.9528 23.8082 44.2057C23.4704 43.416 22.9341 44.6548 23.0226 44.887C23.1187 45.1388 23.4674 45.1796 23.5879 44.9532C23.7442 44.6595 23.8912 44.7142 23.8912 45.0659C23.8912 45.4481 24.0164 45.4598 24.295 45.1036ZM58.4303 48.1636C58.4303 47.9391 57.2091 46.2484 55.8605 45.8638C55.6368 45.8 47.9818 44.0196 46.4291 44.5014C46.1824 44.5779 46.1112 44.7558 46.3273 44.7558C46.3273 44.7558 48.3525 46.5117 50.8724 47.8243C51.1338 47.9605 57.2552 52.0609 54.7654 50.6479C43.5823 44.3008 45.0062 42.9632 43.0695 44.9108C42.5929 45.3901 42.5948 45.3433 40.7639 44.9108C38.8873 44.4675 39.1441 44.4641 37.8677 44.8603C36.8553 45.1744 36.6546 45.3312 36.834 45.6682C37.0855 46.1409 47.2348 50.7704 47.4196 50.9948C47.5003 51.0929 47.5671 51.4246 47.5738 51.7607C47.5947 52.8079 47.9727 52.3012 47.9279 52.9687C47.8165 54.6322 50.9702 55.3972 59.3615 59.964C60.8402 60.7687 61.0449 60.8534 61.1393 60.6999C61.2104 60.5841 61.5143 59.3766 61.5143 59.2096C61.5143 59.1308 61.3796 59.0152 61.2151 58.9527C60.3179 58.6122 59.9129 56.2074 58.2623 53.4729C57.4344 52.1013 57.5174 52.3896 60.6406 52.5993C67.7721 53.0784 73.0963 54.6166 80.7884 46.6886C76.7516 49.0128 77.383 48.8592 76.2785 48.6945C73.3164 48.2527 70.3851 47.712 70.2361 47.5799C70.0862 47.447 70.0191 47.4532 69.6707 47.6318C67.9046 48.5375 58.4303 48.6902 58.4303 48.1636ZM108.528 24.9404C108.793 25.4163 108.948 25.5886 109.134 25.6118C109.379 25.6423 109.384 25.6285 109.366 24.9322C109.338 23.8107 109.204 23.7627 108.171 24.3002L108.528 24.9404ZM110.592 16.0963C110.669 17.0948 110.623 17.0223 111.671 17.784C113.374 19.0217 111.37 16.9767 111.37 16.4233C111.37 16.2455 110.735 15.1918 110.628 15.1918C110.559 15.1918 110.547 15.5032 110.592 16.0963ZM80.9939 80.0991C82.1562 80.0828 82.1557 79.9022 80.9939 79.9022C79.8271 79.9022 79.8229 80.1157 80.9939 80.0991ZM70.1233 79.6505C67.5419 79.1054 67.8864 79.6051 69.0894 79.7891C70.7956 80.05 70.3715 79.7029 70.1233 79.6505ZM68.3192 80.295C68.2233 80.1985 68.1685 80.1985 68.0726 80.295C67.9766 80.3915 68.0041 80.419 68.1959 80.419C68.3877 80.419 68.4152 80.3915 68.3192 80.295ZM33.7739 102.911C33.6456 102.832 33.5592 102.951 33.6234 103.119C33.7661 103.493 33.9976 103.05 33.7739 102.911Z" fill="#D2D3D6"/>
<path d="M143.877 89.5273C143.778 90.6902 143.678 91.8634 143.577 93.0445C143.68 91.8416 143.78 90.6693 143.877 89.5273Z" fill="#D2D3D6"/>
<path d="M145.839 66.4713C145.876 66.0286 145.913 65.5954 145.949 65.1758C145.913 65.5994 145.876 66.0312 145.839 66.4713Z" fill="#D2D3D6"/>
<path d="M147.018 52.6128C147.022 52.5664 147.022 52.5667 147.018 52.6128V52.6128Z" fill="#D2D3D6"/>
<path d="M145.761 67.3654C145.787 67.063 145.813 66.7641 145.839 66.4688C145.813 66.7625 145.788 67.0613 145.761 67.3654Z" fill="#D2D3D6"/>
<path d="M143.558 93.2731C143.564 93.1975 143.571 93.1223 143.577 93.0469C143.571 93.1225 143.564 93.1972 143.558 93.2731Z" fill="#D2D3D6"/>
<path d="M146.067 63.7891C146.049 63.9963 146.031 64.2059 146.012 64.4177C146.031 64.205 146.049 63.9955 146.067 63.7891Z" fill="#D2D3D6"/>
<path d="M145.948 65.1736C145.97 64.9186 145.992 64.6668 146.013 64.418C145.992 64.6661 145.97 64.9169 145.948 65.1736Z" fill="#D2D3D6"/>
<path d="M143.434 94.7386C143.476 94.2457 143.517 93.7564 143.558 93.2734C143.517 93.7605 143.475 94.2491 143.434 94.7386Z" fill="#D2D3D6"/>
</svg>
