<svg width="141" height="134" viewBox="0 0 141 134" fill="none" xmlns="https://www.w3.org/2000/svg">
<g clip-path="url(#clip0_2115_2)">
<path fill-rule="evenodd" clip-rule="evenodd" d="M0.296387 0.214844H140.974V82.3801H0.296387V0.214844ZM13.0778 60.5817C-4.65484 50.2308 6.75432 33.2468 38.56 22.6017C70.3389 11.9566 110.486 11.6891 128.219 22.04C145.951 32.3909 134.542 49.375 102.737 60.0201C70.9578 70.6652 30.8104 70.9059 13.0778 60.5817ZM23.7335 58.7362C38.56 67.3754 73.4871 66.7334 101.714 57.2919C129.941 47.8504 140.785 33.1666 125.932 24.5275C111.105 15.8883 76.178 16.5303 47.9511 25.9718C19.7242 35.4133 8.88008 50.0704 23.7335 58.7362ZM93.6146 41.2708L34.7121 59.0304L33.7703 60.0468L93.0495 54.1626L122.003 45.0688L98.9425 38.7299L114.442 34.0492L92.323 27.951H48.4354L27.3931 53.1997H39.4749L60.6518 46.834L73.8908 30.9199L84.8694 33.9422L76.3394 36.5099L93.6146 41.2708Z" fill="#EE1B24"/>
<path d="M130.614 98.8834C128.488 98.6962 126.389 98.6159 124.263 98.6159C121.276 98.6159 115.976 98.7229 112.289 98.8834L109.275 103.19C112.424 102.762 115.249 102.494 118.397 102.494C120.308 102.494 124.398 102.628 125.851 103.029C128.111 103.644 128.057 104.393 128.138 104.794C126.47 104.661 124.694 104.58 121.707 104.58C116.81 104.58 110.89 104.955 107.446 106.239C105.024 107.121 103.732 108.298 103.705 109.742C103.705 109.983 103.732 110.197 103.813 110.438C103.463 110.438 103.113 110.465 102.764 110.465C97.1397 110.465 96.6284 108.673 96.6284 107.095V103.19H103.759L106.773 98.9102H96.6284V92.4642L82.7975 94.283L82.7706 98.9102H76.9584C76.9584 98.9102 76.178 100.034 75.3977 101.13C70.5004 98.8299 64.1769 98.6427 60.3021 98.6427C48.7315 98.6427 42.9192 101.13 41.0357 104.982C39.475 104.019 35.8961 103.029 32.8555 102.949C37.0263 102.093 39.5826 100.461 39.5826 98.402C39.5826 95.3796 34.47 93.5074 29.6534 92.8387C26.8818 92.4642 22.415 92.4642 19.3475 92.4375H0.323242V114.209H25.2404C29.4112 114.209 33.9318 114.129 38.2372 112.792C40.4168 112.096 41.8698 111.267 42.7578 110.438C44.8566 112.123 49.4311 114.584 61.0286 114.584C69.3164 114.584 74.3752 113.888 77.4158 113.38L78.4921 109.689C74.6712 110.304 69.9891 110.786 66.195 110.786C63.0467 110.786 59.441 110.679 56.8847 109.422C55.7815 108.86 54.9742 108.218 54.6782 107.763H79.9721C79.9721 106.693 79.9721 104.901 78.3307 103.163H82.7706V109.662C82.7706 110.545 82.8513 112.096 85.9189 113.327C88.825 114.53 92.8612 114.557 94.691 114.557C97.8393 114.557 101.902 114.316 103.06 114.182C103.06 114.182 104.351 113.3 105.643 112.471C106.934 113.246 108.818 113.861 111.589 114.182C113.5 114.423 115.68 114.557 117.725 114.557C125.259 114.557 128.111 112.417 128.111 112.417V114.182H140.973V104.099C140.973 103.136 140.92 99.873 130.614 98.8834ZM14.9883 97.2519H16.2799C18.7555 97.2519 22.2805 97.2786 23.5183 97.5193C25.1866 97.867 25.9939 98.4822 25.9939 99.1776C25.9939 99.8463 25.0521 100.702 22.711 100.863C22.1729 100.889 17.1679 100.943 14.9614 100.97L14.9883 97.2519ZM23.4376 109.368C22.415 109.448 21.3925 109.448 19.4282 109.448H14.9883V104.848H19.6435C22.119 104.848 23.7335 104.875 25.4019 105.276C27.0164 105.704 27.9582 106.372 27.9582 107.175C27.9582 107.924 27.0164 109.074 23.4376 109.368ZM54.6782 104.794C55.1895 102.949 57.3421 101.933 60.625 101.933C63.9078 101.933 66.1143 102.949 66.5717 104.794H54.6782ZM123.698 110.652C120.846 110.652 117.24 110.465 117.24 109.074C117.24 108.245 118.424 107.79 122.003 107.442C123.026 107.309 123.591 107.309 124.263 107.309C124.909 107.309 128.004 107.255 128.165 107.389L128.192 110.277C128.165 110.545 125.151 110.652 123.698 110.652ZM19.1322 130.177H14.9614L16.7912 125.015C16.8988 124.694 16.845 124.507 16.5759 124.453H15.7148H15.1229H14.2887C13.9927 124.507 13.8044 124.694 13.6967 125.015L11.8669 130.177H7.64233L9.4721 125.041C9.57973 124.747 9.49901 124.56 9.22992 124.507C9.17611 124.48 8.90702 124.453 8.47649 124.453H7.8845H7.05034C6.75435 124.507 6.56599 124.694 6.45836 125.015L4.62859 130.177H0.377059L3.3908 121.671H7.61542L7.42706 122.233C7.80378 121.859 8.42267 121.671 9.22992 121.671H10.6292C11.6248 121.671 12.2437 121.698 12.5397 121.725C13.3738 121.832 13.8043 122.099 13.8851 122.501C14.4232 121.939 15.2843 121.645 16.5221 121.645H17.9213C18.8631 121.645 19.5627 121.698 20.0202 121.778C20.7198 121.885 21.1773 122.153 21.3387 122.554C21.5271 122.955 21.4732 123.517 21.2042 124.266L19.1322 130.177ZM34.6315 127.556C34.3355 128.358 33.9587 128.946 33.4744 129.321C32.99 129.695 32.3173 129.963 31.4832 130.07C31.0257 130.123 30.353 130.15 29.465 130.15H24.487C23.599 130.15 22.9532 130.123 22.4958 130.07C21.7423 129.963 21.258 129.695 21.0427 129.321C20.8274 128.946 20.8544 128.331 21.1503 127.556L22.3074 124.293C22.5765 123.517 22.9801 122.929 23.4645 122.527C23.9488 122.126 24.6215 121.885 25.4288 121.778C25.9131 121.698 26.6128 121.671 27.4738 121.671H32.4519C33.2053 121.671 33.8242 121.698 34.3086 121.778C35.1158 121.885 35.6271 122.126 35.8423 122.501C36.0845 122.875 36.0576 123.463 35.7616 124.293L34.6315 127.556ZM30.649 126.834L31.2948 125.015C31.4024 124.694 31.3486 124.507 31.1065 124.453H30.2454H27.0433C26.6397 124.48 26.3706 124.667 26.236 125.015L25.5902 126.834C25.5095 127.047 25.5095 127.208 25.5633 127.261C25.6171 127.315 25.7786 127.368 26.0208 127.368H29.2229C29.9225 127.368 30.3261 127.315 30.4337 127.208C30.5145 127.154 30.5952 127.021 30.649 126.834ZM41.9505 130.177H38.8561C37.995 130.177 37.3492 130.15 36.8649 130.07C36.1114 129.963 35.654 129.695 35.4387 129.321C35.2503 128.946 35.2773 128.358 35.5463 127.556L38.5063 119.211H42.7309L41.8698 121.671H43.9687L42.9731 124.48H40.9011L40.0669 126.86C39.9862 127.074 39.9862 127.235 40.04 127.288C40.0939 127.342 40.2553 127.395 40.4975 127.395H42.9462L41.9505 130.177ZM57.4229 127.556C57.1269 128.358 56.7502 128.946 56.2658 129.321C55.7815 129.695 55.1087 129.963 54.2746 130.07C53.8171 130.123 53.1444 130.15 52.2565 130.15H47.2784C46.3904 130.15 45.7446 130.123 45.2872 130.07C44.5337 129.963 44.0494 129.695 43.8341 129.321C43.6189 128.946 43.6458 128.331 43.9418 127.556L45.0988 124.293C45.3679 123.517 45.7715 122.929 46.2559 122.527C46.7402 122.126 47.4129 121.885 48.2202 121.778C48.7045 121.698 49.4042 121.671 50.2652 121.671H55.2433C55.9967 121.671 56.6156 121.698 57.1 121.778C57.9072 121.885 58.4185 122.126 58.6337 122.501C58.8759 122.875 58.849 123.463 58.553 124.293L57.4229 127.556ZM53.4404 126.834L54.0862 125.015C54.1939 124.694 54.14 124.507 53.8979 124.453H53.0368H49.8347C49.4311 124.48 49.162 124.667 49.0274 125.015L48.3816 126.834C48.3009 127.047 48.3009 127.208 48.3547 127.261C48.4086 127.315 48.57 127.368 48.8122 127.368H52.0143C52.7139 127.368 53.1175 127.315 53.2252 127.208C53.3059 127.154 53.3866 127.021 53.4404 126.834ZM68.9397 124.453H64.6612H63.8271C63.5311 124.507 63.3427 124.694 63.2351 125.015L61.4053 130.177H57.1807L60.1944 121.671H64.4191L64.2307 122.233C64.5805 121.859 65.1994 121.671 66.0336 121.671H69.9084L68.9397 124.453ZM79.0034 130.177H71.7919C70.904 130.177 70.2313 130.15 69.7469 130.07C69.0204 129.963 68.563 129.695 68.3746 129.321C68.1862 128.946 68.2401 128.358 68.5091 127.556L69.6662 124.293C69.9353 123.517 70.312 122.955 70.7694 122.554C71.2269 122.18 71.8727 121.912 72.6799 121.805C73.2181 121.725 73.9177 121.671 74.8057 121.671H82.0171L81.0215 124.48H75.0479H74.2137C73.9177 124.533 73.7294 124.721 73.6217 125.041L72.9759 126.86C72.8683 127.181 72.9221 127.342 73.1643 127.395H74.0254H80.0259L79.0034 130.177ZM92.4307 131.327C92.1616 132.103 91.7849 132.691 91.3274 133.092C90.87 133.467 90.2242 133.734 89.4169 133.841C88.8788 133.921 88.1792 133.948 87.2643 133.948H84.9502L85.9458 131.14H87.0221C87.5872 131.14 87.937 131.14 88.0715 131.113C88.2061 131.086 88.3406 130.926 88.4483 130.578L88.6097 130.15H84.0353C83.1473 130.15 82.4746 130.123 81.9633 130.043C81.2368 129.936 80.7794 129.669 80.591 129.267C80.4026 128.866 80.4565 128.278 80.7255 127.502L82.7975 121.645H87.0221L85.1923 126.807C85.0847 127.128 85.1385 127.288 85.3807 127.342H86.2149H89.6053L91.6234 121.645H95.8481L92.4307 131.327ZM105.427 130.177H98.216C97.328 130.177 96.6553 130.15 96.171 130.07C95.4444 129.963 94.987 129.695 94.7717 129.321C94.5834 128.946 94.6372 128.358 94.9063 127.556L96.0633 124.293C96.3324 123.517 96.7091 122.955 97.1666 122.554C97.624 122.18 98.2698 121.912 99.0771 121.805C99.6152 121.725 100.315 121.671 101.203 121.671H108.441L107.446 124.48H101.445H100.638C100.342 124.533 100.153 124.721 100.046 125.041L99.4 126.86C99.2923 127.181 99.3462 127.342 99.5883 127.395H100.449H106.423L105.427 130.177ZM110.621 130.177H106.396L110.298 119.184H114.522L110.621 130.177ZM126.658 124.694C126.389 125.443 126.066 125.951 125.636 126.272C125.232 126.566 124.64 126.753 123.86 126.807C123.644 126.833 122.918 126.834 121.653 126.834H117.025C116.837 127.235 116.917 127.475 117.267 127.556C117.402 127.582 117.644 127.582 117.994 127.582H125.097L124.156 130.204H115.814C114.953 130.204 114.28 130.177 113.796 130.097C113.043 129.99 112.585 129.722 112.397 129.348C112.208 128.973 112.262 128.358 112.531 127.582L113.688 124.319C114.092 123.196 114.953 122.447 116.272 122.046C117.025 121.832 118.128 121.725 119.581 121.725H123.456C124.398 121.725 125.071 121.752 125.474 121.832C126.201 121.939 126.685 122.206 126.873 122.608C127.089 123.009 127.035 123.57 126.766 124.346L126.658 124.694ZM122.003 125.095C122.245 125.095 122.434 124.961 122.541 124.667C122.649 124.4 122.568 124.266 122.299 124.266H118.128C117.832 124.266 117.644 124.4 117.536 124.667C117.429 124.934 117.536 125.095 117.832 125.095H122.003ZM139.897 127.556C139.601 128.358 139.224 128.973 138.74 129.348C138.256 129.722 137.583 129.99 136.749 130.07C136.238 130.123 135.565 130.15 134.731 130.15H125.528L126.524 127.342H135.35C135.673 127.342 135.888 127.235 135.942 127.047C136.022 126.834 135.888 126.727 135.565 126.727H130.775C128.057 126.727 126.9 126.165 127.304 125.041L127.573 124.266C127.869 123.463 128.246 122.875 128.73 122.501C129.214 122.126 129.887 121.859 130.721 121.778C131.233 121.698 131.905 121.671 132.739 121.671H140.785L139.789 124.48H132.309C131.932 124.48 131.717 124.587 131.636 124.801C131.556 125.015 131.717 125.122 132.067 125.122H137.099C139.52 125.122 140.489 125.79 140.005 127.154L139.897 127.556Z" fill="#221F1F"/>
<path d="M0.215332 87.9708V84.0391H140.973V87.9708H0.215332ZM0.726592 87.4626H140.489V84.5205H0.726592V87.4626Z" fill="#221F1F"/>
<path d="M93.8836 84.5195H47.3052V87.4616H93.8836V84.5195Z" fill="white"/>
<path d="M47.3055 84.5195H0.727051V87.4616H47.3055V84.5195Z" fill="#006515"/>
<path d="M140.462 84.5195H93.8838V87.4616H140.462V84.5195Z" fill="#EE1B24"/>
</g>
<defs>
<clipPath id="clip0_2115_2">
<rect width="141" height="134" fill="white"/>
</clipPath>
</defs>
</svg>
