<svg width="225" height="75" viewBox="0 0 225 75" fill="none" xmlns="https://www.w3.org/2000/svg">
<g clip-path="url(#clip0_2115_2618)">
<path fill-rule="evenodd" clip-rule="evenodd" d="M185.837 22.3981C185.837 34.6021 153.003 44.4954 112.5 44.4954C71.9972 44.4954 39.1631 34.6021 39.1631 22.3981C39.1631 10.1941 71.9972 0.300781 112.5 0.300781C153.003 0.300781 185.837 10.1941 185.837 22.3981ZM174.113 22.3979C174.113 32.9061 146.528 41.4247 112.5 41.4247C78.4722 41.4247 50.887 32.9061 50.887 22.3979C50.887 11.8897 78.4722 3.37105 112.5 3.37105C146.528 3.37105 174.113 11.8897 174.113 22.3979Z" fill="#E51A22"/>
<path d="M156.053 29.3929C152.362 27.3794 139.789 26.2217 129.612 25.6177C142.184 24.9633 164.934 25.5674 164.934 17.6143C164.934 8.60428 125.92 11.3224 104.219 11.3224C86.6575 11.3224 70.8427 11.5237 60.2163 11.7754V33.2687H85.6099V15.1479C88.0046 15.0976 99.9281 14.9969 107.91 14.9969C123.077 15.0472 132.206 16.0539 132.206 18.017C132.206 19.9298 122.428 21.1378 105.965 21.1378H89.9502C88.6032 21.1378 87.5556 22.2452 87.5556 23.5539V23.6043C87.5556 24.8123 88.4536 25.819 89.601 26.0204C89.601 26.0204 114.595 28.9398 118.487 31.658C122.827 34.3258 134.352 32.6647 136.696 33.319H170.621C167.777 32.413 160.643 31.8593 156.053 29.3929Z" fill="#E51A22"/>
<path d="M75.7315 53.8086V74.5972H59.5176V53.8086H75.7315Z" fill="#231F20"/>
<path d="M130.66 65.8392H95.488V70.7721H130.66V74.648H88.2042C83.2651 74.648 79.2241 70.6211 79.2241 65.5876V62.9198C79.2241 57.9366 83.2153 53.8594 88.2042 53.8594H130.76V57.7352H95.488V62.0641H130.66V65.8392Z" fill="#231F20"/>
<path d="M148.57 53.8086H163.985V66.9462C163.985 72.8858 163.886 74.9495 139.689 74.9495C136.147 74.9495 138.392 74.7482 135.349 74.4462L135.449 70.671C137.594 70.8724 148.62 70.1677 148.62 66.8958V53.8086H148.57Z" fill="#231F20"/>
<path d="M183.791 53.8086V65.7885C183.791 69.3623 188.331 70.1173 196.413 70.1173C204.695 70.1173 209.235 69.4126 209.235 65.7885V53.8086H224.95V65.4361C224.95 71.8287 224.651 74.8992 195.865 74.8992C168.027 74.8992 167.927 71.9797 167.927 65.3858V53.8086H183.791Z" fill="#231F20"/>
<path d="M38.2151 66.9461C44.3016 66.2917 57.173 68.0535 57.173 59.6474C57.173 51.7447 5.18847 53.8588 0 54.1105V74.5971H17.2616V58.2884C18.4091 58.238 19.2572 58.1374 23.1486 58.1374C30.5322 58.1877 39.7616 58.1374 39.7616 60.0501C39.7616 61.8622 30.1829 63.0199 22.2007 63.0199H20.2051C19.2073 63.0199 18.4091 63.8253 18.4091 64.832V64.8823C18.4091 65.738 19.0078 67.4494 19.8559 67.6004C22.7993 68.1038 24.0466 68.6575 29.8836 72.0803C32.7273 73.7414 35.9701 73.9931 37.1175 74.5971H56.1253C56.1253 74.5971 43.1042 67.8018 38.1652 67.1978V66.9461H38.2151Z" fill="#231F20"/>
</g>
<defs>
<clipPath id="clip0_2115_2618">
<rect width="225" height="75" fill="white"/>
</clipPath>
</defs>
</svg>
