<svg width="227" height="59" viewBox="0 0 227 59" fill="none" xmlns="https://www.w3.org/2000/svg">
<g clip-path="url(#clip0_2115_15251)">
<path d="M18.8106 17.3779H110.243C111.425 17.3779 112.212 18.5982 111.722 19.6715L107.928 27.9814C107.798 28.2646 107.59 28.5047 107.328 28.6731C107.066 28.8415 106.761 28.9311 106.449 28.931H30.9342C30.3639 28.9309 29.8094 29.1179 29.3562 29.4632C28.9029 29.8084 28.576 30.2928 28.4259 30.8416L28.0954 32.0472C28.0296 32.2878 28.0203 32.5403 28.0682 32.7851C28.1162 33.0299 28.2201 33.2604 28.3718 33.4586C28.5236 33.6568 28.7191 33.8174 28.9432 33.928C29.1673 34.0386 29.4139 34.0961 29.6639 34.0961L102.464 34.0606C103.634 34.0597 104.421 35.257 103.955 36.3282L100.37 44.5608C100.244 44.8509 100.035 45.0978 99.7696 45.2711C99.5042 45.4444 99.1939 45.5365 98.8768 45.5361L13.1282 45.4142C9.82362 45.4098 7.62625 42.003 8.98999 39.0009L18.8106 17.3779ZM21.4385 12.0019H114.365C114.675 12.0018 114.98 11.9128 115.242 11.7454C115.503 11.578 115.711 11.3393 115.841 11.0575L119.676 2.73199C120.172 1.65654 119.384 0.431428 118.197 0.433597L32.8876 0.571986C31.0129 0.575018 29.1788 1.11713 27.6051 2.13337C26.0313 3.14962 24.7845 4.59693 24.0142 6.30193L21.4385 12.0019ZM125.655 17.2577L115.559 39.076C114.167 42.0841 116.369 45.5174 119.69 45.5174H130.054C130.689 45.5174 131.266 45.1487 131.531 44.5743L143.065 19.5565C143.559 18.4824 142.773 17.2577 141.588 17.2577H125.655Z" fill="#0F3052"/>
<path d="M128.076 11.9838H163.367C164.555 11.9838 165.342 13.2141 164.841 14.2887L151.348 43.2126C150.847 44.2884 151.634 45.5179 152.822 45.5179H167.548C167.86 45.518 168.164 45.4291 168.426 45.2616C168.688 45.0941 168.896 44.8551 169.025 44.573L183.579 12.9191C183.709 12.637 183.917 12.3979 184.178 12.2303C184.44 12.0626 184.745 11.9735 185.056 11.9734H201.271C202.46 11.9734 203.246 13.2054 202.743 14.28L189.219 43.2117C188.716 44.2871 189.503 45.517 190.692 45.517H205.481C205.79 45.517 206.094 45.4289 206.355 45.2631C206.616 45.0973 206.824 44.8606 206.955 44.5808L226.451 2.86914C226.953 1.79412 226.167 0.5625 224.978 0.5625H139.673C137.827 0.562433 136.019 1.0849 134.46 2.06918C132.9 3.05346 131.652 4.45913 130.861 6.12282L128.076 11.9838ZM2.16552 54.1948H14.8645C14.8893 54.1949 14.9136 54.1879 14.9344 54.1745C14.9553 54.1611 14.9718 54.1419 14.9819 54.1193L15.5877 52.807C15.5967 52.7873 15.6006 52.7657 15.5991 52.7442C15.5976 52.7226 15.5907 52.7017 15.579 52.6835C15.5673 52.6653 15.5512 52.6503 15.5322 52.6399C15.5132 52.6295 15.4919 52.624 15.4702 52.6239H3.71495C3.46758 52.624 3.22542 52.6949 3.01728 52.8282C2.80913 52.9616 2.64376 53.1518 2.54081 53.3762L2.16552 54.1948ZM1.82024 54.9275L0.494332 57.8177C0.449128 57.9163 0.429476 58.0247 0.437179 58.133C0.444882 58.2412 0.479692 58.3457 0.53842 58.4371C0.597148 58.5284 0.677914 58.6035 0.773313 58.6556C0.868712 58.7077 0.975692 58.7351 1.08444 58.7352L12.7536 58.753C12.8045 58.753 12.8515 58.7226 12.8715 58.6758L13.4446 57.376C13.4532 57.3564 13.4567 57.335 13.4549 57.3137C13.4532 57.2923 13.4461 57.2718 13.4345 57.2538C13.4228 57.2359 13.4069 57.2211 13.3881 57.2108C13.3693 57.2004 13.3482 57.1949 13.3268 57.1947L3.24355 57.1999C3.21304 57.1998 3.18298 57.1926 3.1558 57.1788C3.12862 57.165 3.10509 57.1449 3.08712 57.1203C3.06916 57.0957 3.05726 57.0673 3.05241 57.0372C3.04755 57.0072 3.04987 56.9764 3.05917 56.9474L3.1331 56.7179C3.15412 56.6532 3.19515 56.5967 3.2503 56.5567C3.30545 56.5166 3.37189 56.495 3.44011 56.4949H13.7873C13.8121 56.4948 13.8362 56.4876 13.857 56.4743C13.8778 56.4609 13.8944 56.4419 13.9047 56.4194L14.507 55.1102C14.516 55.0905 14.52 55.0689 14.5185 55.0473C14.5169 55.0258 14.51 55.0049 14.4983 54.9867C14.4867 54.9685 14.4706 54.9535 14.4516 54.9431C14.4326 54.9327 14.4113 54.9272 14.3896 54.9271L1.82024 54.9275ZM17.4832 54.1861H19.9942L20.6182 52.8278C20.6271 52.8082 20.631 52.7867 20.6294 52.7652C20.6279 52.7437 20.621 52.7229 20.6093 52.7048C20.5976 52.6867 20.5815 52.6717 20.5626 52.6614C20.5436 52.6511 20.5224 52.6456 20.5008 52.6456H19.0414C18.7993 52.6457 18.5621 52.7137 18.3569 52.8418C18.1517 52.9699 17.9867 53.153 17.8807 53.3701L17.4832 54.1861ZM17.184 54.9123L15.8068 57.8281C15.7601 57.9269 15.7391 58.036 15.7459 58.1451C15.7527 58.2541 15.787 58.3597 15.8457 58.4521C15.9043 58.5444 15.9854 58.6204 16.0814 58.6731C16.1774 58.7258 16.2852 58.7534 16.3948 58.7534H28.097C28.1492 58.7534 28.1962 58.7222 28.2162 58.6736L28.7545 57.373C28.7626 57.3534 28.7657 57.3322 28.7636 57.3112C28.7615 57.2901 28.7542 57.2699 28.7425 57.2524C28.7307 57.2348 28.7148 57.2204 28.6961 57.2104C28.6774 57.2004 28.6566 57.1952 28.6354 57.1951L18.8013 57.2003C18.7796 57.2001 18.7583 57.1945 18.7393 57.184C18.7204 57.1734 18.7043 57.1584 18.6926 57.1401C18.681 57.1218 18.6741 57.1009 18.6726 57.0793C18.671 57.0577 18.6749 57.0361 18.6839 57.0164L19.5802 55.0954C19.5893 55.0758 19.5933 55.0542 19.5919 55.0326C19.5904 55.011 19.5836 54.9902 19.5719 54.9719C19.5603 54.9537 19.5442 54.9387 19.5252 54.9283C19.5062 54.9178 19.4849 54.9124 19.4632 54.9123H17.184ZM32.4178 54.1948H45.1168C45.1416 54.1951 45.1659 54.1881 45.1867 54.1746C45.2075 54.1612 45.2239 54.142 45.2338 54.1193L45.8395 52.807C45.8486 52.7873 45.8525 52.7657 45.851 52.7442C45.8495 52.7226 45.8425 52.7017 45.8309 52.6835C45.8192 52.6653 45.8031 52.6503 45.7841 52.6399C45.7651 52.6295 45.7438 52.624 45.7221 52.6239H33.9668C33.7195 52.6239 33.4774 52.6948 33.2693 52.8282C33.0612 52.9615 32.8959 53.1517 32.7931 53.3762L32.4178 54.1948ZM32.0721 54.9275L30.7462 57.8177C30.5497 58.2471 30.8636 58.7352 31.3363 58.7352L43.0055 58.753C43.0307 58.7531 43.0553 58.7459 43.0763 58.7322C43.0974 58.7184 43.1139 58.6988 43.1238 58.6758L43.6965 57.376C43.7052 57.3564 43.7088 57.3349 43.7071 57.3136C43.7053 57.2922 43.6983 57.2716 43.6866 57.2536C43.6749 57.2357 43.659 57.2208 43.6401 57.2106C43.6213 57.2003 43.6002 57.1948 43.5787 57.1947L33.4959 57.1999C33.4653 57.1999 33.4352 57.1927 33.408 57.1789C33.3807 57.1651 33.3571 57.1451 33.3391 57.1205C33.3211 57.0959 33.3092 57.0674 33.3043 57.0373C33.2994 57.0072 33.3017 56.9764 33.3111 56.9474L33.3854 56.7179C33.4064 56.6532 33.4475 56.5967 33.5026 56.5567C33.5578 56.5166 33.6242 56.495 33.6924 56.4949H44.0396C44.0644 56.4949 44.0886 56.4878 44.1094 56.4744C44.1303 56.461 44.1468 56.4419 44.157 56.4194L44.7593 55.1102C44.7683 55.0905 44.7723 55.0689 44.7708 55.0473C44.7692 55.0258 44.7623 55.0049 44.7507 54.9867C44.739 54.9685 44.7229 54.9535 44.7039 54.9431C44.6849 54.9327 44.6636 54.9272 44.6419 54.9271L32.0721 54.9275ZM47.4264 54.9032L46.04 57.8229C45.993 57.9219 45.9719 58.0312 45.9787 58.1406C45.9855 58.25 46.0199 58.3559 46.0789 58.4484C46.1378 58.5409 46.2193 58.617 46.3157 58.6696C46.4121 58.7222 46.5203 58.7495 46.6301 58.7491L58.2576 58.6992C58.2805 58.6993 58.3031 58.6932 58.3229 58.6816C58.3427 58.67 58.3591 58.6533 58.3702 58.6332L59.4295 56.6836C59.44 56.6639 59.4452 56.6418 59.4446 56.6194C59.444 56.597 59.4376 56.5752 59.4261 56.5561C59.4145 56.5369 59.3982 56.521 59.3787 56.51C59.3592 56.499 59.3371 56.4932 59.3147 56.4932L57.3326 56.5001C57.3097 56.5001 57.2871 56.5063 57.2673 56.5179C57.2475 56.5294 57.2312 56.5461 57.22 56.5661L56.9047 57.1396C56.8934 57.1598 56.8769 57.1766 56.8568 57.1882C56.8368 57.1998 56.8139 57.2058 56.7908 57.2055L49.0715 57.1995C49.0498 57.1993 49.0284 57.1937 49.0095 57.1831C48.9905 57.1726 48.9744 57.1575 48.9628 57.1392C48.9512 57.1209 48.9443 57.1 48.9429 57.0784C48.9414 57.0568 48.9454 57.0352 48.9545 57.0155L49.8486 55.0854C49.8577 55.0659 49.8618 55.0443 49.8604 55.0228C49.8589 55.0012 49.8521 54.9804 49.8404 54.9622C49.8287 54.944 49.8126 54.9291 49.7936 54.9187C49.7746 54.9084 49.7532 54.9031 49.7316 54.9032H47.4264ZM63.0185 54.1861H75.7457C75.7689 54.1859 75.7917 54.1795 75.8116 54.1676C75.8316 54.1557 75.848 54.1388 75.8592 54.1184L76.5793 52.8009C76.5899 52.7812 76.5952 52.7592 76.5947 52.7368C76.5942 52.7145 76.5879 52.6927 76.5765 52.6735C76.565 52.6543 76.5487 52.6384 76.5293 52.6274C76.5098 52.6163 76.4878 52.6105 76.4654 52.6105H64.5979C64.3567 52.6107 64.1204 52.6783 63.9156 52.8056C63.7109 52.9329 63.546 53.1147 63.4394 53.3306L63.0185 54.1861ZM67.8694 54.8963L66.4952 57.8307C66.2939 58.2602 66.6083 58.7534 67.084 58.7534H68.4908C68.5157 58.7534 68.54 58.7463 68.5609 58.7329C68.5817 58.7195 68.5984 58.7005 68.6087 58.6779L70.2546 55.0785C70.2637 55.0589 70.2677 55.0374 70.2662 55.0159C70.2647 54.9944 70.2578 54.9736 70.2462 54.9554C70.2345 54.9373 70.2185 54.9224 70.1995 54.912C70.1805 54.9017 70.1593 54.8963 70.1377 54.8963H67.8694ZM79.0663 53.3601L78.6815 54.1965H89.1618C89.2605 54.1965 89.3226 54.3033 89.2735 54.3896L89.0039 54.8633C88.9926 54.883 88.9762 54.8993 88.9565 54.9106C88.9368 54.9218 88.9144 54.9277 88.8917 54.9275L78.3545 54.9097L76.9816 57.8294C76.9352 57.9282 76.9145 58.0372 76.9216 58.1462C76.9286 58.2551 76.9631 58.3605 77.0219 58.4526C77.0807 58.5448 77.1618 58.6206 77.2577 58.6731C77.3537 58.7256 77.4614 58.7531 77.5708 58.753H79.0437C79.0687 58.753 79.0931 58.7458 79.114 58.7323C79.1349 58.7187 79.1515 58.6994 79.1616 58.6766L80.1126 56.5704C80.1228 56.5478 80.1393 56.5286 80.1603 56.5151C80.1812 56.5017 80.2056 56.4947 80.2305 56.4949H87.7071C87.8015 56.4949 87.8637 56.5925 87.8241 56.678L86.9379 58.5699C86.9288 58.5896 86.9249 58.6113 86.9264 58.6329C86.928 58.6545 86.9349 58.6753 86.9466 58.6936C86.9584 58.7118 86.9745 58.7268 86.9936 58.7372C87.0126 58.7475 87.034 58.753 87.0557 58.753H89.2648C89.3148 58.753 89.3605 58.7243 89.3818 58.6784L90.305 56.6984C90.305 56.6984 90.4055 56.3765 90.0332 56.2806C90.0332 56.2806 90.5798 56.1635 91.026 55.18C91.3781 54.3847 91.7267 53.5879 92.0719 52.7896C92.0804 52.7701 92.0839 52.7487 92.0821 52.7275C92.0802 52.7062 92.0731 52.6858 92.0614 52.6679C92.0497 52.6501 92.0337 52.6355 92.0148 52.6254C91.996 52.6153 91.975 52.61 91.9536 52.61H80.2396C79.9926 52.6101 79.7508 52.6807 79.5429 52.8137C79.3349 52.9466 79.1695 53.1363 79.0663 53.3601ZM93.7744 54.1683H96.2857L96.9098 52.8109C96.9187 52.7913 96.9226 52.7697 96.921 52.7482C96.9195 52.7268 96.9125 52.706 96.9008 52.6879C96.8892 52.6697 96.8731 52.6548 96.8541 52.6445C96.8352 52.6341 96.8139 52.6287 96.7923 52.6287H95.3325C95.0905 52.6287 94.8534 52.6966 94.6483 52.8247C94.4432 52.9528 94.2784 53.136 94.1727 53.3532L93.7744 54.1683ZM93.4013 54.9245L92.0571 57.8333C92.0114 57.9321 91.9914 58.0408 91.9989 58.1494C92.0064 58.258 92.0411 58.3629 92.1 58.4546C92.1588 58.5462 92.2398 58.6216 92.3355 58.6739C92.4312 58.7261 92.5385 58.7534 92.6476 58.7534H94.077C94.1018 58.7533 94.126 58.7461 94.1468 58.7327C94.1676 58.7194 94.1841 58.7004 94.1945 58.6779L95.8309 55.1067C95.8399 55.0871 95.8439 55.0655 95.8424 55.044C95.8409 55.0224 95.834 55.0016 95.8223 54.9835C95.8105 54.9653 95.7944 54.9504 95.7754 54.9401C95.7564 54.9298 95.7351 54.9244 95.7134 54.9245H93.4013ZM98.831 54.9041L97.4442 57.8237C97.3972 57.9228 97.3762 58.0321 97.383 58.1414C97.3899 58.2508 97.4244 58.3566 97.4834 58.449C97.5424 58.5415 97.6239 58.6175 97.7203 58.6699C97.8167 58.7224 97.9249 58.7496 98.0348 58.7491L109.663 58.7001C109.686 58.6998 109.708 58.6935 109.728 58.6818C109.748 58.67 109.764 58.6533 109.775 58.6332L110.834 56.6845C110.844 56.6648 110.85 56.6427 110.849 56.6204C110.849 56.5981 110.842 56.5763 110.831 56.5571C110.819 56.5379 110.803 56.522 110.784 56.511C110.764 56.4999 110.742 56.4941 110.72 56.4941L108.737 56.501C108.714 56.5008 108.692 56.5068 108.672 56.5184C108.652 56.53 108.636 56.5468 108.625 56.5669L108.309 57.1396C108.298 57.1599 108.282 57.1767 108.262 57.1883C108.242 57.2 108.219 57.2059 108.196 57.2055L100.477 57.1995C100.455 57.1994 100.434 57.194 100.415 57.1835C100.396 57.1731 100.379 57.1581 100.368 57.1399C100.356 57.1216 100.349 57.1008 100.348 57.0792C100.346 57.0576 100.35 57.036 100.36 57.0164L101.254 55.0863C101.263 55.0667 101.267 55.0452 101.265 55.0236C101.264 55.0021 101.257 54.9812 101.245 54.9631C101.234 54.9449 101.218 54.9299 101.199 54.9196C101.18 54.9093 101.158 54.904 101.137 54.9041H98.831ZM121.954 54.8963L120.581 57.8307C120.379 58.2602 120.694 58.7534 121.17 58.7534H122.576C122.6 58.7533 122.625 58.7462 122.645 58.7328C122.666 58.7194 122.683 58.7004 122.693 58.6779L124.339 55.0785C124.348 55.0588 124.352 55.0373 124.351 55.0157C124.349 54.9942 124.342 54.9734 124.33 54.9553C124.319 54.9371 124.302 54.9222 124.283 54.9119C124.264 54.9016 124.243 54.8962 124.222 54.8963H121.954Z" fill="#0F3052"/>
<path d="M122.262 54.1941H127.204C127.299 54.1941 127.361 54.2917 127.321 54.3772L125.712 57.83C125.666 57.9289 125.646 58.0377 125.653 58.1465C125.66 58.2553 125.695 58.3605 125.754 58.4524C125.812 58.5443 125.894 58.6199 125.989 58.6722C126.085 58.7246 126.193 58.752 126.302 58.7519H127.684C127.709 58.752 127.733 58.745 127.754 58.7318C127.775 58.7185 127.792 58.6996 127.802 58.6773L129.834 54.2687C129.845 54.2464 129.861 54.2274 129.882 54.2142C129.902 54.2009 129.926 54.194 129.951 54.1941L132.345 54.1898C132.367 54.1897 132.388 54.1952 132.408 54.2055C132.427 54.2159 132.443 54.2309 132.454 54.2492C132.466 54.2674 132.473 54.2883 132.475 54.31C132.476 54.3316 132.472 54.3532 132.463 54.3729L130.86 57.8317C130.814 57.9305 130.794 58.0391 130.801 58.1476C130.809 58.2561 130.843 58.361 130.902 58.4527C130.961 58.5443 131.042 58.6198 131.137 58.6721C131.233 58.7243 131.34 58.7518 131.449 58.7519H132.845C132.869 58.752 132.893 58.745 132.914 58.7318C132.935 58.7186 132.951 58.6996 132.961 58.6773L135.696 52.835C135.705 52.8153 135.709 52.7937 135.708 52.772C135.706 52.7504 135.699 52.7295 135.688 52.7113C135.676 52.693 135.66 52.678 135.641 52.6676C135.622 52.6573 135.6 52.6518 135.579 52.6519H123.81C123.565 52.652 123.326 52.7213 123.119 52.8518C122.913 52.9823 122.748 53.1685 122.643 53.3889L122.262 54.1941ZM137.401 54.9295L136.002 57.8213C135.954 57.9201 135.932 58.0294 135.938 58.139C135.944 58.2486 135.978 58.3549 136.036 58.4479C136.094 58.5409 136.176 58.6176 136.272 58.6707C136.368 58.7239 136.476 58.7518 136.586 58.7519H148.307C148.332 58.7518 148.356 58.7446 148.377 58.7312C148.398 58.7179 148.415 58.6988 148.425 58.6764L151.116 52.7681C151.125 52.7485 151.129 52.727 151.128 52.7054C151.126 52.6839 151.119 52.6631 151.108 52.6449C151.096 52.6267 151.08 52.6118 151.061 52.6015C151.042 52.5912 151.021 52.5858 150.999 52.5859H139.284C139.036 52.586 138.794 52.6572 138.585 52.791C138.377 52.9249 138.211 53.1157 138.109 53.3408L137.729 54.1746L147.788 54.1612C147.881 54.1612 147.943 54.257 147.905 54.3425L146.665 57.1172C146.655 57.1398 146.638 57.1589 146.617 57.1724C146.596 57.186 146.572 57.1933 146.547 57.1936L139.051 57.1988C139.029 57.1987 139.008 57.1932 138.989 57.1827C138.97 57.1723 138.954 57.1574 138.942 57.1392C138.931 57.121 138.924 57.1001 138.922 57.0786C138.92 57.057 138.924 57.0354 138.933 57.0157L139.813 55.1108C139.822 55.0911 139.826 55.0695 139.825 55.0479C139.823 55.0263 139.816 55.0054 139.805 54.9871C139.793 54.9689 139.777 54.9539 139.758 54.9435C139.739 54.9331 139.717 54.9277 139.695 54.9277L137.401 54.9295ZM152.625 54.1729H165.352C165.375 54.1728 165.398 54.1665 165.418 54.1548C165.438 54.1431 165.455 54.1262 165.466 54.1061L166.186 52.7877C166.197 52.7681 166.202 52.7461 166.201 52.7239C166.201 52.7017 166.195 52.68 166.183 52.6609C166.172 52.6418 166.156 52.626 166.137 52.6149C166.117 52.6038 166.095 52.5979 166.073 52.5977H154.204C153.963 52.5976 153.727 52.665 153.522 52.7923C153.318 52.9197 153.153 53.1017 153.047 53.3178L152.625 54.1729ZM157.476 54.883L156.102 57.8174C155.9 58.2469 156.215 58.7402 156.691 58.7402H158.097C158.122 58.74 158.146 58.7328 158.167 58.7195C158.188 58.7061 158.204 58.6871 158.215 58.6647L159.861 55.0644C159.87 55.0448 159.873 55.0233 159.872 55.0019C159.87 54.9805 159.863 54.9598 159.852 54.9418C159.84 54.9237 159.824 54.9089 159.805 54.8986C159.786 54.8884 159.765 54.883 159.743 54.883H157.476ZM168.271 54.1464H170.782L171.406 52.7881C171.415 52.7685 171.419 52.7469 171.417 52.7254C171.416 52.704 171.409 52.6832 171.397 52.6651C171.385 52.6469 171.369 52.632 171.35 52.6217C171.331 52.6113 171.31 52.6059 171.289 52.6059H169.829C169.587 52.6061 169.35 52.6741 169.144 52.8022C168.939 52.9303 168.774 53.1133 168.668 53.3304L168.271 54.1464ZM167.898 54.9026L166.554 57.8113C166.508 57.9101 166.488 58.0188 166.496 58.1273C166.503 58.2358 166.538 58.3406 166.597 58.4322C166.655 58.5239 166.736 58.5993 166.832 58.6516C166.928 58.7038 167.035 58.7313 167.144 58.7315H168.573C168.624 58.7315 168.669 58.7011 168.691 58.656L170.327 55.0848C170.336 55.0651 170.34 55.0435 170.339 55.0219C170.337 55.0004 170.33 54.9795 170.318 54.9613C170.307 54.9432 170.29 54.9282 170.271 54.918C170.252 54.9077 170.231 54.9024 170.209 54.9026H167.898ZM173.437 54.9295L172.038 57.8213C171.99 57.9201 171.968 58.0294 171.974 58.139C171.98 58.2486 172.014 58.3549 172.072 58.4479C172.13 58.5409 172.212 58.6176 172.308 58.6707C172.404 58.7239 172.512 58.7518 172.622 58.7519H184.343C184.368 58.7519 184.392 58.7448 184.413 58.7314C184.434 58.7181 184.451 58.6989 184.461 58.6764L187.153 52.7681C187.162 52.7485 187.166 52.7269 187.165 52.7054C187.163 52.6839 187.156 52.6631 187.144 52.6449C187.133 52.6268 187.116 52.6119 187.097 52.6016C187.078 52.5913 187.057 52.5859 187.035 52.5859H175.321C175.073 52.586 174.83 52.6572 174.622 52.7911C174.414 52.9249 174.249 53.1158 174.146 53.3408L173.766 54.1746L183.824 54.1612C183.918 54.1612 183.98 54.257 183.942 54.3425L182.701 57.1172C182.691 57.1398 182.674 57.1589 182.653 57.1724C182.632 57.186 182.608 57.1933 182.583 57.1936L175.087 57.1988C175.065 57.1988 175.044 57.1934 175.025 57.183C175.006 57.1726 174.99 57.1576 174.978 57.1394C174.966 57.1211 174.959 57.1002 174.958 57.0786C174.956 57.057 174.96 57.0354 174.97 57.0157L175.849 55.1108C175.858 55.0911 175.862 55.0695 175.86 55.048C175.859 55.0265 175.852 55.0057 175.84 54.9875C175.828 54.9694 175.812 54.9544 175.793 54.944C175.774 54.9335 175.753 54.9279 175.732 54.9277L173.437 54.9295ZM188.4 54.9026L187.057 57.8113C187.011 57.9101 186.991 58.0188 186.999 58.1273C187.006 58.2359 187.041 58.3408 187.099 58.4324C187.158 58.5241 187.239 58.5995 187.335 58.6518C187.431 58.704 187.538 58.7314 187.647 58.7315H189.075C189.1 58.7314 189.124 58.7242 189.145 58.7109C189.166 58.6975 189.183 58.6785 189.193 58.656L190.83 55.0848C190.839 55.0651 190.843 55.0436 190.841 55.0221C190.84 55.0006 190.833 54.9799 190.821 54.9617C190.809 54.9436 190.793 54.9287 190.774 54.9183C190.756 54.908 190.734 54.9026 190.713 54.9026H188.4Z" fill="#0F3052"/>
<path d="M188.774 53.9458H191.345L197.379 58.7266C197.402 58.7444 197.43 58.7542 197.459 58.7543H199.902C199.927 58.7543 199.951 58.7473 199.972 58.7341C199.992 58.7209 200.009 58.702 200.02 58.6797L202.883 52.4691C202.892 52.4494 202.896 52.4277 202.895 52.406C202.893 52.3843 202.886 52.3633 202.875 52.345C202.863 52.3267 202.847 52.3116 202.828 52.3011C202.809 52.2906 202.787 52.2852 202.765 52.2852H200.46C200.436 52.2851 200.412 52.292 200.391 52.3051C200.37 52.3182 200.353 52.3368 200.343 52.3589L198.512 56.2091C198.504 56.2265 198.492 56.2418 198.477 56.2539C198.461 56.266 198.444 56.2746 198.425 56.279C198.406 56.2835 198.387 56.2837 198.368 56.2796C198.349 56.2755 198.331 56.2673 198.315 56.2555L193.251 52.3129C193.229 52.2949 193.201 52.2851 193.172 52.2852H190.37C189.868 52.2852 189.411 52.5758 189.199 53.03L188.774 53.9458ZM47.7349 54.1853L48.1236 53.3593C48.2282 53.1359 48.3945 52.947 48.6031 52.8147C48.8116 52.6824 49.0537 52.6124 49.3008 52.6127H61.0513C61.0734 52.6128 61.0951 52.6185 61.1144 52.6293C61.1337 52.64 61.1499 52.6555 61.1616 52.6742C61.1732 52.693 61.1799 52.7143 61.181 52.7364C61.1821 52.7584 61.1776 52.7803 61.1679 52.8001L60.1355 54.8751C60.1247 54.8967 60.1081 54.9149 60.0875 54.9276C60.0669 54.9403 60.0432 54.9471 60.019 54.9471H58.0221C57.9996 54.9471 57.9776 54.9413 57.9581 54.9303C57.9386 54.9193 57.9223 54.9034 57.9107 54.8842C57.8992 54.8651 57.8928 54.8432 57.8922 54.8209C57.8916 54.7985 57.8968 54.7764 57.9072 54.7566L58.1051 54.3831C58.1156 54.3634 58.1208 54.3412 58.1202 54.3189C58.1196 54.2965 58.1132 54.2747 58.1016 54.2555C58.0901 54.2364 58.0738 54.2205 58.0543 54.2095C58.0348 54.1985 58.0127 54.1927 57.9903 54.1927L47.7349 54.1853ZM99.2339 54.1853L99.6222 53.3593C99.7267 53.1359 99.8931 52.947 100.102 52.8147C100.31 52.6824 100.552 52.6124 100.799 52.6127H112.55C112.572 52.6129 112.594 52.6186 112.613 52.6294C112.632 52.6402 112.648 52.6557 112.66 52.6744C112.671 52.6931 112.678 52.7145 112.679 52.7365C112.68 52.7584 112.676 52.7803 112.666 52.8001L111.634 54.8751C111.623 54.8967 111.607 54.9149 111.586 54.9276C111.565 54.9403 111.542 54.9471 111.518 54.9471H109.521C109.498 54.9471 109.476 54.9413 109.457 54.9303C109.437 54.9193 109.421 54.9034 109.409 54.8842C109.398 54.8651 109.391 54.8432 109.391 54.8209C109.39 54.7985 109.395 54.7764 109.406 54.7566L109.604 54.3831C109.614 54.3634 109.619 54.3412 109.619 54.3189C109.618 54.2965 109.612 54.2747 109.6 54.2555C109.589 54.2364 109.572 54.2205 109.553 54.2095C109.533 54.1985 109.511 54.1927 109.489 54.1927L99.2339 54.1853Z" fill="#0F3052"/>
</g>
<defs>
<clipPath id="clip0_2115_15251">
<rect width="227" height="59" fill="white"/>
</clipPath>
</defs>
</svg>
